<svg xmlns="https://www.w3.org/2000/svg" width="32.87" height="33.383" viewBox="0 0 32.87 33.383">
    <g>
        <path d="M1182.191 577.621h-8.848a2.426 2.426 0 0 0-1.726.715l-1.279 1.279-.024-.005c-.56-.131-1.115-.253-1.657-.357a28.049 28.049 0 0 0-4.262-.533c-2.054-.067-3.106.285-3.3 1.111-.09.388-.357 1.5 3.905 3.084l1.061-1.061a11.3 11.3 0 0 1-3.476-1.67 14.569 14.569 0 0 1 4.912.235c.532.089 1.1.2 1.713.331l-16.731 16.731a2.441 2.441 0 0 0 0 3.45l8.848 8.849a2.443 2.443 0 0 0 3.451 0l.219-.219.076.05.98-.975-.079-.052 9.619-9.619-.258.389 4.835-4.836.258-.388 3.492-3.492a2.422 2.422 0 0 0 .715-1.726v-8.848a2.443 2.443 0 0 0-2.444-2.443zm1.085 11.289a1.08 1.08 0 0 1-.318.768l-19.142 19.142a1.086 1.086 0 0 1-1.535 0l-8.849-8.849a1.086 1.086 0 0 1 0-1.535l17.322-17.322c.57.147 1.1.3 1.6.449a23.238 23.238 0 0 1 3.323 1.263 2.358 2.358 0 0 0-.272 1.084 2.394 2.394 0 1 0 2.395-2.395 2.363 2.363 0 0 0-1.131.3 20.09 20.09 0 0 0-3.236-1.328c-.56-.184-1.095-.342-1.571-.475l.716-.716a1.077 1.077 0 0 1 .768-.318h8.848a1.087 1.087 0 0 1 1.085 1.086zm-6.14-5.107s.181.564.5.645a.665.665 0 0 0 .808-.492 1.176 1.176 0 0 0-.293-1.02 1.037 1.037 0 1 1-1.313.567 1.028 1.028 0 0 1 .298.297z" transform="translate(-1151.761 -577.621)"/>
        <path d="M1186.378 636.616a1.083 1.083 0 0 1-1.5.3l-.108-.072-.98.979.339.221a2.442 2.442 0 0 0 3.381-.681l6.443-9.7-4.84 4.84z" transform="translate(-1169.327 -605.07)"/>
    </g>
</svg>
