<svg xmlns="https://www.w3.org/2000/svg" width="40.001" height="32.681" viewBox="0 0 40.001 32.681">
    <g>
        <path d="M996.142 592.414h-1.8l-3.41-10.37a4.608 4.608 0 0 0-4.384-3.174h-8.718v1.265h8.722a3.344 3.344 0 0 1 3.183 2.306l3.28 9.974H977.83v1.265h18.312a.211.211 0 0 1 .211.211v7.166a.211.211 0 0 1-.211.211H977.83v1.265h8.43v5.381a1.577 1.577 0 0 0 1.575 1.575h3.6a1.577 1.577 0 0 0 1.565-1.577v-5.381h3.138a1.477 1.477 0 0 0 1.475-1.475v-7.166a1.477 1.477 0 0 0-1.471-1.476zm-4.4 15.5a.31.31 0 0 1-.31.31h-3.6a.311.311 0 0 1-.31-.31v-5.381h4.216z" transform="translate(.001) translate(-957.618 -576.806)"/>
        <path d="M1008.347 620a2.273 2.273 0 1 0-2.274 2.273 2.276 2.276 0 0 0 2.274-2.273zm-3.282 0a1.009 1.009 0 1 1 1.008 1.009 1.01 1.01 0 0 1-1.008-1.009z" transform="translate(.001) translate(-972.64 -599.284)"/>
        <path d="M942.343 622.276a2.274 2.274 0 1 0-2.274-2.276 2.275 2.275 0 0 0 2.274 2.276zm0-3.283a1.009 1.009 0 1 1-1.009 1.007 1.01 1.01 0 0 1 1.009-1.006z" transform="translate(.001) translate(-935.775 -599.284)"/>
        <path d="M948.816 572.692h-1.265v2.064h-6.606a4.6 4.6 0 0 0-4.38 3.174l-3.41 10.37h-1.8a1.481 1.481 0 0 0-1.48 1.475v7.166a1.481 1.481 0 0 0 1.48 1.475h3.135v5.384a1.577 1.577 0 0 0 1.575 1.575h3.6a1.577 1.577 0 0 0 1.575-1.575v-5.381h6.312l.012 6.956h1.265l-.012-6.956h.012v-1.265h-.012v-7.588h.012V588.3h-.012v-12.28h.012v-1.265h-.012zm-8.841 31.108a.31.31 0 0 1-.31.31h-3.6a.311.311 0 0 1-.31-.31v-5.381h4.216zm7.577-6.645H931.36a.215.215 0 0 1-.215-.211v-7.166a.215.215 0 0 1 .215-.211h16.192zm0-8.852h-13.069l3.284-9.974a3.338 3.338 0 0 1 3.178-2.306h6.606z" transform="translate(.001) translate(-929.881 -572.692)"/>
    </g>
</svg>
