<svg xmlns="http://www.w3.org/2000/svg" width="37.828" height="47.025" viewBox="0 0 37.828 47.025">
  <g id="Group_163" data-name="Group 163" transform="translate(-0.001)">
    <path id="Path_315" data-name="Path 315" d="M1091.528,731.171a7.912,7.912,0,1,0-7.912-7.912A7.921,7.921,0,0,0,1091.528,731.171Zm0-13.888a5.976,5.976,0,1,1-5.976,5.975A5.983,5.983,0,0,1,1091.528,717.283Z" transform="translate(-1072.614 -705.397)"/>
    <path id="Path_316" data-name="Path 316" d="M1069.022,721.154a5.258,5.258,0,0,1,1.328,1.605,5.434,5.434,0,0,1-.122,2.179c-.222,1.278-.474,2.726.319,3.817s2.266,1.307,3.557,1.49a5.4,5.4,0,0,1,2.084.545,5.341,5.341,0,0,1,1.142,1.794c.575,1.182,1.228,2.521,2.538,2.946,1.259.411,2.549-.271,3.685-.872a3.094,3.094,0,0,1,4.156,0,6.527,6.527,0,0,0,2.88,1,2.58,2.58,0,0,0,.8-.125c1.31-.425,1.962-1.765,2.537-2.946a2.929,2.929,0,0,1,3.227-2.339c1.292-.183,2.756-.39,3.556-1.49s.542-2.539.32-3.817a5.444,5.444,0,0,1-.122-2.179,5.264,5.264,0,0,1,1.329-1.6c.954-.919,2.035-1.961,2.035-3.361s-1.081-2.442-2.036-3.361a5.269,5.269,0,0,1-1.328-1.6,5.444,5.444,0,0,1,.122-2.179c.222-1.278.474-2.726-.319-3.816s-2.265-1.307-3.557-1.491a2.929,2.929,0,0,1-3.227-2.339c-.575-1.182-1.227-2.52-2.537-2.946-1.259-.41-2.549.271-3.685.872a3.094,3.094,0,0,1-4.157,0c-1.136-.6-2.426-1.281-3.684-.871-1.31.425-1.963,1.765-2.538,2.946a2.928,2.928,0,0,1-3.227,2.338c-1.292.183-2.757.391-3.557,1.49s-.541,2.539-.319,3.816a5.449,5.449,0,0,1,.122,2.18,5.27,5.27,0,0,1-1.328,1.6c-.955.918-2.036,1.961-2.036,3.361S1068.068,720.235,1069.022,721.154Zm1.344-5.327a6.374,6.374,0,0,0,1.827-2.4,6.593,6.593,0,0,0-.056-3.108c-.156-.9-.334-1.919-.023-2.345s1.351-.584,2.263-.713a6.525,6.525,0,0,0,2.953-.9,6.456,6.456,0,0,0,1.743-2.512c.407-.834.868-1.781,1.4-1.952.483-.157,1.385.32,2.181.741a4.846,4.846,0,0,0,5.966,0c.8-.42,1.7-.9,2.183-.741.527.17.987,1.117,1.394,1.952a4.676,4.676,0,0,0,4.7,3.409c.912.129,1.945.276,2.263.713s.133,1.446-.023,2.346a6.591,6.591,0,0,0-.056,3.108,6.374,6.374,0,0,0,1.827,2.4c.709.683,1.443,1.389,1.443,1.966s-.733,1.284-1.442,1.966a6.376,6.376,0,0,0-1.828,2.4,6.591,6.591,0,0,0,.056,3.108c.156.9.334,1.92.023,2.346s-1.35.584-2.262.713a4.676,4.676,0,0,0-4.7,3.409c-.406.835-.867,1.781-1.395,1.952-.486.158-1.386-.321-2.182-.741a4.845,4.845,0,0,0-5.965,0c-.8.421-1.7.9-2.182.741-.528-.171-.989-1.117-1.395-1.952a4.675,4.675,0,0,0-4.7-3.408c-.912-.129-1.945-.276-2.263-.713s-.134-1.446.023-2.346a6.585,6.585,0,0,0,.056-3.108,6.374,6.374,0,0,0-1.827-2.4c-.709-.682-1.442-1.388-1.442-1.966S1069.657,716.51,1070.366,715.827Z" transform="translate(-1066.718 -699.932)"/>
    <path id="Path_317" data-name="Path 317" d="M1104.115,756.165l-6.235-6.235c-.2.039-.394.065-.581.09a11.207,11.207,0,0,0-1.136.194,5.231,5.231,0,0,0-.258.484l5.583,5.583-3.911.839a.971.971,0,0,0-.742.742l-.846,3.918-6.4-6.4a9.926,9.926,0,0,1-2.988-1.168c-.245-.129-.607-.316-.878-.439q-.135-.058-.232-.1c-.065.026-.148.058-.239.1-.278.123-.626.3-.871.432a9.909,9.909,0,0,1-3,1.168l-6.4,6.4-.845-3.918a.971.971,0,0,0-.742-.742l-3.911-.839,5.589-5.583v-.006c-.1-.181-.194-.355-.265-.478a11.073,11.073,0,0,0-1.13-.194c-.187-.026-.387-.052-.587-.09l-6.235,6.235a.98.98,0,0,0-.245.962.965.965,0,0,0,.729.671l5.034,1.084,1.084,5.041a.964.964,0,0,0,.678.723.981.981,0,0,0,.271.039.952.952,0,0,0,.684-.284l10.391-10.392,10.4,10.392a.952.952,0,0,0,.684.284.981.981,0,0,0,.271-.039.964.964,0,0,0,.678-.723l1.084-5.041,5.034-1.084a.965.965,0,0,0,.729-.671A.98.98,0,0,0,1104.115,756.165Z" transform="translate(-1066.571 -717.659)"/>
  </g>
</svg>
