<svg xmlns="https://www.w3.org/2000/svg" width="61.245" height="50.038" viewBox="0 0 61.245 50.038">
  <g id="Group_160" data-name="Group 160" transform="translate(0.001)">
    <path id="Path_302" data-name="Path 302" d="M1005.868,599.608h-2.75L997.9,583.73a7.055,7.055,0,0,0-6.713-4.86H977.83v1.936h13.354a5.12,5.12,0,0,1,4.873,3.531l5.021,15.271H977.83v1.936h28.038a.324.324,0,0,1,.323.323v10.972a.324.324,0,0,1-.323.323H977.83V615.1h12.907v8.238a2.414,2.414,0,0,0,2.411,2.411h5.5a2.414,2.414,0,0,0,2.411-2.411V615.1h4.8a2.261,2.261,0,0,0,2.259-2.259V601.867A2.262,2.262,0,0,0,1005.868,599.608Zm-6.74,23.729a.475.475,0,0,1-.474.475h-5.5a.475.475,0,0,1-.475-.475V615.1h6.454Z" transform="translate(-946.882 -575.71)"/>
    <path id="Path_303" data-name="Path 303" d="M1010.762,621.21a3.481,3.481,0,1,0-3.481,3.481A3.486,3.486,0,0,0,1010.762,621.21Zm-5.025,0a1.545,1.545,0,1,1,1.544,1.545A1.547,1.547,0,0,1,1005.736,621.21Z" transform="translate(-956.09 -589.488)"/>
    <path id="Path_304" data-name="Path 304" d="M943.551,624.691a3.481,3.481,0,1,0-3.482-3.481A3.484,3.484,0,0,0,943.551,624.691Zm0-5.026a1.545,1.545,0,1,1-1.545,1.545A1.547,1.547,0,0,1,943.551,619.665Z" transform="translate(-933.493 -589.488)"/>
    <path id="Path_305" data-name="Path 305" d="M958.874,572.692h-1.936v3.16H946.823a7.048,7.048,0,0,0-6.706,4.86L934.9,596.59h-2.75a2.267,2.267,0,0,0-2.266,2.259v10.973a2.267,2.267,0,0,0,2.266,2.259h4.8v8.238a2.414,2.414,0,0,0,2.411,2.411h5.5a2.414,2.414,0,0,0,2.411-2.411v-8.238h9.665l.019,10.65h1.936l-.019-10.65h.019v-1.936h-.019V598.526h.019V596.59h-.019v-18.8h.019v-1.936h-.019Zm-13.537,47.626a.475.475,0,0,1-.474.475h-5.5a.475.475,0,0,1-.475-.475v-8.238h6.454Zm11.6-10.175H932.146a.329.329,0,0,1-.329-.323V598.849a.329.329,0,0,1,.329-.323h24.792Zm0-13.554H936.928l5.028-15.271a5.111,5.111,0,0,1,4.867-3.531h10.115Z" transform="translate(-929.881 -572.692)"/>
  </g>
</svg>
