<svg id="Group_162" data-name="Group 162" xmlns="https://www.w3.org/2000/svg" width="46.991" height="47.726" viewBox="0 0 46.991 47.726">
  <path id="Path_313" data-name="Path 313" d="M1195.264,577.621h-12.65a3.468,3.468,0,0,0-2.467,1.022l-1.828,1.828-.034-.008c-.8-.188-1.594-.361-2.369-.51a40.1,40.1,0,0,0-6.093-.762c-2.937-.1-4.441.407-4.724,1.588-.129.555-.51,2.149,5.583,4.408l1.517-1.517a16.144,16.144,0,0,1-4.97-2.388c.923-.239,3.337-.284,7.022.336.761.127,1.579.284,2.449.473l-23.919,23.919a3.49,3.49,0,0,0,0,4.932l12.65,12.651a3.493,3.493,0,0,0,4.933,0l.312-.312.108.072,1.4-1.393-.112-.075,13.752-13.752-.369.556,6.913-6.913.369-.555,4.993-4.992a3.462,3.462,0,0,0,1.022-2.468V581.11A3.492,3.492,0,0,0,1195.264,577.621Zm1.552,16.139a1.543,1.543,0,0,1-.454,1.1L1169,622.223a1.553,1.553,0,0,1-2.194,0l-12.651-12.651a1.553,1.553,0,0,1,0-2.194l24.763-24.764c.815.21,1.579.426,2.282.642a33.224,33.224,0,0,1,4.75,1.805,3.375,3.375,0,0,0-.389,1.55,3.423,3.423,0,1,0,3.423-3.423,3.378,3.378,0,0,0-1.617.425,28.715,28.715,0,0,0-4.626-1.9c-.8-.263-1.565-.489-2.245-.68l1.023-1.023a1.54,1.54,0,0,1,1.1-.455h12.65a1.554,1.554,0,0,1,1.552,1.552Zm-8.778-7.3c0,.006.258.807.716.922a.95.95,0,0,0,1.155-.7,1.679,1.679,0,0,0-.42-1.458,1.483,1.483,0,1,1-1.877.81A1.468,1.468,0,0,1,1188.038,586.459Z" transform="translate(-1151.761 -577.621)"/>
  <path id="Path_314" data-name="Path 314" d="M1187.491,640.462a1.547,1.547,0,0,1-2.149.432l-.155-.1-1.4,1.4.484.316a3.491,3.491,0,0,0,4.834-.974l9.21-13.871-6.919,6.92Z" transform="translate(-1163.116 -595.364)"/>
</svg>
