<svg xmlns="https://www.w3.org/2000/svg" width="62.607" height="54.382" viewBox="0 0 62.607 54.382">
  <g id="Group_161" data-name="Group 161" transform="translate(0)">
    <path id="Path_306" data-name="Path 306" d="M1065.882,583.326,1055.3,572.748a.968.968,0,0,0-1.369,0l-11.125,11.125a.967.967,0,0,0,0,1.369l10.579,10.579a.968.968,0,0,0,.685.283h.05l10.583-.542a.968.968,0,0,0,.917-.917l.543-10.583A.97.97,0,0,0,1065.882,583.326Zm-2.149,10.346-9.281.476-9.59-9.59,9.756-9.756,9.59,9.59Z" transform="translate(-1042.207 -572.464)"/>
    <ellipse id="Ellipse_42" data-name="Ellipse 42" cx="1.441" cy="1.441" rx="1.441" ry="1.441" transform="translate(16.178 15.768)"/>
    <path id="Path_307" data-name="Path 307" d="M1045.029,594.6h-.006l.006.006Z" transform="translate(-1043.092 -580.314)"/>
    <path id="Path_308" data-name="Path 308" d="M1045.918,627a1.953,1.953,0,0,1-1.949-1.956v-27.25l-1.936-1.936v29.186a3.891,3.891,0,0,0,3.886,3.893h1.685a9.1,9.1,0,0,1,0-1.936Z" transform="translate(-1042.032 -580.757)"/>
    <path id="Path_309" data-name="Path 309" d="M1078.782,644.1a9.08,9.08,0,0,1,0,1.936h15.161a9.1,9.1,0,0,1,0-1.936Z" transform="translate(-1055.062 -597.865)"/>
    <path id="Path_310" data-name="Path 310" d="M1112.29,612.862l-7.055-2.484L1085.4,597.553h-3.866l-.1,1.936h3.389l16.7,10.791h-11.418l-8.913-6.034-.065,1.259a.98.98,0,0,1-.426.755l8.81,5.957h15.2l6.938,2.473a7.155,7.155,0,0,1,4.763,6.732v4.221a1.959,1.959,0,0,1-1.956,1.956h-1.678a9.124,9.124,0,0,1,0,1.936h1.678a3.9,3.9,0,0,0,3.892-3.893v-4.221A9.088,9.088,0,0,0,1112.29,612.862Z" transform="translate(-1055.743 -581.36)"/>
    <path id="Path_311" data-name="Path 311" d="M1112.4,634.488a7.175,7.175,0,1,0,7.175,7.175A7.184,7.184,0,0,0,1112.4,634.488Zm0,12.414a5.239,5.239,0,1,1,5.238-5.238A5.245,5.245,0,0,1,1112.4,646.9Z" transform="translate(-1064.436 -594.456)"/>
    <path id="Path_312" data-name="Path 312" d="M1060.778,634.488a7.175,7.175,0,1,0,7.175,7.175A7.184,7.184,0,0,0,1060.778,634.488Zm0,12.414a5.239,5.239,0,1,1,5.239-5.238A5.245,5.245,0,0,1,1060.778,646.9Z" transform="translate(-1046.135 -594.456)"/>
  </g>
</svg>
