<svg xmlns="https://www.w3.org/2000/svg" width="40.683" height="35.338" viewBox="0 0 40.683 35.338">
    <g>
        <path d="M1057.7 579.523l-6.875-6.874a.629.629 0 0 0-.89 0l-7.229 7.229a.628.628 0 0 0 0 .89l6.874 6.874a.63.63 0 0 0 .445.184h.032l6.877-.352a.629.629 0 0 0 .6-.6l.353-6.877a.63.63 0 0 0-.187-.474zm-1.4 6.723l-6.031.309-6.232-6.232 6.34-6.34 6.232 6.232z" transform="translate(-1042.318 -572.464)"/>
        <circle cx=".936" cy=".936" r=".936" transform="translate(10.513 10.246)"/>
        <path d="M1044.557 616.09a1.269 1.269 0 0 1-1.267-1.271v-17.708l-1.258-1.258v18.965a2.529 2.529 0 0 0 2.525 2.53h1.095a5.912 5.912 0 0 1 0-1.258z" transform="translate(-1042.032 -586.044)"/>
        <path d="M1078.782 644.1a5.891 5.891 0 0 1 0 1.258h9.852a5.912 5.912 0 0 1 0-1.258z" transform="translate(-1063.369 -614.057)"/>
        <path d="M1101.228 607.5l-4.584-1.614-12.888-8.334h-2.512l-.063 1.258h2.2l10.85 7.012h-7.419l-5.792-3.921-.042.818a.637.637 0 0 1-.277.491l5.725 3.871h9.877l4.509 1.607a4.65 4.65 0 0 1 3.1 4.374v2.743a1.273 1.273 0 0 1-1.271 1.271h-1.09a5.933 5.933 0 0 1 0 1.258h1.09a2.532 2.532 0 0 0 2.529-2.529v-2.743a5.906 5.906 0 0 0-3.942-5.562z" transform="translate(-1064.484 -587.031)"/>
        <path d="M1109.882 634.488a4.662 4.662 0 1 0 4.662 4.663 4.668 4.668 0 0 0-4.662-4.663zm0 8.067a3.4 3.4 0 1 1 3.4-3.4 3.408 3.408 0 0 1-3.4 3.4z" transform="translate(-1078.718 -608.475)"/>
        <path d="M1058.266 634.488a4.662 4.662 0 1 0 4.663 4.663 4.668 4.668 0 0 0-4.663-4.663zm0 8.067a3.4 3.4 0 1 1 3.4-3.4 3.408 3.408 0 0 1-3.4 3.4z" transform="translate(-1048.75 -608.475)"/>
    </g>
</svg>
