<svg xmlns="http://www.w3.org/2000/svg" width="36.122" height="30.986" viewBox="0 0 36.122 30.986">
    <defs>
        <style>
            .cls-1{fill:#959595}
        </style>
    </defs>
    <g id="Group_415" transform="translate(-1.007 -5.551)">
        <path id="Path_1204" d="M30.867 30.644L15.4 16.474A7.614 7.614 0 0 0 6.2 5.917a.6.6 0 0 0-.339.4.455.455 0 0 0 .169.508l3.331 3.331.113 3.782-3.782-.113L2.3 10.49a.455.455 0 0 0-.508-.169.558.558 0 0 0-.4.4 7.452 7.452 0 0 0 1.869 7.729 7.676 7.676 0 0 0 8.694 1.468l14.17 15.468a3.359 3.359 0 1 0 4.742-4.742z" class="cls-1"/>
        <path id="Path_1205" d="M51.279 10.808a.682.682 0 0 0-.4-.4.455.455 0 0 0-.508.169l-3.331 3.331-3.839.113.113-3.782 3.336-3.326a.622.622 0 0 0 .17-.513.558.558 0 0 0-.4-.4 7.533 7.533 0 0 0-7.73 1.872 7.613 7.613 0 0 0-1.468 8.694l-2.823 2.6 3.9 3.557 2.427-2.653a7.629 7.629 0 0 0 10.557-9.258z" class="cls-1" transform="translate(-14.542 -.036)"/>
        <path id="Path_1206" d="M11.239 45.036a3.379 3.379 0 0 0-.113 4.911 3.426 3.426 0 0 0 4.911-.113L22.3 43l-4-4.4z" class="cls-1" transform="translate(-3.969 -14.392)"/>
    </g>
</svg>
