<svg xmlns="http://www.w3.org/2000/svg" width="34.668" height="32.336" viewBox="0 0 34.668 32.336">
    <defs>
        <style>
            .cls-1{fill:#959595}
        </style>
    </defs>
    <g id="Group_414" transform="translate(-.596 -2.8)">
        <g id="Group_413" transform="translate(6.9 2.8)">
            <g id="Group_412">
                <g id="Group_404" transform="translate(0 6.633)">
                    <path id="Path_1195" d="M15.593 14.8v8.181a3.633 3.633 0 0 0-1.161 2.487 2.267 2.267 0 0 0 .055.608L12 28.066V14.8z" class="cls-1" transform="translate(-12 -14.8)"/>
                </g>
                <g id="Group_405" transform="translate(0 21.557)">
                    <path id="Path_1196" d="M12 44.785l3.593-2.985v10.723H12z" class="cls-1" transform="translate(-12 -41.8)"/>
                </g>
                <g id="Group_406" transform="translate(6.412 11.276)">
                    <path id="Path_1197" d="M27.138 23.2v6.135l-.387-.166A3.645 3.645 0 0 0 23.6 25.8v-2.6z" class="cls-1" transform="translate(-23.6 -23.2)"/>
                </g>
                <g id="Group_407" transform="translate(6.412 20.452)">
                    <path id="Path_1198" d="M25.2 39.8l1.935 1.161v10.723H23.6V40.408a4.029 4.029 0 0 0 1.6-.608z" class="cls-1" transform="translate(-23.6 -39.8)"/>
                </g>
                <g id="Group_408" transform="translate(12.824)">
                    <path id="Path_1199" d="M38.738 2.8v19.457a3.923 3.923 0 0 0-1.714.719L35.2 21.925V2.8z" class="cls-1" transform="translate(-35.2 -2.8)"/>
                </g>
                <g id="Group_409" transform="translate(12.824 23.215)">
                    <path id="Path_1200" d="M38.738 48.172v5.693H35.2V44.8l.442.276a3.523 3.523 0 0 0 3.096 3.096z" class="cls-1" transform="translate(-35.2 -44.8)"/>
                </g>
                <g id="Group_410" transform="translate(19.18 11.276)">
                    <path id="Path_1201" d="M50.293 23.2v4.7L46.7 31.049V23.2z" class="cls-1" transform="translate(-46.7 -23.2)"/>
                </g>
                <g id="Group_411" transform="translate(19.18 20.728)">
                    <path id="Path_1202" d="M47.916 42.4l2.322-2.1v11.552H46.7v-6.577a3.6 3.6 0 0 0 1.216-2.543z" class="cls-1" transform="translate(-46.7 -40.3)"/>
                </g>
            </g>
        </g>
        <path id="Path_1203" d="M35.2 26.611a.422.422 0 0 0-.276-.111L31 27.384a.253.253 0 0 0-.221.276c0 .111.055.276.166.276l1.437.608-.221.166-6.688 5.97a2.27 2.27 0 0 0-1.6-.719 2.344 2.344 0 0 0-2.1 1.05l-6.412-3.7a.7.7 0 0 1 .055-.332 2.559 2.559 0 0 0-.608-1.769 2.239 2.239 0 0 0-1.658-.774 2.607 2.607 0 0 0-1.769.663 2.239 2.239 0 0 0-.774 1.658 3.13 3.13 0 0 0 .166.995l-6.3 5.141a2.249 2.249 0 0 0-1.327-.442 2.435 2.435 0 0 0-.221 4.864h.105a2.666 2.666 0 0 0 1.658-.608 2.239 2.239 0 0 0 .774-1.658 2.887 2.887 0 0 0-.221-1.161l6.08-5.085a2.435 2.435 0 0 0 3.427-.332l6.522 3.7v.111a2.435 2.435 0 1 0 4.864.221 2.92 2.92 0 0 0-.055-.719l6.854-6.08.276-.221.608 1.437a.3.3 0 0 0 .276.166.367.367 0 0 0 .276-.221l.829-3.98c.113-.053.058-.164.002-.274zM3.03 40.1a1.226 1.226 0 0 1-1.16-1.274 1.267 1.267 0 0 1 1.271-1.161 1.114 1.114 0 0 1 .608.166 1.21 1.21 0 0 1 .5.553 1.614 1.614 0 0 1 .111.5A1.364 1.364 0 0 1 3.03 40.1zm11.055-9.176a.915.915 0 0 1-.276.663 1.343 1.343 0 0 1-.995.5 1.051 1.051 0 0 1-.719-.276 1.431 1.431 0 0 1-.387-.608c0-.111-.055-.221-.055-.332a1.267 1.267 0 0 1 1.271-1.161 1.118 1.118 0 0 1 1.161 1.216zM24.919 36.5a1.182 1.182 0 0 1-1.271 1.105 1.242 1.242 0 0 1-1.161-.995v-.276a.772.772 0 0 1 .166-.5 1.167 1.167 0 0 1 1.105-.608 1.231 1.231 0 0 1 .94.5 1.081 1.081 0 0 1 .221.774z" class="cls-1" transform="translate(0 -10.6)"/>
    </g>
</svg>
