<svg xmlns="http://www.w3.org/2000/svg" width="34.805" height="31.854" viewBox="0 0 34.805 31.854">
    <g>
        <path fill="#959595" d="M21.285 41.346a.907.907 0 0 0 .885-.885 3.244 3.244 0 0 1 6.489 0 .885.885 0 0 0 1.77 0 3.244 3.244 0 1 1 6.489 0v9.379a5.014 5.014 0 0 0 10.028 0v-.885a.885.885 0 0 0-1.77 0v.885a3.235 3.235 0 0 1-3.244 3.244 3.273 3.273 0 0 1-3.244-3.244v-9.379a3.235 3.235 0 0 1 3.244-3.244 3.273 3.273 0 0 1 3.244 3.244.885.885 0 1 0 1.77 0 3.235 3.235 0 0 1 3.244-3.244 3.273 3.273 0 0 1 3.244 3.244.885.885 0 1 0 1.77 0A17.321 17.321 0 0 0 37.861 23 17.5 17.5 0 0 0 20.4 40.461a.907.907 0 0 0 .885.885z" transform="translate(-20.4 -23)"/>
    </g>
</svg>
