<svg xmlns="http://www.w3.org/2000/svg" width="91.684" height="87.715" viewBox="0 0 91.684 87.715">
  <defs>
    <style>
      .cls-1, .cls-2 {
        fill: none;
        stroke: #959595;
        stroke-width: 3px;
      }

      .cls-1 {
        stroke-miterlimit: 10;
      }

      .cls-3 {
        fill: #959595;
      }
    </style>
  </defs>
  <g id="Group_22" data-name="Group 22" transform="translate(-1489 -1204.065)">
    <path id="Path_86" data-name="Path 86" class="cls-1" d="M1850.746,1441.625c0,4.5-5.944,7.995-7.26,12.051-1.365,4.2,1.338,10.517-1.206,14.016-2.571,3.533-9.432,2.9-12.965,5.472-3.5,2.547-5,9.279-9.2,10.643-4.056,1.316-9.212-3.2-13.7-3.2s-9.652,4.517-13.708,3.2c-4.2-1.365-5.708-8.1-9.2-10.643-3.533-2.571-10.391-1.938-12.965-5.472-2.544-3.5.158-9.815-1.206-14.016-1.317-4.056-7.26-7.555-7.26-12.051s5.944-7.995,7.26-12.051c1.365-4.2-1.338-10.517,1.209-14.016,2.572-3.534,9.429-2.9,12.963-5.472,3.5-2.547,5-9.279,9.2-10.643,4.056-1.316,9.212,3.2,13.708,3.2s9.649-4.52,13.7-3.2c4.2,1.365,5.708,8.1,9.206,10.643,3.531,2.571,10.392,1.941,12.963,5.475,2.544,3.5-.158,9.813,1.206,14.016C1844.8,1433.63,1850.746,1437.132,1850.746,1441.625Z" transform="translate(-271.562 -193.702)"/>
    <line id="Line_3" data-name="Line 3" class="cls-2" x1="30" y2="30" transform="translate(1519.5 1232.5)"/>
    <g id="Group_21" data-name="Group 21" transform="translate(1 1)">
      <circle id="Ellipse_9" data-name="Ellipse 9" class="cls-3" cx="3.5" cy="3.5" r="3.5" transform="translate(1538 1251)"/>
      <circle id="Ellipse_10" data-name="Ellipse 10" class="cls-3" cx="3.5" cy="3.5" r="3.5" transform="translate(1523 1236)"/>
    </g>
  </g>
</svg>
