<svg xmlns="http://www.w3.org/2000/svg" width="48.179" height="48" viewBox="0 0 48.179 48">
    <g>
        <path fill="#f4263d" d="M719.915 186.718a24 24 0 1 1 24.089-24 24.072 24.072 0 0 1-24.089 24z" transform="translate(-695.825 -138.718)"/>
    </g>
    <g>
        <g>
            <path fill="#fff" d="M735.68 161.049a6.186 6.186 0 0 0-6.186-6.186h-16.046a6.186 6.186 0 0 0-6.186 6.186v7.52a6.186 6.186 0 0 0 6.186 6.186h16.045a6.186 6.186 0 0 0 6.186-6.186zm-10.123 4.139l-6.4 3.509c-.278.151-.529-.05-.529-.367v-7.2c0-.32.258-.521.537-.363l6.443 3.695a.42.42 0 0 1-.051.726z" transform="translate(10.095 14.16) translate(-707.262 -154.863)"/>
        </g>
    </g>
</svg>
