<svg xmlns="http://www.w3.org/2000/svg" id="Group_140" width="48.179" height="47.999" viewBox="0 0 48.179 47.999">
    <defs>
        <style>
            .cls-3{fill:#fff;fill-rule:evenodd}
        </style>
    </defs>
    <g id="Group_116">
        <path id="Path_288" fill="#f4263d" d="M556.473 250.946a24 24 0 1 1 24.09-24 24.071 24.071 0 0 1-24.09 24z" transform="translate(-532.384 -202.947)"/>
    </g>
    <g id="Group_123" transform="translate(9.962 12.436)">
        <g id="Group_118">
            <path id="Path_290" fill="#fff" d="M571.643 219.91a11.518 11.518 0 0 1-2.836.81c.456-.077 1.131-.9 1.4-1.238a5.227 5.227 0 0 0 .944-1.719c.025-.049.043-.111-.006-.148a.159.159 0 0 0-.15.012 14.47 14.47 0 0 1-3.369 1.29.224.224 0 0 1-.232-.062 2.725 2.725 0 0 0-.295-.3 5.962 5.962 0 0 0-1.632-1 5.684 5.684 0 0 0-2.5-.4 5.982 5.982 0 0 0-2.374.671 6.131 6.131 0 0 0-1.916 1.565 5.9 5.9 0 0 0-1.144 2.291 6.2 6.2 0 0 0-.06 2.419c.018.135.006.154-.117.135-4.628-.688-8.463-2.344-11.577-5.892-.135-.154-.208-.154-.32.012-1.363 2.042-.7 5.323 1 6.936.227.214.46.43.711.626a5.881 5.881 0 0 1-2.234-.626c-.135-.086-.2-.036-.215.117a3.5 3.5 0 0 0 .036.664 5.936 5.936 0 0 0 3.659 4.732 3.438 3.438 0 0 0 .742.227 6.612 6.612 0 0 1-2.191.068c-.16-.031-.221.049-.16.2a6.163 6.163 0 0 0 4.6 3.854c.209.036.417.036.627.086-.012.019-.025.019-.037.037-.516.788-2.309 1.374-3.143 1.666a11.265 11.265 0 0 1-4.775.611c-.257-.038-.311-.035-.38 0s-.009.105.074.171c.325.215.657.406.994.59a15.776 15.776 0 0 0 3.192 1.277c5.736 1.583 12.2.42 16.5-3.859 3.382-3.361 4.568-7.995 4.568-12.634 0-.182.214-.282.342-.378a11.121 11.121 0 0 0 2.236-2.336.678.678 0 0 0 .138-.447v-.025c.005-.077.014-.054-.1-.003z" transform="translate(-543.67 -217.139)"/>
        </g>
        <g id="Group_119" transform="translate(8.339 23.027)"/>
        <g id="Group_120" transform="translate(8.125 23.027)">
            <path id="Path_292" d="M553.089 243.228c-.037 0-.463 0 0 0z" class="cls-3" transform="translate(-552.875 -243.228)"/>
        </g>
        <g id="Group_121" transform="translate(9.284 23.031)">
            <path id="Path_293" d="M554.189 243.253c0-.047.5 0 0 0 0-.024.061 0 0 0z" class="cls-3" transform="translate(-554.189 -243.232)"/>
        </g>
        <g id="Group_122" transform="translate(19.098 .034)">
            <path id="Path_294" d="M565.424 217.177a.1.1 0 0 1-.117 0z" class="cls-3" transform="translate(-565.308 -217.177)"/>
        </g>
    </g>
</svg>
