<svg xmlns="http://www.w3.org/2000/svg" width="48" height="48" viewBox="0 0 32 31.881">
    <g>
        <path fill="#f4263d" d="M629.921 234.828a15.941 15.941 0 1 1 16-15.94 15.989 15.989 0 0 1-16 15.94z" transform="translate(-613.92 -202.947)"/>
    </g>
    <g>
        <path fill="#fff" fill-rule="evenodd" d="M635.547 223.547v9.273a.242.242 0 0 0 .241.242h3.444a.242.242 0 0 0 .242-.242v-9.42h2.5a.241.241 0 0 0 .24-.221l.24-2.84a.242.242 0 0 0-.241-.262h-2.737v-2.014a.855.855 0 0 1 .855-.855h1.925a.242.242 0 0 0 .241-.242v-2.839a.242.242 0 0 0-.241-.242H639a3.454 3.454 0 0 0-3.455 3.455v2.737h-1.722a.242.242 0 0 0-.242.242v2.84a.241.241 0 0 0 .242.242h1.722z" transform="translate(11.528 6.35) translate(-633.584 -213.881)"/>
    </g>
</svg>
