<svg xmlns="http://www.w3.org/2000/svg" width="48" height="48" viewBox="0 0 32.131 32.012">
    <g>
        <path fill="#f4263d" d="M711.891 170.73a16.006 16.006 0 1 1 16.065-16.006 16.054 16.054 0 0 1-16.065 16.006z" transform="translate(-695.825 -138.718)"/>
    </g>
    <g>
        <g>
            <path fill="#fff" d="M726.214 158.989a4.126 4.126 0 0 0-4.126-4.126h-10.7a4.126 4.126 0 0 0-4.126 4.126V164a4.126 4.126 0 0 0 4.126 4.126h10.7a4.126 4.126 0 0 0 4.126-4.126zm-6.751 2.76l-4.268 2.34c-.185.1-.353-.034-.353-.245v-4.8c0-.214.172-.347.358-.242l4.3 2.464a.28.28 0 0 1-.037.483z" transform="translate(6.732 9.443) translate(-707.262 -154.863)"/>
        </g>
    </g>
</svg>
