<svg xmlns="https://www.w3.org/2000/svg" width="47.865" height="47.685" viewBox="0 0 47.865 47.685">
    <ellipse cx="20.963" cy="20.873" fill="#fff" rx="20.963" ry="20.873" transform="translate(2.951 2.767)"/>
    <g>
        <path fill="#f4263d" d="M719.936 251.316a23.843 23.843 0 1 1 23.932-23.842 23.915 23.915 0 0 1-23.932 23.842zM728 217.8a1.764 1.764 0 1 0 1.771 1.765A1.768 1.768 0 0 0 728 217.8zm-7.873 2.262a7.411 7.411 0 1 0 7.439 7.412 7.434 7.434 0 0 0-7.434-7.412zm0 12.159a4.747 4.747 0 1 1 4.765-4.747 4.762 4.762 0 0 1-4.76 4.747zm15.01-10.907a9.057 9.057 0 0 0-9.074-9.039h-11.97a9.057 9.057 0 0 0-9.073 9.039v11.932a9.057 9.057 0 0 0 9.073 9.039h11.976a9.056 9.056 0 0 0 9.074-9.039zm-2.837 11.932a6.22 6.22 0 0 1-6.232 6.208h-11.975a6.22 6.22 0 0 1-6.231-6.208v-11.932a6.22 6.22 0 0 1 6.231-6.208h11.976a6.22 6.22 0 0 1 6.232 6.208z" transform="translate(-696.003 -203.631)"/>
    </g>
</svg>
