<svg xmlns="http://www.w3.org/2000/svg" id="Group_140" width="32" height="31.881" viewBox="0 0 32 31.881">
    <defs>
        <style>
            .cls-3{fill:#fff;fill-rule:evenodd}
        </style>
    </defs>
    <g id="Group_116">
        <path id="Path_288" fill="#333033" d="M548.384 234.828a15.941 15.941 0 1 1 16-15.94 15.988 15.988 0 0 1-16 15.94z" transform="translate(-532.384 -202.947)"/>
    </g>
    <g id="Group_123" transform="translate(6.616 8.26)">
        <g id="Group_118">
            <path id="Path_290" fill="#fff" d="M562.25 218.98a7.649 7.649 0 0 1-1.884.538c.3-.051.751-.6.93-.823a3.471 3.471 0 0 0 .627-1.142c.016-.033.029-.074 0-.1a.106.106 0 0 0-.1.008 9.611 9.611 0 0 1-2.238.857.149.149 0 0 1-.154-.041 1.809 1.809 0 0 0-.2-.2 3.962 3.962 0 0 0-1.084-.664 3.776 3.776 0 0 0-1.663-.268 3.974 3.974 0 0 0-1.577.446 4.071 4.071 0 0 0-1.273 1.039 3.917 3.917 0 0 0-.76 1.522 4.119 4.119 0 0 0-.04 1.607c.012.09 0 .1-.077.09a11.95 11.95 0 0 1-7.689-3.914c-.09-.1-.138-.1-.212.008a3.9 3.9 0 0 0 .665 4.607c.151.142.305.285.473.416a3.907 3.907 0 0 1-1.484-.416c-.09-.057-.135-.024-.142.077a2.317 2.317 0 0 0 .024.441 3.943 3.943 0 0 0 2.43 3.143 2.283 2.283 0 0 0 .493.151 4.391 4.391 0 0 1-1.455.045c-.106-.021-.147.033-.106.135a4.093 4.093 0 0 0 3.057 2.56c.139.024.277.024.416.057-.008.012-.016.012-.025.025a4.845 4.845 0 0 1-2.088 1.107 7.482 7.482 0 0 1-3.172.406c-.171-.025-.206-.023-.253 0s-.006.07.049.114c.216.143.436.27.66.392a10.478 10.478 0 0 0 2.12.848 11.291 11.291 0 0 0 10.962-2.563 11.5 11.5 0 0 0 3.034-8.392c0-.121.142-.188.227-.251a7.39 7.39 0 0 0 1.485-1.552.451.451 0 0 0 .091-.3v-.016c.002-.047.009-.031-.067.003z" transform="translate(-543.67 -217.139)"/>
        </g>
        <g id="Group_119" transform="translate(5.539 15.295)"/>
        <g id="Group_120" transform="translate(5.396 15.295)">
            <path id="Path_292" d="M553.017 243.228c-.025 0-.308 0 0 0z" class="cls-3" transform="translate(-552.875 -243.228)"/>
        </g>
        <g id="Group_121" transform="translate(6.167 15.297)">
            <path id="Path_293" d="M554.189 243.246c0-.031.33 0 0 0 0-.016.04 0 0 0z" class="cls-3" transform="translate(-554.189 -243.232)"/>
        </g>
        <g id="Group_122" transform="translate(12.685 .022)">
            <path id="Path_294" d="M565.385 217.177a.067.067 0 0 1-.077 0z" class="cls-3" transform="translate(-565.308 -217.177)"/>
        </g>
    </g>
</svg>
