<svg xmlns="http://www.w3.org/2000/svg" id="Group_139" width="48" height="48" viewBox="0 0 32.001 31.881">
    <defs>
        <style>
            .cls-2{fill:#fff}
        </style>
    </defs>
    <g id="Group_137">
        <g id="Group_134">
            <path id="Path_300" fill="#f4263d" d="M629.967 299.975a15.941 15.941 0 1 1 16-15.941 15.989 15.989 0 0 1-16 15.941z" transform="translate(-613.966 -268.094)"/>
        </g>
        <g id="Group_136" transform="translate(8.381 12.25)">
            <g id="Group_135">
                <path id="Path_301" d="M644.9 293.972v5.974a.267.267 0 0 1-.268.267h-3.084a.267.267 0 0 1-.267-.267v-5.556c0-1.462-.522-2.461-1.833-2.461a1.979 1.979 0 0 0-1.856 1.323 2.464 2.464 0 0 0-.12.882v5.811a.267.267 0 0 1-.267.267h-3.083a.266.266 0 0 1-.267-.267c.007-1.48.038-8.659.006-10.346a.266.266 0 0 1 .267-.271h3.077a.268.268 0 0 1 .267.268v1.275c-.007.012-.018.024-.024.036h.024v-.036a3.593 3.593 0 0 1 3.261-1.8c2.381 0 4.166 1.556 4.166 4.9zm-16.4 6.241h3.084a.267.267 0 0 0 .267-.267V289.6a.268.268 0 0 0-.267-.268H628.5a.268.268 0 0 0-.267.268v10.349a.267.267 0 0 0 .272.264z" class="cls-2" transform="translate(-628.238 -289.074)"/>
            </g>
        </g>
    </g>
    <g id="Group_138" transform="translate(8.145 7.286)">
        <circle id="Ellipse_37" cx="1.937" cy="1.937" r="1.937" class="cls-2"/>
    </g>
</svg>
