<svg xmlns="http://www.w3.org/2000/svg" width="48.179" height="47.999" viewBox="0 0 48.179 47.999">
    <g>
        <path fill="#333033" d="M638.01 250.946a24 24 0 1 1 24.089-24 24.072 24.072 0 0 1-24.089 24z" transform="translate(-613.92 -202.947)"/>
    </g>
    <g>
        <path fill="#fff" fill-rule="evenodd" d="M636.54 228.434V242.4a.364.364 0 0 0 .364.364h5.185a.364.364 0 0 0 .364-.364v-14.194h3.759a.363.363 0 0 0 .362-.333l.362-4.275a.365.365 0 0 0-.363-.395h-4.12v-3.033a1.287 1.287 0 0 1 1.287-1.288h2.9a.364.364 0 0 0 .364-.364v-4.275a.364.364 0 0 0-.364-.364h-4.9a5.2 5.2 0 0 0-5.2 5.2v4.121h-2.592a.364.364 0 0 0-.364.364v4.275a.363.363 0 0 0 .364.364h2.592z" transform="translate(17.356 9.561) translate(-633.584 -213.881)"/>
    </g>
</svg>
