<svg xmlns="https://www.w3.org/2000/svg" width="48" height="48" viewBox="0 0 32.001 31.88">
    <ellipse cx="14.015" cy="13.955" fill="#fff" rx="14.015" ry="13.955" transform="translate(1.973 1.85)"/>
    <g>
        <path fill="#f4263d" d="M712 235.511a15.94 15.94 0 1 1 16-15.94 15.989 15.989 0 0 1-16 15.94zm5.4-22.411a1.18 1.18 0 1 0 1.184 1.18 1.182 1.182 0 0 0-1.184-1.18zm-5.264 1.513a4.955 4.955 0 1 0 4.973 4.955 4.97 4.97 0 0 0-4.974-4.952zm0 8.129a3.174 3.174 0 1 1 3.186-3.174 3.184 3.184 0 0 1-3.187 3.177zm10.035-7.292a6.055 6.055 0 0 0-6.066-6.043H708.1a6.055 6.055 0 0 0-6.066 6.043v7.977a6.055 6.055 0 0 0 6.066 6.043h8a6.055 6.055 0 0 0 6.066-6.043zm-1.9 7.977a4.159 4.159 0 0 1-4.167 4.15H708.1a4.158 4.158 0 0 1-4.166-4.15v-7.977a4.158 4.158 0 0 1 4.166-4.15h8a4.159 4.159 0 0 1 4.167 4.15z" transform="translate(-696.003 -203.631)"/>
    </g>
</svg>
