<svg xmlns="http://www.w3.org/2000/svg" id="Group_139" width="48.097" height="47.918" viewBox="0 0 48.097 47.918">
    <defs>
        <style>
            .cls-2{fill:#fff}
        </style>
    </defs>
    <g id="Group_137">
        <g id="Group_134">
            <path id="Path_300" fill="#333033" d="M638.015 316.012a23.959 23.959 0 1 1 24.048-23.959 24.032 24.032 0 0 1-24.048 23.959z" transform="translate(-613.966 -268.094)"/>
        </g>
        <g id="Group_136" transform="translate(12.597 18.412)">
            <g id="Group_135">
                <path id="Path_301" d="M653.286 296.436v8.979a.4.4 0 0 1-.4.4h-4.636a.4.4 0 0 1-.4-.4v-8.351c0-2.2-.785-3.7-2.755-3.7a2.974 2.974 0 0 0-2.789 1.989 3.706 3.706 0 0 0-.181 1.326v8.735a.4.4 0 0 1-.4.4h-4.634a.4.4 0 0 1-.4-.4c.011-2.224.057-13.014.01-15.55a.4.4 0 0 1 .4-.407h4.625a.4.4 0 0 1 .4.4v1.916c-.011.019-.026.036-.036.054h.036v-.054a5.4 5.4 0 0 1 4.9-2.7c3.578 0 6.261 2.338 6.261 7.362zm-24.647 9.381h4.635a.4.4 0 0 0 .4-.4V289.86a.4.4 0 0 0-.4-.4h-4.634a.4.4 0 0 0-.4.4v15.555a.4.4 0 0 0 .4.402z" class="cls-2" transform="translate(-628.238 -289.074)"/>
            </g>
        </g>
    </g>
    <g id="Group_138" transform="translate(12.242 10.952)">
        <circle id="Ellipse_37" cx="2.911" cy="2.911" r="2.911" class="cls-2"/>
    </g>
</svg>
