<svg xmlns="https://www.w3.org/2000/svg" width="27.403" height="28.175" viewBox="0 0 27.403 28.175">
    <g transform="translate(1.098 1)">
        <circle cx="5.084" cy="5.084" r="5.084" fill="none" stroke="#959595" stroke-miterlimit="10" stroke-width="3px" transform="translate(6.742 7.508)"/>
        <path fill="none" stroke="#959595" stroke-miterlimit="10" stroke-width="2px" d="M1408.093 487.507l-1.794-1.036a9.9 9.9 0 0 0 0-5.091l1.794-1.036a.986.986 0 0 0 .361-1.347l-1.579-2.736a.986.986 0 0 0-1.347-.361l-1.8 1.036a9.862 9.862 0 0 0-4.408-2.546v-2.072a.986.986 0 0 0-.986-.986h-3.159a.986.986 0 0 0-.986.986v2.072a9.862 9.862 0 0 0-4.408 2.546l-1.795-1.036a.986.986 0 0 0-1.347.361l-1.575 2.739a.986.986 0 0 0 .361 1.347l1.794 1.036a9.89 9.89 0 0 0 0 5.091l-1.794 1.036a.986.986 0 0 0-.361 1.347l1.579 2.736a.986.986 0 0 0 1.347.361l1.795-1.036a9.862 9.862 0 0 0 4.408 2.546v2.072a.986.986 0 0 0 .986.986h3.159a.986.986 0 0 0 .986-.986v-2.076a9.862 9.862 0 0 0 4.408-2.546l1.8 1.036a.986.986 0 0 0 1.347-.361l1.579-2.736a.986.986 0 0 0-.365-1.346z" transform="translate(-1384.933 -471.333)"/>
        <g transform="translate(20.51 21.006)">
            <path fill="#959595" d="M1478.728 565.544l-.44-.254a2.422 2.422 0 0 0 0-1.247l.44-.254a.242.242 0 0 0 .089-.33l-.387-.67a.241.241 0 0 0-.33-.088l-.44.254a2.415 2.415 0 0 0-1.08-.624v-.508a.241.241 0 0 0-.241-.242h-.774a.241.241 0 0 0-.241.242v.508a2.416 2.416 0 0 0-1.08.624l-.44-.254a.241.241 0 0 0-.33.088l-.387.67a.242.242 0 0 0 .089.33l.44.254a2.425 2.425 0 0 0 0 1.247l-.44.254a.241.241 0 0 0-.089.33l.387.67a.242.242 0 0 0 .33.088l.44-.254a2.417 2.417 0 0 0 1.08.624v.508a.241.241 0 0 0 .241.241h.774a.241.241 0 0 0 .241-.241V567a2.417 2.417 0 0 0 1.08-.624l.44.254a.241.241 0 0 0 .33-.088l.387-.67a.242.242 0 0 0-.089-.328z" transform="translate(-1473.053 -561.581)"/>
            <circle cx="1.246" cy="1.246" r="1.246" fill="#fff" transform="translate(1.652 1.839)"/>
        </g>
    </g>
</svg>
