<svg xmlns="http://www.w3.org/2000/svg" width="29.014" height="29.175" viewBox="0 0 29.014 29.175">
    <defs>
        <style>
            .cls-2{fill:#959595}
        </style>
    </defs>
    <g id="Group_217" transform="translate(1.013 1)">
        <path id="Path_277" fill="none" stroke="#959595" stroke-width="2px" d="M915.743 488.238c-1.224.775-3.911 2.654-4.1 4.337-.872 7.5 11.248 19.617 18.744 18.744 1.684-.186 3.569-2.871 4.339-4.1a.882.882 0 0 0-.123-1.1l-3.362-3.369a.887.887 0 0 0-1.254 0h-.005l-1.891 1.915c-.212.212-.379.37-.5.479-1.58.165-4.525-.772-6.77-3.024s-3.185-5.193-3.024-6.77c.112-.128.265-.289.479-.5l1.919-1.868a.892.892 0 0 0 0-1.259l-3.35-3.364a.884.884 0 0 0-1.102-.121z" transform="translate(-911.599 -484.2)"/>
        <g id="Group_107" transform="translate(15.21)">
            <g id="Group_106" transform="translate(2.918 3.839)">
                <circle id="Ellipse_25" cx=".582" cy=".582" r=".582" class="cls-2"/>
                <circle id="Ellipse_26" cx=".582" cy=".582" r=".582" class="cls-2" transform="translate(2.443)"/>
                <circle id="Ellipse_27" cx=".582" cy=".582" r=".582" class="cls-2" transform="translate(4.792)"/>
            </g>
            <path id="Path_278" fill="none" stroke="#959595" stroke-linejoin="round" stroke-miterlimit="10" stroke-width="2px" d="M987.134 471.333h-8.519a1.636 1.636 0 0 0-1.636 1.636v5.569a1.636 1.636 0 0 0 1.636 1.636h.424v1.9l1.292-1.292a2.084 2.084 0 0 1 1.473-.61h5.33a1.636 1.636 0 0 0 1.636-1.636v-5.569a1.636 1.636 0 0 0-1.636-1.634z" transform="translate(-976.979 -471.333)"/>
        </g>
    </g>
</svg>
