<svg xmlns="https://www.w3.org/2000/svg" width="28.361" height="28.309" viewBox="0 0 28.361 28.309">
    <defs>
        <style>
            .cls-3{fill:none;stroke:#959595;stroke-width:2px}.cls-2{fill:#959595}.cls-3{stroke-linecap:round;stroke-miterlimit:10}
        </style>
    </defs>
    <g id="Group_218">
        <circle id="Ellipse_28" cx="6.504" cy="6.504" r="6.504" fill="none" stroke="#959595" stroke-width="2px" transform="translate(7.677 9.604)"/>
        <circle id="Ellipse_29" cx="1.726" cy="1.726" r="1.726" class="cls-2" transform="translate(12.455)"/>
        <circle id="Ellipse_30" cx="1.726" cy="1.726" r="1.726" class="cls-2" transform="translate(0 21.572)"/>
        <circle id="Ellipse_31" cx="1.726" cy="1.726" r="1.726" class="cls-2" transform="translate(24.909 21.572)"/>
        <path id="Path_279" d="M1167.445 512.06a11.205 11.205 0 0 1-8.684 15.038" class="cls-3" transform="translate(-1142.793 -499.935)"/>
        <path id="Path_280" d="M1123.6 491.936a11.167 11.167 0 0 1 6.9-3.984 11.235 11.235 0 0 1 3.573 0 11.182 11.182 0 0 1 6.9 3.984" class="cls-3" transform="translate(-1118.101 -482.904)"/>
        <path id="Path_281" d="M1115.869 512.06a11.2 11.2 0 0 0 8.685 15.038" class="cls-3" transform="translate(-1112.16 -499.935)"/>
    </g>
</svg>
