<svg xmlns="http://www.w3.org/2000/svg" width="23.629" height="29.345" viewBox="0 0 23.629 29.345">
    <defs>
        <style>
            .cls-2,.cls-5{fill:none;stroke-miterlimit:10}.cls-2{stroke:#959595;stroke-width:2px}.cls-5{stroke:#fff;stroke-linecap:round}
        </style>
    </defs>
    <g id="Group_268" transform="translate(1 1)">
        <g id="Group_113">
            <path id="Path_286" fill="none" stroke="#959595" stroke-linejoin="round" stroke-miterlimit="10" stroke-width="2px" d="M1529.119 471.333v24.881l2.163 2.464 2.163-2.464 2.163 2.464 2.163-2.464 2.163 2.464 2.163-2.464 2.163 2.464 2.163-2.464 2.163 2.464 2.163-2.464v-24.881z" transform="translate(-1529.119 -471.333)"/>
            <path id="Line_113" d="M0 0L12.002 0" class="cls-2" transform="translate(2.668 5.122)"/>
            <path id="Line_114" d="M0 0L16.33 0" class="cls-2" transform="translate(2.65 10.237)"/>
        </g>
        <g id="Group_115" transform="translate(11.944 14.755)">
            <circle id="Ellipse_35" cx="3.555" cy="3.555" r="3.555" fill="#959595"/>
            <g id="Group_114" transform="translate(2.377 1.573)">
                <path id="Path_287" fill="none" stroke="#fff" stroke-linecap="round" stroke-linejoin="round" stroke-miterlimit="10" d="M1599.24 545.653a1.334 1.334 0 1 1 0 2.669l1.3 1.3" transform="translate(-1598.808 -545.653)"/>
                <path id="Line_115" d="M0 0L1.923 0" class="cls-5" transform="translate(.432 1.218)"/>
                <path id="Line_116" d="M0 0L2.355 0" class="cls-5"/>
            </g>
        </g>
    </g>
</svg>
