<svg xmlns="http://www.w3.org/2000/svg" id="Group_396" width="95" height="65" viewBox="0 0 225.933 80.986">
    <defs>
        <style>
            .cls-1{fill:#989898}
        </style>
    </defs>
    <g id="Group_304" transform="translate(29.844 29.474)">
        <path id="Path_148" d="M1416.03 901.819l-.514-.439c-.505-.53-.64-.672 3.907-6.421 5.009-6.338 15.955-7.374 16.419-7.415h11.277l-.757 1.131c-1.337 2-1.266 9.468-1.125 12.173l.038.769-28.921-.027zm1.281-1.687l26.44.023c-.081-2.2-.181-8.1.869-11.16h-8.713c-.042.008-10.724 1.023-15.344 6.866-1.788 2.263-2.742 3.546-3.252 4.272z" class="cls-1" transform="translate(-1415.273 -887.542)"/>
    </g>
    <g id="Group_305" transform="translate(38.436 29.935)">
        <path id="Path_149" d="M1420.836 900.765l-1.43-.272c.081-.424 2.052-10.4 9.054-12.728l.458 1.381c-6.188 2.054-8.064 11.523-8.082 11.619z" class="cls-1" transform="translate(-1419.405 -887.764)"/>
    </g>
    <g id="Group_306" transform="translate(42.668 29.946)">
        <path id="Path_150" d="M1422.891 900.691l-1.451-.137c.042-.435 1.075-10.672 6.694-12.784l.511 1.36c-4.776 1.798-5.745 11.465-5.754 11.561z" class="cls-1" transform="translate(-1421.44 -887.769)"/>
    </g>
    <g id="Group_307" transform="translate(46.974 30.006)">
        <path id="Path_151" d="M1427.67 905.96l-4.159-5.113.019-.285c.025-.383.7-9.385 6.161-12.764l.765 1.239c-4.338 2.682-5.294 9.84-5.45 11.343l2.789 3.427 3.591-3.491c-.062-1.591-.11-7.4 2.435-9.472l.917 1.129c-1.875 1.526-2 6.721-1.882 8.592l.021.333z" class="cls-1" transform="translate(-1423.511 -887.798)"/>
    </g>
    <g id="Group_308" transform="translate(50.468 29.542)">
        <path id="Path_152" d="M1426.647 935.019h-1.456v-34.188c.064-.534 1.453-10.917 6.39-13.256l.622 1.316c-3.506 1.661-5.2 9.249-5.562 12.034z" class="cls-1" transform="translate(-1425.191 -887.575)"/>
    </g>
    <g id="Group_309" transform="translate(6.881 45.888)">
        <path id="Path_153" d="M1428.682 906.183h-24.452v-.726c0-2.186 4-5.342 4.8-5.953 8.137-5.28 18.584-3.93 19.021-3.872l.628.085zm-22.757-1.453h21.3v-7.72c-2.354-.2-10.817-.557-17.359 3.683a17.042 17.042 0 0 0-3.941 4.036z" class="cls-1" transform="translate(-1404.23 -895.436)"/>
    </g>
    <g id="Group_310" transform="translate(23.712 49.083)">
        <path id="Path_154" d="M1413.572 904.175l-1.248-.753a20.992 20.992 0 0 1 6.282-6.45l.734 1.254a19.87 19.87 0 0 0-5.768 5.949z" class="cls-1" transform="translate(-1412.324 -896.972)"/>
    </g>
    <g id="Group_311" transform="translate(19.607 31.067)">
        <path id="Path_155" d="M1411.779 913.288l-1.428-.272c.05-.27 1.345-6.588 10.622-8.488l4.375-4.8c.283-1.47 2.125-9.534 8.586-11.416l.407 1.4c-6.082 1.774-7.583 10.389-7.6 10.476l-.035.21-4.982 5.473-.237.046c-8.475 1.636-9.66 7.138-9.708 7.371z" class="cls-1" transform="translate(-1410.35 -888.308)"/>
    </g>
    <g id="Group_312" transform="translate(15.642 46.02)">
        <path id="Path_156" d="M1409.87 905.536l-1.427-.293c.071-.339 1.828-8.28 14.3-9.744l.171 1.445c-11.373 1.335-12.982 8.297-13.044 8.592z" class="cls-1" transform="translate(-1408.443 -895.499)"/>
    </g>
    <g id="Group_313" transform="translate(11.244 46.186)">
        <path id="Path_157" d="M1407.759 905.44l-1.431-.276c.017-.079 1.643-7.887 11.341-9.584l.251 1.435c-8.72 1.523-10.151 8.356-10.161 8.425z" class="cls-1" transform="translate(-1406.328 -895.579)"/>
    </g>
    <g id="Group_314" transform="translate(6.882 55.909)">
        <path id="Rectangle_305" d="M0 0H1.454V19.357H0z" class="cls-1"/>
    </g>
    <g id="Group_315" transform="translate(2.819 74.539)">
        <path id="Path_158" d="M1403.235 912.209l-.958-1.1 2.177-1.9h25.611v1.454H1405z" class="cls-1" transform="translate(-1402.276 -909.214)"/>
    </g>
    <g id="Group_316" transform="translate(17.21 55.909)">
        <path id="Rectangle_306" d="M0 0H1.454V19.357H0z" class="cls-1"/>
    </g>
    <g id="Group_317" transform="translate(27.599 55.909)">
        <path id="Rectangle_307" d="M0 0H1.454V19.357H0z" class="cls-1"/>
    </g>
    <g id="Group_318" transform="translate(24.504 55.406)">
        <path id="Rectangle_308" d="M0 0H1.456V4.765H0z" class="cls-1" transform="rotate(-43.78 1.253 .503)"/>
    </g>
    <g id="Group_319" transform="translate(13.454 55.182)">
        <path id="Path_159" d="M1411.883 905.372l-4.492-5.467h8.858zm-1.414-4.013l1.4 1.7 1.358-1.7z" class="cls-1" transform="translate(-1407.391 -899.905)"/>
    </g>
    <g id="Group_320" transform="translate(7.086 55.403)">
        <path id="Rectangle_309" d="M0 0H4.97V1.456H0z" class="cls-1" transform="rotate(-46.21 4.207 1.795)"/>
    </g>
    <g id="Group_321" transform="translate(29.965 42.791)">
        <path id="Rectangle_310" d="M0 0H1.454V34.195H0z" class="cls-1"/>
    </g>
    <g id="Group_322" transform="translate(58.354 42.817)">
        <path id="Rectangle_311" d="M0 0H1.454V34.168H0z" class="cls-1"/>
    </g>
    <g id="Group_323" transform="translate(58.671 32.907)">
        <path id="Path_160" d="M1430.386 899.451l-1.25-.746c.2-.331 4.887-8.072 11.042-9.511l.333 1.418c-5.55 1.297-10.079 8.764-10.125 8.839z" class="cls-1" transform="translate(-1429.136 -889.193)"/>
    </g>
    <g id="Group_324" transform="translate(80.749 32.899)">
        <path id="Path_161" d="M1450.953 899.362c-2.683-7.184-11.115-8.723-11.2-8.738l.245-1.435c.381.067 9.339 1.684 12.319 9.665z" class="cls-1" transform="translate(-1439.753 -889.189)"/>
    </g>
    <g id="Group_325" transform="translate(91.955 32.907)">
        <path id="Path_162" d="M1446.494 899.372l-1.352-.536c.127-.322 3.213-7.943 10.595-9.642l.327 1.418c-6.647 1.528-9.541 8.688-9.57 8.76z" class="cls-1" transform="translate(-1445.142 -889.193)"/>
    </g>
    <g id="Group_326" transform="translate(91.903 8.996)">
        <path id="Rectangle_312" d="M0 0H1.454V67.99H0z" class="cls-1"/>
    </g>
    <g id="Group_327" transform="translate(86.597 11.055)">
        <path id="Rectangle_313" d="M0 0H1.454V22.561H0z" class="cls-1"/>
    </g>
    <g id="Group_328" transform="translate(81.151 13.171)">
        <path id="Rectangle_314" d="M0 0H1.454V20.445H0z" class="cls-1"/>
    </g>
    <g id="Group_329" transform="translate(75.844 15.403)">
        <path id="Rectangle_315" d="M0 0H1.454V18.213H0z" class="cls-1"/>
    </g>
    <g id="Group_330" transform="translate(70.396 18.409)">
        <path id="Rectangle_316" d="M0 0H1.454V15.208H0z" class="cls-1"/>
    </g>
    <g id="Group_331" transform="translate(65.092 22.553)">
        <path id="Rectangle_317" d="M0 0H1.454V11.063H0z" class="cls-1"/>
    </g>
    <g id="Group_332" transform="translate(68.404 19.56)">
        <path id="Rectangle_318" d="M0 0H39.28V1.454H0z" class="cls-1"/>
    </g>
    <g id="Group_333" transform="translate(95.661 3.643)">
        <path id="Path_163" d="M1448.491 905.093h-1.453v-13.329a13.812 13.812 0 0 1 2.676-10.017c2.9-3.787 7.823-6.014 14.633-6.627l.129 1.449c-6.376.574-10.948 2.607-13.6 6.045a12.681 12.681 0 0 0-2.4 9.025z" class="cls-1" transform="translate(-1446.925 -875.12)"/>
    </g>
    <g id="Group_334" transform="translate(0 76.259)">
        <path id="Path_164" d="M1626.854 914.769h-225.933v-4.727h112.785v1.458h-111.331v1.819H1625.4V911.5h-111.331v-1.454h112.785z" class="cls-1" transform="translate(-1400.921 -910.041)"/>
    </g>
    <g id="Group_335" transform="translate(50.487 46.365)">
        <path id="Rectangle_319" d="M0 0H1.415V1.454H0z" class="cls-1"/>
    </g>
    <g id="Group_336" transform="translate(58.91 42.064)">
        <path id="Rectangle_320" d="M0 0H1.417V1.454H0z" class="cls-1"/>
    </g>
    <g id="Group_337" transform="translate(91.921 42.064)">
        <path id="Rectangle_321" d="M0 0H1.415V1.454H0z" class="cls-1"/>
    </g>
    <g id="Group_338" transform="translate(30.657 47.035)">
        <path id="Rectangle_322" d="M0 0H1.265V1.454H0z" class="cls-1"/>
    </g>
    <g id="Group_339" transform="translate(27.163 58.48)">
        <path id="Rectangle_323" d="M0 0H1.111V1.454H0z" class="cls-1"/>
    </g>
    <g id="Group_340" transform="translate(17.192 58.767)">
        <path id="Rectangle_324" d="M0 0H1.493V1.454H0z" class="cls-1"/>
    </g>
    <g id="Group_341" transform="translate(7.593 58.767)">
        <path id="Rectangle_325" d="M0 0H1.326V1.454H0z" class="cls-1"/>
    </g>
    <g id="Group_342" transform="translate(97.359 6.434)">
        <path id="Rectangle_326" d="M0 0H1.457V3.375H0z" class="cls-1" transform="rotate(-47.121 1.225 .534)"/>
    </g>
    <g id="Group_343" transform="translate(107.85 3.717)">
        <path id="Path_165" d="M1456.026 887.209l-3.24-8.809.256-.32a8.462 8.462 0 0 1 2.366-2.044 5.245 5.245 0 0 1 2.373-.863 4.622 4.622 0 0 1 3.387 1.129 4.842 4.842 0 0 1 1.337 1.863l.1.243-2.745 8.69zm-1.587-8.528l2.589 7.041 1.757-.048 2.269-7.191a3.378 3.378 0 0 0-.829-1.073 3.545 3.545 0 0 0-2.335-.788 3.945 3.945 0 0 0-1.749.672 6.993 6.993 0 0 0-1.702 1.387z" class="cls-1" transform="translate(-1452.786 -875.156)"/>
    </g>
    <g id="Group_344" transform="translate(101.81 5.62)">
        <path id="Path_166" d="M1456.717 887.872l-6.66-6.737-.052-.183a3.758 3.758 0 0 1-.121-.749 3.96 3.96 0 0 1 .2-1.393 4.111 4.111 0 0 1 2.009-2.179 4.78 4.78 0 0 1 2.78-.528 5.029 5.029 0 0 1 2.281.842l.193.131 3.259 8.877zm-5.346-7.48l5.644 5.71 1.776-.875-2.643-7.2a3.58 3.58 0 0 0-1.428-.48 3.48 3.48 0 0 0-1.934.366 2.669 2.669 0 0 0-1.323 1.373 2.515 2.515 0 0 0-.125.838 2.285 2.285 0 0 0 .033.268z" class="cls-1" transform="translate(-1449.882 -876.071)"/>
    </g>
    <g id="Group_345" transform="translate(97.1 9.572)">
        <path id="Path_167" d="M1458.63 887.973l-9.99-2.537-.146-.314a12.519 12.519 0 0 1-.8-1.926 4.053 4.053 0 0 1 .518-2.832 5.265 5.265 0 0 1 4.989-2.383l.279.017 6.714 6.793zm-8.96-3.778l8.174 2.077.584-1.191-5.59-5.656a3.723 3.723 0 0 0-3.356 1.649 2.659 2.659 0 0 0-.368 1.815s.086.293.556 1.306z" class="cls-1" transform="translate(-1447.617 -877.971)"/>
    </g>
    <g id="Group_346" transform="translate(95.696 15.662)">
        <path id="Path_168" d="M1459.665 886.1h-12.558l-.1-.6a4.266 4.266 0 0 1 .984-3.572 3.6 3.6 0 0 1 1.72-.984l.181-.046 9.813 2.591zm-11.267-1.453l9.832-.039-8.338-2.2a2.134 2.134 0 0 0-.857.532 2.511 2.511 0 0 0-.635 1.709z" class="cls-1" transform="translate(-1446.941 -880.9)"/>
    </g>
    <g id="Group_347" transform="translate(100.852 20.38)">
        <path id="Rectangle_327" d="M0 0H1.454V13.191H0z" class="cls-1"/>
    </g>
    <g id="Group_348" transform="translate(106.962 14.3)">
        <path id="Path_169" d="M1453.825 899.517h-1.453v-13.574a5.306 5.306 0 0 1 1.241-3.705 6.669 6.669 0 0 1 5.042-1.992l.044 1.453a5.309 5.309 0 0 0-3.99 1.5 3.928 3.928 0 0 0-.886 2.672z" class="cls-1" transform="translate(-1452.359 -880.245)"/>
    </g>
    <g id="Group_395" transform="translate(56.06)">
        <g id="Group_349">
            <path id="Path_170" d="M1540.011 907.712H1427.88l1.154-1.227a61.73 61.73 0 0 0 5.693-8.2c4.094-6.579 15.768-11.279 16.263-11.476l33.836-13.441 33.757 13.441c.493.2 12.169 4.9 16.261 11.476a61.772 61.772 0 0 0 5.694 8.2l1.154 1.227zm-55.537-1.453h54c-.927-1.208-2.514-3.429-4.862-7.205-3.841-6.172-15.45-10.844-15.567-10.892l-33.219-13.225-33.3 13.225c-.116.048-11.726 4.72-15.565 10.892-2.35 3.776-3.936 6-4.864 7.205z" class="cls-1" transform="translate(-1427.88 -873.368)"/>
        </g>
        <g id="Group_350" transform="translate(108.182 29.474)">
            <path id="Path_171" d="M1511.074 901.838l-.385-.252-28.939.029.04-.769c.139-2.705.21-10.173-1.125-12.173l-.759-1.131h11.212c.528.044 11.474 1.079 16.486 7.417 4.546 5.75 4.41 5.891 3.907 6.421zM1482.4 889c1.05 3.063.95 8.956.869 11.16l26.44-.023c-.509-.726-1.464-2.009-3.252-4.271-4.621-5.843-15.3-6.858-15.409-6.868z" class="cls-1" transform="translate(-1479.905 -887.542)"/>
        </g>
        <g id="Group_351" transform="translate(121.925 29.935)">
            <path id="Path_172" d="M1494.595 900.765c-.017-.1-1.894-9.565-8.081-11.62l.457-1.381c7 2.325 8.973 12.3 9.054 12.728z" class="cls-1" transform="translate(-1486.514 -887.764)"/>
        </g>
        <g id="Group_352" transform="translate(120 29.946)">
            <path id="Path_173" d="M1491.342 900.691c-.006-.1-.984-9.765-5.754-11.562l.511-1.36c5.619 2.113 6.652 12.35 6.694 12.784z" class="cls-1" transform="translate(-1485.588 -887.769)"/>
        </g>
        <g id="Group_353" transform="translate(111.672 30.006)">
            <path id="Path_174" d="M1488.651 905.96l-5.2-5.061.019-.333c.114-1.871-.006-7.066-1.882-8.592l.917-1.129c2.545 2.071 2.5 7.881 2.435 9.472l3.591 3.491 2.788-3.427c-.156-1.5-1.119-8.667-5.448-11.343l.763-1.239c5.465 3.379 6.136 12.381 6.163 12.764l.017.285z" class="cls-1" transform="translate(-1481.583 -887.798)"/>
        </g>
        <g id="Group_354" transform="translate(112.395 29.542)">
            <path id="Path_175" d="M1488.941 935.019h-1.453v-34.188c-.008-.006-1.339-9.942-5.556-11.94l.62-1.316c4.937 2.339 6.325 12.722 6.384 13.163z" class="cls-1" transform="translate(-1481.931 -887.575)"/>
        </g>
        <g id="Group_355" transform="translate(138.54 45.889)">
            <path id="Path_176" d="M1518.956 906.183H1494.5v-10.466l.63-.085c.438-.054 10.884-1.408 18.975 3.839.846.645 4.847 3.8 4.847 5.987zm-23-1.453h21.3a17.182 17.182 0 0 0-3.99-4.07c-6.5-4.211-14.955-3.849-17.313-3.649z" class="cls-1" transform="translate(-1494.504 -895.436)"/>
        </g>
        <g id="Group_356" transform="translate(139.145 49.083)">
            <path id="Path_177" d="M1500.563 904.175a19.806 19.806 0 0 0-5.768-5.949l.734-1.254a20.992 20.992 0 0 1 6.282 6.45z" class="cls-1" transform="translate(-1494.795 -896.972)"/>
        </g>
        <g id="Group_357" transform="translate(126.275 31.067)">
            <path id="Path_178" d="M1511.168 913.288c-.046-.233-1.233-5.735-9.709-7.38l-.237-.046-4.982-5.473-.035-.21c-.014-.088-1.516-8.7-7.6-10.476l.408-1.4c6.461 1.882 8.3 9.946 8.588 11.416l4.373 4.8c9.276 1.9 10.572 8.218 10.624 8.488z" class="cls-1" transform="translate(-1488.606 -888.308)"/>
        </g>
        <g id="Group_358" transform="translate(139.763 46.02)">
            <path id="Path_179" d="M1508.134 905.536c-.062-.3-1.67-7.257-13.042-8.592l.17-1.445c12.47 1.464 14.229 9.405 14.3 9.744z" class="cls-1" transform="translate(-1495.092 -895.499)"/>
        </g>
        <g id="Group_359" transform="translate(147.036 46.186)">
            <path id="Path_180" d="M1508.754 905.442c-.056-.279-1.481-6.912-10.164-8.428l.252-1.435c9.7 1.7 11.324 9.505 11.341 9.584z" class="cls-1" transform="translate(-1498.59 -895.579)"/>
        </g>
        <g id="Group_360" transform="translate(161.537 55.909)">
            <path id="Rectangle_328" d="M0 0H1.454V19.357H0z" class="cls-1"/>
        </g>
        <g id="Group_361" transform="translate(139.267 74.539)">
            <path id="Path_181" d="M1520.968 912.11l-1.129-1.442h-24.986v-1.454h25.692l1.568 2z" class="cls-1" transform="translate(-1494.854 -909.214)"/>
        </g>
        <g id="Group_362" transform="translate(151.209 55.909)">
            <path id="Rectangle_329" d="M0 0H1.454V19.357H0z" class="cls-1"/>
        </g>
        <g id="Group_363" transform="translate(140.82 55.909)">
            <path id="Rectangle_330" d="M0 0H1.454V19.357H0z" class="cls-1"/>
        </g>
        <g id="Group_364" transform="translate(141.021 55.406)">
            <path id="Rectangle_331" d="M0 0H4.765V1.456H0z" class="cls-1" transform="rotate(-46.21 4.033 1.72)"/>
        </g>
        <g id="Group_365" transform="translate(147.56 55.182)">
            <path id="Path_182" d="M1503.209 905.372l-4.367-5.467h8.86zm-1.341-4.013l1.358 1.7 1.4-1.7z" class="cls-1" transform="translate(-1498.842 -899.905)"/>
        </g>
        <g id="Group_366" transform="translate(158.297 55.405)">
            <path id="Rectangle_332" d="M0 0H1.456V4.97H0z" class="cls-1" transform="rotate(-43.86 1.253 .504)"/>
        </g>
        <g id="Group_367" transform="translate(138.454 42.791)">
            <path id="Rectangle_333" d="M0 0H1.454V34.195H0z" class="cls-1"/>
        </g>
        <g id="Group_368" transform="translate(110.065 42.817)">
            <path id="Rectangle_334" d="M0 0H1.454V34.168H0z" class="cls-1"/>
        </g>
        <g id="Group_369" transform="translate(99.827 32.907)">
            <path id="Path_183" d="M1486.012 899.451c-.046-.075-4.573-7.542-10.125-8.84l.333-1.418c6.155 1.439 10.846 9.181 11.042 9.511z" class="cls-1" transform="translate(-1475.887 -889.193)"/>
        </g>
        <g id="Group_370" transform="translate(76.56 32.899)">
            <path id="Path_184" d="M1466.062 899.362l-1.364-.507c2.98-7.981 11.938-9.6 12.318-9.665l.246 1.435c-.085.013-8.515 1.552-11.2 8.737z" class="cls-1" transform="translate(-1464.698 -889.189)"/>
        </g>
        <g id="Group_371" transform="translate(66.999 32.907)">
            <path id="Path_185" d="M1469.668 899.372c-.027-.073-2.942-7.237-9.568-8.761l.324-1.418c7.384 1.7 10.468 9.32 10.6 9.642z" class="cls-1" transform="translate(-1460.1 -889.193)"/>
        </g>
        <g id="Group_372" transform="translate(76.516 8.996)">
            <path id="Rectangle_335" d="M0 0H1.454V67.99H0z" class="cls-1"/>
        </g>
        <g id="Group_373" transform="translate(81.822 11.055)">
            <path id="Rectangle_336" d="M0 0H1.454V22.561H0z" class="cls-1"/>
        </g>
        <g id="Group_374" transform="translate(87.269 13.171)">
            <path id="Rectangle_337" d="M0 0H1.454V20.445H0z" class="cls-1"/>
        </g>
        <g id="Group_375" transform="translate(92.575 15.403)">
            <path id="Rectangle_338" d="M0 0H1.454V18.213H0z" class="cls-1"/>
        </g>
        <g id="Group_376" transform="translate(98.023 18.409)">
            <path id="Rectangle_339" d="M0 0H1.454V15.208H0z" class="cls-1"/>
        </g>
        <g id="Group_377" transform="translate(103.327 22.553)">
            <path id="Rectangle_340" d="M0 0H1.454V11.063H0z" class="cls-1"/>
        </g>
        <g id="Group_378" transform="translate(62.19 19.56)">
            <path id="Rectangle_341" d="M0 0H39.28V1.454H0z" class="cls-1"/>
        </g>
        <g id="Group_379" transform="translate(57.024 3.643)">
            <path id="Path_186" d="M1472.379 905.093h-1.456v-13.329a12.589 12.589 0 0 0-2.177-9.183c-2.566-3.419-7.089-5.44-13.443-6.012l.129-1.449c6.8.611 11.674 2.834 14.491 6.608a13.717 13.717 0 0 1 2.441 10.177z" class="cls-1" transform="translate(-1455.303 -875.12)"/>
        </g>
        <g id="Group_380" transform="translate(57.089 76.259)">
            <path id="Rectangle_342" d="M0 0H112.058V1.454H0z" class="cls-1"/>
        </g>
        <g id="Group_381" transform="translate(117.971 46.365)">
            <path id="Rectangle_343" d="M0 0H1.415V1.454H0z" class="cls-1"/>
        </g>
        <g id="Group_382" transform="translate(109.545 42.064)">
            <path id="Rectangle_344" d="M0 0H1.417V1.454H0z" class="cls-1"/>
        </g>
        <g id="Group_383" transform="translate(76.537 42.064)">
            <path id="Rectangle_345" d="M0 0H1.415V1.454H0z" class="cls-1"/>
        </g>
        <g id="Group_384" transform="translate(137.951 47.035)">
            <path id="Rectangle_346" d="M0 0H1.265V1.454H0z" class="cls-1"/>
        </g>
        <g id="Group_385" transform="translate(141.6 58.48)">
            <path id="Rectangle_347" d="M0 0H1.111V1.454H0z" class="cls-1"/>
        </g>
        <g id="Group_386" transform="translate(151.189 58.767)">
            <path id="Rectangle_348" d="M0 0H1.493V1.454H0z" class="cls-1"/>
        </g>
        <g id="Group_387" transform="translate(160.954 58.767)">
            <path id="Rectangle_349" d="M0 0H1.326V1.454H0z" class="cls-1"/>
        </g>
        <g id="Group_388" transform="translate(69.187 6.434)">
            <path id="Rectangle_350" d="M0 0H3.187V1.457H0z" class="cls-1" transform="rotate(-42.854 2.762 1.084)"/>
        </g>
        <g id="Group_389" transform="translate(52.204 3.717)">
            <path id="Path_187" d="M1459.564 887.209l-3.834-.11-2.745-8.69.1-.243a4.827 4.827 0 0 1 1.339-1.863 4.669 4.669 0 0 1 3.387-1.129 5.234 5.234 0 0 1 2.366.861 8.423 8.423 0 0 1 2.371 2.046l.256.32zm-2.76-1.535l1.757.048 2.589-7.041a6.909 6.909 0 0 0-1.7-1.385 3.932 3.932 0 0 0-1.751-.674 3.565 3.565 0 0 0-2.333.788 3.354 3.354 0 0 0-.832 1.073z" class="cls-1" transform="translate(-1452.985 -875.155)"/>
        </g>
        <g id="Group_390" transform="translate(57.336 5.62)">
            <path id="Path_188" d="M1459.344 887.872l-3.891-1.919 3.261-8.877.191-.131a5.027 5.027 0 0 1 2.279-.842 4.8 4.8 0 0 1 2.782.528 4.111 4.111 0 0 1 2.011 2.181 3.966 3.966 0 0 1 .2 1.389 3.6 3.6 0 0 1-.121.751l-.052.183zm-2.073-2.645l1.778.875 5.644-5.71a2.388 2.388 0 0 0 .031-.274 2.54 2.54 0 0 0-.121-.83 2.665 2.665 0 0 0-1.327-1.375 3.5 3.5 0 0 0-1.936-.366 3.557 3.557 0 0 0-1.424.48z" class="cls-1" transform="translate(-1455.453 -876.071)"/>
        </g>
        <g id="Group_391" transform="translate(60.197 9.572)">
            <path id="Path_189" d="M1458.391 887.973l-1.562-3.182 6.717-6.793.277-.017a5.259 5.259 0 0 1 4.989 2.385 4.023 4.023 0 0 1 .518 2.83 12.187 12.187 0 0 1-.8 1.926l-.146.314zm.2-2.892l.584 1.191 8.177-2.077a12.743 12.743 0 0 0 .559-1.331 2.653 2.653 0 0 0-.374-1.788 3.653 3.653 0 0 0-3.356-1.651z" class="cls-1" transform="translate(-1456.829 -877.971)"/>
        </g>
        <g id="Group_392" transform="translate(61.418 15.66)">
            <path id="Path_190" d="M1470.013 886.254h-12.562l-.035-2.66 9.811-2.695.187.05a3.545 3.545 0 0 1 1.726 1.021 4.525 4.525 0 0 1 .973 3.678zm-11.125-1.456h9.832a2.731 2.731 0 0 0-.649-1.836 2.078 2.078 0 0 0-.846-.551l-8.339 2.29z" class="cls-1" transform="translate(-1457.416 -880.899)"/>
        </g>
        <g id="Group_393" transform="translate(67.567 20.38)">
            <path id="Rectangle_351" d="M0 0H1.454V13.191H0z" class="cls-1"/>
        </g>
        <g id="Group_394" transform="translate(56.571 14.3)">
            <path id="Path_191" d="M1461.413 899.517h-1.454v-13.574a3.966 3.966 0 0 0-.9-2.761 5.326 5.326 0 0 0-3.978-1.483l.044-1.453a6.669 6.669 0 0 1 5.042 1.992 5.329 5.329 0 0 1 1.237 3.78z" class="cls-1" transform="translate(-1455.085 -880.245)"/>
        </g>
    </g>
</svg>
