<svg xmlns="http://www.w3.org/2000/svg" width="95" height="65" viewBox="0 0 175.433 104.29">
    <defs>
        <style>
            .cls-1{fill:#989898}.cls-2{fill:#fff}
        </style>
    </defs>
    <g id="Group_303">
        <g id="Group_232" transform="translate(17.273)">
            <g id="Group_231">
                <path id="Path_112" d="M1802.953 900.48h-142.3v-.732c0-.362.973-36.138 70-37.161 68.939-1.054 72.221 36.739 72.243 37.12zm-140.781-1.453h139.174c-.865-5.226-8.436-35.005-67.948-35.005-.9 0-1.8.008-2.718.019-62.08.922-67.963 29.97-68.508 34.985z" class="cls-1" transform="translate(-1660.656 -862.565)"/>
            </g>
        </g>
        <g id="Group_234" transform="translate(-.001 36.462)">
            <g id="Group_233">
                <path id="Path_113" d="M1826.755 887.882h-174.406V880.1h174.406zm-172.955-1.453h171.5v-4.876h-171.5z" class="cls-1" transform="translate(-1652.349 -880.099)"/>
            </g>
        </g>
        <g id="Group_236" transform="translate(3.761 42.791)">
            <g id="Group_235">
                <path id="Path_114" d="M1823.434 891.1h-169.276v-7.954h169.276zm-167.822-1.454h166.367V884.6h-166.367z" class="cls-1" transform="translate(-1654.158 -883.143)"/>
            </g>
        </g>
        <g id="Group_238" transform="translate(7.698 49.292)">
            <g id="Group_237">
                <path id="Path_115" d="M1667.085 892.339h-11.033v-6.07h11.033zm-9.58-1.453h8.126v-3.163h-8.131z" class="cls-1" transform="translate(-1656.051 -886.269)"/>
            </g>
        </g>
        <g id="Group_240" transform="translate(9.066 53.908)">
            <g id="Group_239">
                <path id="Path_116" d="M1665.006 920.223h-8.3v-31.734h8.3zm-6.844-1.453h5.39v-28.827h-5.39z" class="cls-1" transform="translate(-1656.709 -888.489)"/>
            </g>
        </g>
        <g id="Group_242" transform="translate(5.988 84.189)">
            <g id="Group_241">
                <path id="Path_117" d="M1669.683 911.007h-14.454v-7.956h14.454zm-13-1.454h11.545V904.5h-11.545z" class="cls-1" transform="translate(-1655.229 -903.051)"/>
            </g>
        </g>
        <g id="Group_244" transform="translate(23.948 49.292)">
            <g id="Group_243">
                <path id="Path_118" d="M1674.9 892.339h-11.036v-6.07h11.036zm-9.582-1.453h8.128v-3.163h-8.128z" class="cls-1" transform="translate(-1663.866 -886.269)"/>
            </g>
        </g>
        <g id="Group_246" transform="translate(25.317 53.908)">
            <g id="Group_245">
                <path id="Path_119" d="M1672.823 920.223h-8.3v-31.734h8.3zm-6.844-1.453h5.388v-28.827h-5.388z" class="cls-1" transform="translate(-1664.524 -888.489)"/>
            </g>
        </g>
        <g id="Group_248" transform="translate(22.239 84.189)">
            <g id="Group_247">
                <path id="Path_120" d="M1677.5 911.007h-14.454v-7.956h14.454zm-13-1.454h11.547V904.5H1664.5z" class="cls-1" transform="translate(-1663.044 -903.051)"/>
            </g>
        </g>
        <g id="Group_250" transform="translate(52.345 49.292)">
            <g id="Group_249">
                <path id="Path_121" d="M1688.558 892.339h-11.036v-6.07h11.036zm-9.58-1.453h8.126v-3.163h-8.126z" class="cls-1" transform="translate(-1677.522 -886.269)"/>
            </g>
        </g>
        <g id="Group_252" transform="translate(53.715 53.908)">
            <g id="Group_251">
                <path id="Path_122" d="M1686.478 920.223h-8.3v-31.734h8.3zm-6.844-1.453h5.39v-28.827h-5.39z" class="cls-1" transform="translate(-1678.181 -888.489)"/>
            </g>
        </g>
        <g id="Group_254" transform="translate(50.636 84.189)">
            <g id="Group_253">
                <path id="Path_123" d="M1691.154 911.007H1676.7v-7.956h14.454zm-13-1.454h11.546V904.5h-11.547z" class="cls-1" transform="translate(-1676.7 -903.051)"/>
            </g>
        </g>
        <g id="Group_256" transform="translate(68.598 49.292)">
            <g id="Group_255">
                <path id="Path_124" d="M1696.374 892.339h-11.036v-6.07h11.036zm-9.582-1.453h8.126v-3.163h-8.126z" class="cls-1" transform="translate(-1685.338 -886.269)"/>
            </g>
        </g>
        <g id="Group_258" transform="translate(69.966 53.908)">
            <g id="Group_257">
                <path id="Path_125" d="M1694.293 920.223H1686v-31.734h8.3zm-6.844-1.453h5.39v-28.827h-5.39z" class="cls-1" transform="translate(-1685.996 -888.489)"/>
            </g>
        </g>
        <g id="Group_260" transform="translate(66.888 84.189)">
            <g id="Group_259">
                <path id="Path_126" d="M1698.97 911.007h-14.454v-7.956h14.454zm-13-1.454h11.547V904.5h-11.547z" class="cls-1" transform="translate(-1684.516 -903.051)"/>
            </g>
        </g>
        <g id="Group_262" transform="translate(96.483 49.292)">
            <g id="Group_261">
                <path id="Path_127" d="M1709.781 892.339h-11.033v-6.07h11.033zm-9.58-1.453h8.124v-3.163h-8.125z" class="cls-1" transform="translate(-1698.748 -886.269)"/>
            </g>
        </g>
        <g id="Group_264" transform="translate(97.851 53.908)">
            <g id="Group_263">
                <path id="Path_128" d="M1707.7 920.223h-8.3v-31.734h8.3zm-6.844-1.453h5.388v-28.827h-5.388z" class="cls-1" transform="translate(-1699.406 -888.489)"/>
            </g>
        </g>
        <g id="Group_266" transform="translate(94.772 84.189)">
            <g id="Group_265">
                <path id="Path_129" d="M1712.381 911.007h-14.456v-7.956h14.456zm-13-1.454h11.549V904.5h-11.549z" class="cls-1" transform="translate(-1697.925 -903.051)"/>
            </g>
        </g>
        <g id="Group_268" transform="translate(112.734 49.292)">
            <g id="Group_267">
                <path id="Path_130" d="M1717.6 892.339h-11.034v-6.07h11.034zm-9.578-1.453h8.125v-3.163h-8.125z" class="cls-1" transform="translate(-1706.563 -886.269)"/>
            </g>
        </g>
        <g id="Group_270" transform="translate(114.104 53.908)">
            <g id="Group_269">
                <path id="Path_131" d="M1715.519 920.223h-8.3v-31.734h8.3zm-6.844-1.453h5.39v-28.827h-5.39z" class="cls-1" transform="translate(-1707.222 -888.489)"/>
            </g>
        </g>
        <g id="Group_272" transform="translate(111.022 84.189)">
            <g id="Group_271">
                <path id="Path_132" d="M1720.2 911.007h-14.46v-7.956h14.46zm-13-1.454h11.549V904.5H1707.2z" class="cls-1" transform="translate(-1705.74 -903.051)"/>
            </g>
        </g>
        <g id="Group_274" transform="translate(140.107 49.292)">
            <g id="Group_273">
                <path id="Path_133" d="M1730.758 892.339h-11.031v-6.07h11.031zm-9.578-1.453h8.125v-3.163h-8.125z" class="cls-1" transform="translate(-1719.727 -886.269)"/>
            </g>
        </g>
        <g id="Group_276" transform="translate(141.476 53.908)">
            <g id="Group_275">
                <path id="Path_134" d="M1728.68 920.223h-8.295v-31.734h8.295zm-6.841-1.453h5.388v-28.827h-5.388z" class="cls-1" transform="translate(-1720.385 -888.489)"/>
            </g>
        </g>
        <g id="Group_278" transform="translate(138.394 84.189)">
            <g id="Group_277">
                <path id="Path_135" d="M1733.359 911.007H1718.9v-7.956h14.456zm-13-1.454h11.547V904.5h-11.547z" class="cls-1" transform="translate(-1718.903 -903.051)"/>
            </g>
        </g>
        <g id="Group_280" transform="translate(156.358 49.292)">
            <g id="Group_279">
                <path id="Path_136" d="M1738.576 892.339h-11.033v-6.07h11.033zm-9.58-1.453h8.124v-3.163H1729z" class="cls-1" transform="translate(-1727.542 -886.269)"/>
            </g>
        </g>
        <g id="Group_282" transform="translate(157.726 53.908)">
            <g id="Group_281">
                <path id="Path_137" d="M1736.495 920.223h-8.295v-31.734h8.295zm-6.841-1.453h5.388v-28.827h-5.388z" class="cls-1" transform="translate(-1728.2 -888.489)"/>
            </g>
        </g>
        <g id="Group_284" transform="translate(154.647 84.189)">
            <g id="Group_283">
                <path id="Path_138" d="M1741.175 911.007h-14.456v-7.956h14.456zm-13-1.454h11.549V904.5h-11.549z" class="cls-1" transform="translate(-1726.719 -903.051)"/>
            </g>
        </g>
        <g id="Group_286" transform="translate(3.761 90.691)">
            <g id="Group_285">
                <path id="Path_139" d="M1823.434 914.132h-169.276v-7.954h169.276zm-167.822-1.453h166.367v-5.047h-166.367z" class="cls-1" transform="translate(-1654.158 -906.178)"/>
            </g>
        </g>
        <g id="Group_288" transform="translate(-.001 97.191)">
            <g id="Group_287">
                <path id="Path_140" d="M1827.782 916.4h-175.433v-7.1h175.433zm-173.982-1.45h172.526v-4.192H1653.8z" class="cls-1" transform="translate(-1652.349 -909.304)"/>
            </g>
        </g>
        <g id="Group_290" transform="translate(38.317 54.592)">
            <g id="Group_289">
                <path id="Path_141" d="M1682.666 926.37h-11.89l.046-32.974c.071-.187 1.765-4.579 5.9-4.579s5.826 4.392 5.9 4.579l.044.256zm-10.435-1.454h8.981V893.8c-.268-.613-1.687-3.522-4.49-3.522s-4.225 2.909-4.492 3.522z" class="cls-1" transform="translate(-1670.776 -888.818)"/>
            </g>
        </g>
        <g id="Group_292" transform="translate(81.771 54.592)">
            <g id="Group_291">
                <path id="Path_142" d="M1703.563 926.37h-11.89l.044-32.974c.073-.187 1.765-4.579 5.9-4.579s5.831 4.392 5.9 4.579l.046.256zm-10.437-1.454h8.981V893.8c-.266-.613-1.685-3.522-4.492-3.522s-4.223 2.909-4.49 3.522z" class="cls-1" transform="translate(-1691.673 -888.818)"/>
            </g>
        </g>
        <g id="Group_294" transform="translate(125.992 54.592)">
            <g id="Group_293">
                <path id="Path_143" d="M1724.827 926.37h-11.888l.046-32.974c.071-.187 1.765-4.579 5.9-4.579s5.829 4.392 5.9 4.579l.044.256zm-10.433-1.454h8.979V893.8c-.268-.613-1.687-3.522-4.49-3.522-2.822 0-4.223 2.909-4.49 3.522z" class="cls-1" transform="translate(-1712.939 -888.818)"/>
            </g>
        </g>
        <g id="Group_295" transform="translate(51.363 92.899)">
            <path id="Rectangle_303" d="M0 0H3.079V10.663H0z" class="cls-1"/>
        </g>
        <g id="Group_298" transform="translate(38.97 78.16)">
            <g id="Group_296" transform="translate(.728 .728)">
                <path id="Path_144" d="M1696.994 907.716a2.225 2.225 0 0 0-2.225-2.225 2.118 2.118 0 0 0-.324.033 2.2 2.2 0 0 0 .085-.574 2.225 2.225 0 0 0-2.225-2.225 2.2 2.2 0 0 0-.934.212 1.79 1.79 0 0 0 .023-.212 7.054 7.054 0 0 1-6.041-.992 4.621 4.621 0 0 1-5.866.106 2.217 2.217 0 0 0-2.131 1.622 2.162 2.162 0 0 0-.532-.073 2.225 2.225 0 0 0-2.225 2.225c0 .023.006.044.006.067a4.006 4.006 0 1 0-.427 7.762.645.645 0 0 0-.008.064 2.225 2.225 0 0 0 2.225 2.225 2.191 2.191 0 0 1 2.137.549 2.169 2.169 0 0 0 1.472-.589 2 2 0 0 0 .275.039 2.148 2.148 0 0 0 .582-.106 2.169 2.169 0 0 0 3.594-.778 2.112 2.112 0 0 0 .428-.081 30.8 30.8 0 0 1 4.207 1.514 2.224 2.224 0 0 0 2.223-2.225c0-.025-.006-.052-.008-.077a2.2 2.2 0 0 0 1.616-1.84c.064.006.125.025.189.025a2.223 2.223 0 0 0 2.223-2.225c0-.027-.006-.052-.006-.077a2.221 2.221 0 0 0 1.667-2.144z" class="cls-2" transform="translate(-1671.44 -900.502)"/>
            </g>
            <g id="Group_297">
                <path id="Path_145" d="M1689.468 917.384a2.911 2.911 0 0 1-1.747-.578 2.769 2.769 0 0 1-2.165-.578 3.041 3.041 0 0 1-.326-.183 2.979 2.979 0 0 1-4.182.753 1.965 1.965 0 0 1-.393.04.382.382 0 0 1-.058 0 11.581 11.581 0 0 1-9.507-5.172 2.949 2.949 0 0 0 .428-3.448 25.134 25.134 0 0 1 5.758-5.174 3.039 3.039 0 0 1 3.953-1.214 2.931 2.931 0 0 1 4.92-.393 2.879 2.879 0 0 1 .807.279 2.944 2.944 0 0 1 5.457.678 26.134 26.134 0 0 1 5.685 5.7 40.927 40.927 0 0 1-8.63 9.291zm-9.083-2.04a.682.682 0 0 1 .093.006l.115.755.079-.722a1.645 1.645 0 0 0 .343-.073.8.8 0 0 1 .742.179 1.49 1.49 0 0 0 2.4-.528.723.723 0 0 1 .62-.46 1.421 1.421 0 0 0 .3-.06.724.724 0 0 1 .7.189 1.5 1.5 0 0 0 .455.306.646.646 0 0 1 .167.1 1.249 1.249 0 0 0 1.335.279.73.73 0 0 1 .7.183 1.476 1.476 0 0 0 1.038.43 1.5 1.5 0 0 0 1.5-1.495.749.749 0 0 1 .539-.784 1.478 1.478 0 0 0 1.077-1.237.722.722 0 0 1 .767-.624 1.532 1.532 0 0 0 1.639-1.474.817.817 0 0 1 .536-.782 1.488 1.488 0 0 0-.59-2.913.739.739 0 0 1-.653-.237.728.728 0 0 1-.158-.676 1.38 1.38 0 0 0 .06-.38 1.507 1.507 0 0 0-2.123-1.354.725.725 0 0 1-1.031-.722 1.511 1.511 0 0 0-1.479-1.645 1.49 1.49 0 0 0-1.48 1.393.73.73 0 0 1-1.3.4 1.476 1.476 0 0 0-1.081-.568.729.729 0 0 1-.582-.358 1.481 1.481 0 0 0-2.768.645.727.727 0 0 1-.512.647.714.714 0 0 1-.786-.245 1.536 1.536 0 0 0-2.6.512.73.73 0 0 1-.875.509 1.429 1.429 0 0 0-.36-.052 1.5 1.5 0 0 0-1.5 1.5.791.791 0 0 1-.272.6.76.76 0 0 1-.615.17 1.516 1.516 0 0 0-.347-.046 1.5 1.5 0 0 0-1.5 1.5 1.482 1.482 0 0 0 .428 1.046.725.725 0 0 1-.135 1.129 1.491 1.491 0 0 0 .778 2.768 1.693 1.693 0 0 0 .349-.046.728.728 0 0 1 .888.774 1.486 1.486 0 0 0 1.886 1.441.736.736 0 0 1 .7.179 1.483 1.483 0 0 0 1.042.426 1.452 1.452 0 0 0 .981-.4.729.729 0 0 1 .49-.185z" class="cls-1" transform="translate(-1671.09 -900.152)"/>
            </g>
        </g>
        <g id="Group_299" transform="translate(124.344 92.899)">
            <path id="Rectangle_304" d="M0 0H3.079V10.663H0z" class="cls-1"/>
        </g>
        <g id="Group_302" transform="translate(111.954 78.16)">
            <g id="Group_300" transform="translate(.726 .728)">
                <path id="Path_146" d="M1732.091 907.716a2.225 2.225 0 0 0-2.225-2.225 2.125 2.125 0 0 0-.324.033 2.182 2.182 0 0 0 .085-.574 2.225 2.225 0 0 0-2.225-2.225 2.2 2.2 0 0 0-.934.212 1.791 1.791 0 0 0 .023-.212 7.052 7.052 0 0 1-6.041-.992 4.622 4.622 0 0 1-5.866.106 2.218 2.218 0 0 0-2.132 1.622 2.162 2.162 0 0 0-.534-.073 2.224 2.224 0 0 0-2.223 2.225c0 .023.006.044.006.067a4.091 4.091 0 0 0-.942 7.827 2.183 2.183 0 0 0 .514-.064c0 .021-.006.042-.006.064a2.225 2.225 0 0 0 2.225 2.225 2.191 2.191 0 0 1 2.138.549 2.173 2.173 0 0 0 1.472-.589 1.981 1.981 0 0 0 .274.039 2.151 2.151 0 0 0 .582-.106 2.169 2.169 0 0 0 3.593-.778 2.11 2.11 0 0 0 .428-.081 30.756 30.756 0 0 1 4.207 1.514 2.224 2.224 0 0 0 2.223-2.225c0-.025-.006-.052-.008-.077a2.2 2.2 0 0 0 1.616-1.84c.064.006.125.025.189.025a2.223 2.223 0 0 0 2.223-2.225c0-.027-.006-.052-.006-.077a2.221 2.221 0 0 0 1.668-2.145z" class="cls-2" transform="translate(-1706.537 -900.502)"/>
            </g>
            <g id="Group_301">
                <path id="Path_147" d="M1724.562 917.384a2.909 2.909 0 0 1-1.745-.578 3.005 3.005 0 0 1-2.163-.578 3.11 3.11 0 0 1-.331-.183 2.977 2.977 0 0 1-4.18.753 1.955 1.955 0 0 1-.391.04.389.389 0 0 1-.06 0 11.58 11.58 0 0 1-9.505-5.172 2.951 2.951 0 0 0 .426-3.448 25.69 25.69 0 0 1 5.758-5.174 3.038 3.038 0 0 1 3.953-1.212 2.931 2.931 0 0 1 4.92-.4 3 3 0 0 1 .807.281 6.724 6.724 0 1 1 6.906 11.533 26.23 26.23 0 0 1-4.4 4.14zm-9.083-2.04a.7.7 0 0 1 .1.006l.116.755.077-.722a1.648 1.648 0 0 0 .343-.073.783.783 0 0 1 .738.179 1.493 1.493 0 0 0 2.4-.528.723.723 0 0 1 .62-.46 1.552 1.552 0 0 0 .291-.058.718.718 0 0 1 .709.187 1.537 1.537 0 0 0 .456.306.66.66 0 0 1 .17.1 1.466 1.466 0 0 0 .927.343 1.509 1.509 0 0 0 .4-.066.729.729 0 0 1 .7.183 1.483 1.483 0 0 0 1.038.43 1.5 1.5 0 0 0 1.5-1.495.747.747 0 0 1 .539-.784 1.48 1.48 0 0 0 1.077-1.237.748.748 0 0 1 .765-.624h.044a1.5 1.5 0 0 0 1.6-1.476.743.743 0 0 1 .537-.782 1.493 1.493 0 0 0 1.125-1.441 1.521 1.521 0 0 0-1.711-1.472.721.721 0 0 1-.651-.233.73.73 0 0 1-.164-.672 1.487 1.487 0 0 0 .061-.389 1.506 1.506 0 0 0-2.125-1.354.728.728 0 0 1-1.029-.742 1.484 1.484 0 1 0-2.959-.231.728.728 0 0 1-1.3.4 1.492 1.492 0 0 0-1.081-.566.726.726 0 0 1-.583-.358 1.482 1.482 0 0 0-2.768.645.733.733 0 0 1-.511.647.714.714 0 0 1-.786-.245 1.536 1.536 0 0 0-2.6.512.731.731 0 0 1-.875.509 1.438 1.438 0 0 0-.36-.052 1.5 1.5 0 0 0-1.5 1.5.723.723 0 0 1-.884.773 1.558 1.558 0 0 0-.349-.046 1.5 1.5 0 0 0-1.5 1.5 1.483 1.483 0 0 0 .428 1.046.727.727 0 0 1-.137 1.129 1.492 1.492 0 0 0 .778 2.768 1.677 1.677 0 0 0 .349-.046.725.725 0 0 1 .892.709 1.494 1.494 0 0 0 1.882 1.505.736.736 0 0 1 .705.179 1.64 1.64 0 0 0 2.025.029.72.72 0 0 1 .481-.188z" class="cls-1" transform="translate(-1706.188 -900.152)"/>
            </g>
        </g>
    </g>
</svg>
