<svg xmlns="http://www.w3.org/2000/svg" xmlns:xlink="http://www.w3.org/1999/xlink" width="95" height="65" viewBox="0 0 122.22 157.267" xmlns:v="https://vecta.io/nano"><g fill="#989898"><path d="M122.22 157.267H0v-11.8h8.526v-.089a1.55 1.55 0 0 1 1.191-1.5v-9.362c-.698-.165-1.19-.788-1.19-1.505s.493-1.34 1.19-1.505v-5.781c-.699-.163-1.193-.786-1.193-1.504s.494-1.34 1.193-1.503v-17.693c-.597-.141-1.055-.621-1.166-1.225s.146-1.215.655-1.559H7.73l-3.637-4.28h5.623V85.51c-.698-.165-1.19-.788-1.19-1.505s.493-1.34 1.19-1.505V56.034h102.792v26.467c.698.165 1.19.788 1.19 1.505s-.493 1.34-1.19 1.505v12.452h5.623l-3.635 4.277h-1.476c.508.344.765.956.654 1.559a1.55 1.55 0 0 1-1.166 1.225v17.7c.699.163 1.193.786 1.193 1.503s-.494 1.34-1.193 1.504v5.777c.698.165 1.19.788 1.19 1.505s-.493 1.34-1.19 1.505v9.353a1.55 1.55 0 0 1 1.191 1.5v.089h8.523zM1.453 155.813h119.312v-8.9h-8.607v-1.453a.09.09 0 0 0 .087-.089l-.466-.089h-.726V133.1h1.1l-.378-.177h-.726v-8.609h1.1l-.378-.177h-.726v-20.53h1.1l-.378-.177h-.726v-2.645h2.768l1.16-1.368h-3.928V84.096h1.1l-.378-.179h-.726V57.49H11.152v26.427h-1.1l.378.179h.726v15.321H7.228l1.16 1.368h2.768v2.641h-1.1l.378.177h.726v20.53h-1.1l.378.177h.726v8.616h-1.1l.378.177h.726v12.183h-1.1v1.632H1.457zm78.268-8.897h-37.22V83.562h.963c.257 0 .466-.209.466-.466s-.209-.466-.466-.466h-.773l-.135-.771c.586-9.325 7.992-16.772 17.313-17.409l.776-.05v.778c0 .863.934.684.934.175v-.778l.775-.125c9.321.637 16.727 8.084 17.313 17.409l.046.771h-.773c-.437 0-.645.21-.645.466s.207.465.464.466h.963zm-35.766-1.453h34.313v-60.51a1.92 1.92 0 0 1-.11-3.681 17.16 17.16 0 0 0-15.253-15.313 1.89 1.89 0 0 1-1.794 1.312c-.825-.001-1.558-.528-1.822-1.31-8.063.873-14.414 7.271-15.228 15.34.784.247 1.318.973 1.32 1.795a1.92 1.92 0 0 1-1.426 1.857zM24.449 74.081a6.08 6.08 0 0 1-6.08-6.078 6.08 6.08 0 0 1 6.078-6.08 6.08 6.08 0 0 1 6.08 6.078c-.003 3.356-2.722 6.076-6.078 6.08zm0-10.7c-1.871 0-3.557 1.127-4.273 2.856s-.32 3.718 1.003 5.041 3.313 1.718 5.041 1.001 2.855-2.404 2.854-4.274a4.63 4.63 0 0 0-4.625-4.629zm73.323 10.7a6.08 6.08 0 0 1-6.08-6.078 6.08 6.08 0 0 1 6.078-6.08 6.08 6.08 0 0 1 6.08 6.078c-.003 3.356-2.722 6.076-6.078 6.08zm0-10.7c-1.871-.001-3.558 1.126-4.275 2.854s-.321 3.718 1.002 5.041 3.313 1.719 5.041 1.002 2.855-2.404 2.854-4.275a4.63 4.63 0 0 0-4.623-4.629z"/><path d="M113.476 57.49H8.705l-2.389-7.151H3.461l-3.227-5.03h10.052v-7.153h2.98v-7.155h5.962V19.075h4.173v-5.959h15.5V9.539h4.49c1.142-2.41 5.388-5.219 11.009-6.091V0h13.377v3.448c5.619.873 9.867 3.681 11.011 6.091h4.489v3.577h15.5v5.959h4.174v11.764l5.96-1.192v8.507h2.982v7.153h10.052l-3.229 5.032h-2.855zM9.753 56.039h102.676l2.383-7.153h3.107l1.36-2.123h-8.842V39.61h-2.982v-8.185l-5.96 1.192V20.528h-4.173v-5.96h-15.5v-3.577H77.74l-.15-.526c-.53-1.832-4.62-4.9-10.634-5.662l-.634-.081V1.453H55.854v3.269l-.636.081c-6.016.761-10.1 3.83-10.63 5.662l-.152.526h-4.082v3.577h-15.5v5.96h-4.173v11.923H14.72v7.153h-2.978v7.153H2.9l1.358 2.123h3.106zm25.768-24.854c-2.835-.001-5.132-2.299-5.132-5.133s2.298-5.132 5.133-5.133 5.133 2.297 5.133 5.132a5.14 5.14 0 0 1-5.134 5.134zm0-8.813a3.68 3.68 0 1 0 3.681 3.679c-.003-2.031-1.65-3.677-3.681-3.679zm51.2 8.813c-2.835-.001-5.132-2.299-5.132-5.133s2.298-5.132 5.133-5.133 5.133 2.297 5.133 5.132-2.299 5.133-5.134 5.134zm0-8.813a3.68 3.68 0 1 0 3.681 3.679c-.002-2.032-1.649-3.678-3.681-3.679zm-10.076 8.813H45.489V20.919h31.156zm-29.7-1.454h28.247v-7.359H46.945zM36.238 145.283H12.726V76.662h23.512zm-22.056-1.453h20.6V78.118h-20.6zM33.29 96.263H16.339v-9.626H33.29zm-15.5-1.453h14.044v-6.719H17.79zm91.735 50.473h-23.51V76.662h23.51zm-22.054-1.453h20.6V78.118h-20.6zm18.232-47.567h-15.2v-9.626h15.2zM91.954 94.81h12.3v-6.719h-12.3z"/><path d="M38.327 56.12h1.454v90.786h-1.454zm44.113 0h1.454v90.786H82.44zm-19.062 6.161v-3.242h15.614V71.62c-1.742-3.031-4.197-5.59-7.153-7.457-4.847-3.015-8.461-1.882-8.461-1.882zm-4.596 0v-3.242H43.167V71.62a21.48 21.48 0 0 1 7.154-7.457c4.852-3.015 8.461-1.882 8.461-1.882z"/><use xlink:href="#B"/><use xlink:href="#B" x="7.153"/><path d="M27.11 49.608h3.577v3.577H27.11z"/><use xlink:href="#B" x="21.46"/><use xlink:href="#B" x="28.613"/><path d="M48.57 49.608h3.577v3.577H48.57zm7.153 0H59.3v3.577h-3.577z"/><use xlink:href="#B" x="50.072"/><path d="M70.03 49.608h3.577v3.577H70.03z"/><use xlink:href="#B" x="64.379"/><use xlink:href="#B" x="71.532"/><use xlink:href="#B" x="78.685"/><use xlink:href="#B" x="85.839"/><use xlink:href="#B" x="92.992"/></g><defs ><path id="B" d="M12.804 49.608h3.577v3.577h-3.577z"/></defs></svg>