<svg xmlns="http://www.w3.org/2000/svg" width="95" height="65" viewBox="0 0 122.22 157.267">
    <defs>
        <style>
            .cls-1{fill:#989898}
        </style>
    </defs>
    <g id="Group_203" transform="translate(-.001)">
        <g id="Group_160" transform="translate(.001 56.034)">
            <g id="Group_157">
                <g id="Group_156">
                    <path id="Path_90" d="M1912.127 977.841h-122.22v-11.8h8.526v-.089a1.547 1.547 0 0 1 1.191-1.5v-9.362a1.546 1.546 0 0 1 0-3.009V946.3a1.544 1.544 0 0 1 0-3.007V925.6a1.545 1.545 0 0 1-.511-2.784h-1.476l-3.637-4.28h5.623v-12.452a1.546 1.546 0 0 1 0-3.009v-26.467h102.792v26.467a1.546 1.546 0 0 1 0 3.009v12.452h5.623l-3.635 4.277h-1.476a1.545 1.545 0 0 1-.512 2.784v17.7a1.544 1.544 0 0 1 0 3.007v5.777a1.546 1.546 0 0 1 0 3.009v9.353a1.547 1.547 0 0 1 1.191 1.5v.089h8.523zm-120.767-1.454h119.312v-8.9h-8.607v-1.453a.09.09 0 0 0 .087-.089l-.466-.089h-.726v-12.182h1.1l-.378-.177h-.726v-8.609h1.1l-.378-.177h-.726v-20.53h1.1l-.378-.177h-.726v-2.645h2.768l1.16-1.368h-3.928V904.67h1.1l-.378-.179h-.726v-26.427h-99.885v26.427h-1.1l.378.179h.726v15.321h-3.928l1.16 1.368h2.768V924h-1.1l.378.177h.726v20.53h-1.1l.378.177h.726v8.616h-1.1l.378.177h.726v12.183h-1.1v1.632h-8.611z" class="cls-1" transform="translate(-1789.907 -876.608)"/>
                </g>
            </g>
            <g id="Group_159" transform="translate(42.501 8.366)">
                <g id="Group_158">
                    <path id="Path_91" d="M1847.566 963.147h-37.22v-63.354h.963a.466.466 0 0 0 0-.932h-.773l-.135-.771a18.62 18.62 0 0 1 17.313-17.409l.776-.05v.778c0 .863.934.684.934.175v-.778l.775-.125a18.62 18.62 0 0 1 17.313 17.409l.046.771h-.773c-.437 0-.645.21-.645.466a.466.466 0 0 0 .464.466h.963zm-35.766-1.453h34.313v-60.51a1.921 1.921 0 0 1-.11-3.681 17.159 17.159 0 0 0-15.253-15.313 1.889 1.889 0 0 1-1.794 1.312 1.926 1.926 0 0 1-1.822-1.31 17.163 17.163 0 0 0-15.228 15.34 1.887 1.887 0 0 1 1.32 1.795 1.922 1.922 0 0 1-1.426 1.857z" class="cls-1" transform="translate(-1810.346 -880.631)"/>
                </g>
            </g>
        </g>
        <g id="Group_162" transform="translate(18.372 61.919)">
            <g id="Group_161">
                <path id="Path_92" d="M1804.82 891.6a6.079 6.079 0 1 1 6.078-6.08 6.085 6.085 0 0 1-6.078 6.08zm0-10.7a4.625 4.625 0 1 0 4.625 4.623 4.63 4.63 0 0 0-4.625-4.629z" class="cls-1" transform="translate(-1798.742 -879.438)"/>
            </g>
        </g>
        <g id="Group_164" transform="translate(91.693 61.919)">
            <g id="Group_163">
                <path id="Path_93" d="M1840.082 891.6a6.079 6.079 0 1 1 6.078-6.08 6.085 6.085 0 0 1-6.078 6.08zm0-10.7a4.625 4.625 0 1 0 4.623 4.623 4.63 4.63 0 0 0-4.623-4.629z" class="cls-1" transform="translate(-1834.002 -879.438)"/>
            </g>
        </g>
        <g id="Group_174" transform="translate(.238)">
            <g id="Group_167">
                <g id="Group_166">
                    <g id="Group_165">
                        <path id="Path_94" d="M1903.26 907.151h-104.771L1796.1 900h-2.855l-3.227-5.03h10.052v-7.153h2.98v-7.155h5.962v-11.926h4.173v-5.959h15.5V859.2h4.49c1.142-2.41 5.388-5.219 11.009-6.091v-3.448h13.377v3.448c5.619.873 9.867 3.681 11.011 6.091h4.489v3.577h15.5v5.959h4.174V880.5l5.96-1.192v8.507h2.982v7.153h10.052L1908.5 900h-2.855zm-103.723-1.451h102.676l2.383-7.153h3.107l1.36-2.123h-8.842v-7.153h-2.982v-8.185l-5.96 1.192v-12.089h-4.173v-5.96h-15.5v-3.577h-4.082l-.15-.526c-.53-1.832-4.62-4.9-10.634-5.662l-.634-.081v-3.269h-10.468v3.269l-.636.081c-6.016.761-10.1 3.83-10.63 5.662l-.152.526h-4.082v3.577h-15.5v5.96h-4.173v11.923h-5.961v7.153h-2.978v7.153h-8.842l1.358 2.123h3.106z" class="cls-1" transform="translate(-1790.021 -849.661)"/>
                    </g>
                </g>
            </g>
            <g id="Group_169" transform="translate(30.152 20.919)">
                <g id="Group_168">
                    <path id="Path_95" d="M1809.653 869.987a5.133 5.133 0 1 1 5.134-5.134 5.138 5.138 0 0 1-5.134 5.134zm0-8.813a3.68 3.68 0 1 0 3.681 3.679 3.684 3.684 0 0 0-3.681-3.679z" class="cls-1" transform="translate(-1804.521 -859.721)"/>
                </g>
            </g>
            <g id="Group_171" transform="translate(81.354 20.919)">
                <g id="Group_170">
                    <path id="Path_96" d="M1834.274 869.987a5.133 5.133 0 1 1 5.134-5.134 5.136 5.136 0 0 1-5.134 5.134zm0-8.813a3.68 3.68 0 1 0 3.681 3.679 3.683 3.683 0 0 0-3.681-3.679z" class="cls-1" transform="translate(-1829.144 -859.721)"/>
                </g>
            </g>
            <g id="Group_173" transform="translate(45.252 20.919)">
                <g id="Group_172">
                    <path id="Path_97" d="M1842.939 869.987h-31.156v-10.266h31.156zm-29.7-1.454h28.247v-7.359h-28.247z" class="cls-1" transform="translate(-1811.783 -859.721)"/>
                </g>
            </g>
        </g>
        <g id="Group_176" transform="translate(12.727 76.662)">
            <g id="Group_175">
                <path id="Path_98" d="M1819.539 955.149h-23.512v-68.621h23.512zm-22.056-1.453h20.6v-65.712h-20.6z" class="cls-1" transform="translate(-1796.027 -886.528)"/>
            </g>
        </g>
        <g id="Group_178" transform="translate(16.339 86.637)">
            <g id="Group_177">
                <path id="Path_99" d="M1814.716 900.951h-16.951v-9.626h16.951zm-15.5-1.453h14.044v-6.719h-14.044z" class="cls-1" transform="translate(-1797.764 -891.325)"/>
            </g>
        </g>
        <g id="Group_180" transform="translate(86.016 76.662)">
            <g id="Group_179">
                <path id="Path_100" d="M1854.782 955.149h-23.51v-68.621h23.51zm-22.054-1.453h20.6v-65.712h-20.6z" class="cls-1" transform="translate(-1831.272 -886.528)"/>
            </g>
        </g>
        <g id="Group_182" transform="translate(90.501 86.637)">
            <g id="Group_181">
                <path id="Path_101" d="M1848.632 900.951h-15.2v-9.626h15.2zm-13.749-1.453h12.3v-6.719h-12.3z" class="cls-1" transform="translate(-1833.429 -891.325)"/>
            </g>
        </g>
        <g id="Group_184" transform="translate(38.328 56.12)">
            <g id="Group_183">
                <path id="Rectangle_269" d="M0 0H1.454V90.786H0z" class="cls-1"/>
            </g>
        </g>
        <g id="Group_186" transform="translate(82.441 56.12)">
            <g id="Group_185">
                <path id="Rectangle_270" d="M0 0H1.454V90.786H0z" class="cls-1"/>
            </g>
        </g>
        <g id="Group_187" transform="translate(63.379 59.039)">
            <path id="Path_102" d="M1820.386 881.295v-3.242H1836v12.581a21.483 21.483 0 0 0-7.153-7.457c-4.847-3.015-8.461-1.882-8.461-1.882z" class="cls-1" transform="translate(-1820.386 -878.053)"/>
        </g>
        <g id="Group_188" transform="translate(43.169 59.039)">
            <path id="Path_103" d="M1826.281 881.295v-3.242h-15.615v12.581a21.485 21.485 0 0 1 7.154-7.457c4.852-3.015 8.461-1.882 8.461-1.882z" class="cls-1" transform="translate(-1810.667 -878.053)"/>
        </g>
        <g id="Group_189" transform="translate(12.805 49.608)">
            <path id="Rectangle_271" d="M0 0H3.577V3.577H0z" class="cls-1"/>
        </g>
        <g id="Group_190" transform="translate(19.958 49.608)">
            <path id="Rectangle_272" d="M0 0H3.577V3.577H0z" class="cls-1"/>
        </g>
        <g id="Group_191" transform="translate(27.111 49.608)">
            <path id="Rectangle_273" d="M0 0H3.577V3.577H0z" class="cls-1"/>
        </g>
        <g id="Group_192" transform="translate(34.265 49.608)">
            <path id="Rectangle_274" d="M0 0H3.577V3.577H0z" class="cls-1"/>
        </g>
        <g id="Group_193" transform="translate(41.418 49.608)">
            <path id="Rectangle_275" d="M0 0H3.577V3.577H0z" class="cls-1"/>
        </g>
        <g id="Group_194" transform="translate(48.571 49.608)">
            <path id="Rectangle_276" d="M0 0H3.577V3.577H0z" class="cls-1"/>
        </g>
        <g id="Group_195" transform="translate(55.724 49.608)">
            <path id="Rectangle_277" d="M0 0H3.577V3.577H0z" class="cls-1"/>
        </g>
        <g id="Group_196" transform="translate(62.877 49.608)">
            <path id="Rectangle_278" d="M0 0H3.577V3.577H0z" class="cls-1"/>
        </g>
        <g id="Group_197" transform="translate(70.031 49.608)">
            <path id="Rectangle_279" d="M0 0H3.577V3.577H0z" class="cls-1"/>
        </g>
        <g id="Group_198" transform="translate(77.184 49.608)">
            <path id="Rectangle_280" d="M0 0H3.577V3.577H0z" class="cls-1"/>
        </g>
        <g id="Group_199" transform="translate(84.337 49.608)">
            <path id="Rectangle_281" d="M0 0H3.577V3.577H0z" class="cls-1"/>
        </g>
        <g id="Group_200" transform="translate(91.49 49.608)">
            <path id="Rectangle_282" d="M0 0H3.577V3.577H0z" class="cls-1"/>
        </g>
        <g id="Group_201" transform="translate(98.644 49.608)">
            <path id="Rectangle_283" d="M0 0H3.577V3.577H0z" class="cls-1"/>
        </g>
        <g id="Group_202" transform="translate(105.797 49.608)">
            <path id="Rectangle_284" d="M0 0H3.577V3.577H0z" class="cls-1"/>
        </g>
    </g>
</svg>
