<svg xmlns="http://www.w3.org/2000/svg" id="Group_754" width="95" height="65" viewBox="0 0 67.053 163.919">
    <defs>
        <style>
            .cls-1{fill:#989898}
        </style>
    </defs>
    <g id="Group_752">
        <g id="Group_750" transform="translate(8.118)">
            <g id="Group_726" transform="translate(0 20.811)">
                <path id="Path_383" d="M1372.375 989.424h-50.7l.021-.749 2.943-101.917-1.387-3.362c-2.171-18.3 4-29.7 4.269-30.177l.306-.553 5.856 2.237a124.433 124.433 0 0 1 22.857 17.347 48.769 48.769 0 0 1 14.367 25.051zm-49.2-1.456h47.725l-1.435-90.536a48.389 48.389 0 0 0-13.922-24.125 123.889 123.889 0 0 0-22.466-17.085l-4.558-1.736c-1.185 2.493-5.646 13.115-3.828 28.638l1.416 3.362v.156z" class="cls-1" transform="translate(-1321.678 -852.666)"/>
            </g>
            <g id="Group_727" transform="translate(.75 51.921)">
                <path id="Path_384" d="M1326.686 972.547l1.807-104.92-3.511 2.845-2.943 102.075z" class="cls-1" transform="translate(-1322.039 -867.627)"/>
            </g>
            <g id="Group_728" transform="translate(8.035)">
                <path id="Path_385" d="M1330.578 867.674l-5.036-1.926v-.5c.139-22.587.479-22.587 1.385-22.587.834 0 1.181 0 3.531 23.843zm-3.578-2.926l1.892.724c-.478-4.8-1.125-10.93-1.666-15.469-.114 4.427-.191 10.303-.226 14.745z" class="cls-1" transform="translate(-1325.542 -842.658)"/>
            </g>
            <g id="Group_729" transform="translate(19.935 32.396)">
                <path id="Path_386" d="M1332.025 858.237l-.76 5 11.274 9.425 1.037-4.813z" class="cls-1" transform="translate(-1331.265 -858.237)"/>
            </g>
            <g id="Group_730" transform="translate(33.016 43.527)">
                <path id="Path_387" d="M1338.691 863.59l-1.135 4.968 7.078 9.574.829-5.306z" class="cls-1" transform="translate(-1337.556 -863.59)"/>
            </g>
            <g id="Group_731" transform="translate(42.201 55.863)">
                <path id="Path_388" d="M1342.7 869.523l-.73 4.681 3.653 5.191.258-3.511z" class="cls-1" transform="translate(-1341.973 -869.523)"/>
            </g>
            <g id="Group_732" transform="translate(3.693 45.776)">
                <path id="Path_389" d="M1323.454 873.661l.283-4.49 3.537-4.5 8.449 5.538a.527.527 0 0 1-.3.967l-8.461-.127z" class="cls-1" transform="translate(-1323.454 -864.672)"/>
            </g>
            <g id="Group_733" transform="translate(1.853 33.104)">
                <path id="Path_390" d="M1322.59 866.367l4.627-7.789 9.414 7.045a.374.374 0 0 1-.229.695l-9.351-.744-4.481 3.354z" class="cls-1" transform="translate(-1322.569 -858.578)"/>
            </g>
            <g id="Group_734" transform="translate(6.477 41.281)">
                <path id="Path_391" d="M1366.336 895.022c-.141-.222-14.123-21.95-30.253-30.64l-1.254 1.714-8.582-1.759v.547l10.035 6.217v5.623h-10.761v-1.453h9.308v-3.358l-10.035-6.215v-3.144l9.409 1.932 1.443-1.973.553.287c16.71 8.665 31.221 31.214 31.364 31.441z" class="cls-1" transform="translate(-1324.793 -862.51)"/>
            </g>
            <g id="Group_735" transform="translate(13.209 54.766)">
                <path id="Rectangle_419" d="M0 0H1.454V102.075H0z" class="cls-1"/>
            </g>
            <g id="Group_736" transform="translate(20.664 44.464)">
                <path id="Rectangle_420" d="M0 0H1.454V112.376H0z" class="cls-1"/>
            </g>
            <g id="Group_737" transform="translate(28.118 50.197)">
                <path id="Rectangle_421" d="M0 0H1.454V106.644H0z" class="cls-1"/>
            </g>
            <g id="Group_738" transform="translate(35.573 57.57)">
                <path id="Rectangle_422" d="M0 0H1.454V99.27H0z" class="cls-1"/>
            </g>
            <g id="Group_739" transform="translate(43.028 66.53)">
                <path id="Rectangle_423" d="M0 0H1.454V90.311H0z" class="cls-1"/>
            </g>
            <g id="Group_740" transform="translate(16.825 51.324)">
                <path id="Path_392" d="M1361.15 899.814a153.573 153.573 0 0 0-31.38-31.281l.832-1.193a155.168 155.168 0 0 1 31.724 31.614z" class="cls-1" transform="translate(-1329.769 -867.34)"/>
            </g>
            <g id="Group_749" transform="translate(5.496 57.192)">
                <g id="Group_741" transform="translate(.615)">
                    <path id="Path_393" d="M1366.711 908.268c-14-19.023-41.815-36.7-42.094-36.874l.776-1.231c.283.177 28.326 18 42.493 37.245z" class="cls-1" transform="translate(-1324.617 -870.162)"/>
                </g>
                <g id="Group_742" transform="translate(.503 13.015)">
                    <path id="Path_394" d="M1366.994 909.222c-16.134-16.326-42.171-31.387-42.431-31.539l.726-1.262c.262.152 26.467 15.309 42.74 31.778z" class="cls-1" transform="translate(-1324.563 -876.421)"/>
                </g>
                <g id="Group_743" transform="translate(.397 26.032)">
                    <path id="Path_395" d="M1367.286 910.165c-18.276-13.618-42.532-26.066-42.774-26.188l.661-1.3c.243.123 24.606 12.624 42.982 26.319z" class="cls-1" transform="translate(-1324.512 -882.681)"/>
                </g>
                <g id="Group_744" transform="translate(.299 39.043)">
                    <path id="Path_396" d="M1367.582 911.1c-20.426-10.9-42.894-20.726-43.117-20.823l.58-1.337c.227.1 22.747 9.944 43.223 20.877z" class="cls-1" transform="translate(-1324.465 -888.938)"/>
                </g>
                <g id="Group_745" transform="translate(.212 52.056)">
                    <path id="Path_397" d="M1367.877 912.014c-22.568-8.176-43.248-15.369-43.454-15.442l.478-1.376c.206.073 20.894 7.27 43.473 15.45z" class="cls-1" transform="translate(-1324.423 -895.196)"/>
                </g>
                <g id="Group_746" transform="translate(.141 65.072)">
                    <path id="Path_398" d="M1368.159 912.915c-24.7-5.44-43.583-10-43.77-10.046l.341-1.414c.189.046 19.054 4.6 43.743 10.037z" class="cls-1" transform="translate(-1324.389 -901.455)"/>
                </g>
                <g id="Group_747" transform="translate(.091 78.087)">
                    <path id="Path_399" d="M1368.422 913.8c-26.823-2.7-43.888-4.62-44.057-4.641l.162-1.445c.168.019 17.228 1.938 44.04 4.635z" class="cls-1" transform="translate(-1324.365 -907.714)"/>
                </g>
                <g id="Group_748" transform="translate(0 90.349)">
                    <path id="Path_400" d="M1324.39 915.832l-.069-1.456c.152-.006 15.417-.724 44.373-.765v1.455c-28.914.042-44.152.758-44.304.766z" class="cls-1" transform="translate(-1324.321 -913.611)"/>
                </g>
            </g>
        </g>
        <g id="Group_751" transform="translate(0 156.113)">
            <path id="Path_401" d="M1384.827 925.539h-67.053v-7.806h67.053zm-65.6-1.453h64.142v-4.9h-64.139z" class="cls-1" transform="translate(-1317.774 -917.733)"/>
        </g>
    </g>
    <g id="Group_753" transform="translate(15.322 24.455)">
        <path id="Path_402" d="M1335.178 864.987l-9.743-5.5-.293-5.071 4.462 1.831 6.4 4.245z" class="cls-1" transform="translate(-1325.142 -854.419)"/>
    </g>
</svg>
