<svg xmlns="http://www.w3.org/2000/svg" width="95" height="65" viewBox="0 0 130.664 164.102">
    <defs>
        <style>
            .cls-1{fill:#989898}
        </style>
    </defs>
    <g id="Group_725" transform="translate(0 -.001)">
        <g id="Group_654" transform="translate(.001 162.649)">
            <path id="Rectangle_394" d="M0 0H129.623V1.454H0z" class="cls-1"/>
        </g>
        <g id="Group_655" transform="translate(43.826 110.485)">
            <path id="Path_337" d="M1973.12 953.963h-42.643V922.8c.035-.626 1.117-14.379 20.721-22.36l.248-.1.251.081c.8.26 19.7 6.542 21.418 21.961zm-41.189-1.453h39.736v-30.042c-1.5-13.493-17.952-19.784-20.171-20.572-18.468 7.634-19.557 20.823-19.565 20.957z" class="cls-1" transform="translate(-1930.477 -900.345)"/>
        </g>
        <g id="Group_656" transform="translate(93.085 104.029)">
            <path id="Rectangle_395" d="M0 0H1.454V59.347H0z" class="cls-1"/>
        </g>
        <g id="Group_657" transform="translate(124.021 104.029)">
            <path id="Rectangle_396" d="M0 0H1.454V59.347H0z" class="cls-1"/>
        </g>
        <g id="Group_658" transform="translate(.001 103.302)">
            <path id="Rectangle_397" d="M0 0H129.623V1.454H0z" class="cls-1"/>
        </g>
        <g id="Group_659" transform="translate(108.05 104.029)">
            <path id="Rectangle_398" d="M0 0H1.454V59.347H0z" class="cls-1"/>
        </g>
        <g id="Group_660" transform="translate(20.624 104.029)">
            <path id="Rectangle_399" d="M0 0H1.454V59.347H0z" class="cls-1"/>
        </g>
        <g id="Group_661" transform="translate(35.755 104.029)">
            <path id="Rectangle_400" d="M0 0H1.454V59.347H0z" class="cls-1"/>
        </g>
        <g id="Group_662" transform="translate(5.325 104.029)">
            <path id="Rectangle_401" d="M0 0H1.454V59.347H0z" class="cls-1"/>
        </g>
        <g id="Group_663" transform="translate(25.876 109.504)">
            <path id="Path_338" d="M1929.058 910.593h-7.213l.015-7.072 3.645-3.647 3.554 3.556zm-5.756-1.454h4.3v-5.109l-2.1-2.1-2.191 2.194z" class="cls-1" transform="translate(-1921.845 -899.873)"/>
        </g>
        <g id="Group_664" transform="translate(4.693 76.93)">
            <path id="Path_339" d="M1918.872 893.834h-7.213l.012-7.07 1.782-1.782a2.622 2.622 0 0 1 1.865-.774 2.61 2.61 0 0 1 1.863.774l1.688 1.691zm-5.756-1.453h4.3v-5.107l-1.264-1.264a1.184 1.184 0 0 0-.834-.347 1.184 1.184 0 0 0-.836.347l-1.358 1.36z" class="cls-1" transform="translate(-1911.658 -884.208)"/>
        </g>
        <g id="Group_665" transform="translate(15.475 76.93)">
            <path id="Path_340" d="M1924.057 893.834h-7.213l.012-7.07 1.782-1.782a2.619 2.619 0 0 1 1.865-.774 2.615 2.615 0 0 1 1.863.774l1.688 1.691zm-5.756-1.453h4.3v-5.107l-1.262-1.264a1.188 1.188 0 0 0-.834-.347 1.189 1.189 0 0 0-.838.347l-1.356 1.36z" class="cls-1" transform="translate(-1916.843 -884.208)"/>
        </g>
        <g id="Group_666" transform="translate(4.693 90.12)">
            <path id="Path_341" d="M1918.872 900.174h-7.213l.012-7.074 1.782-1.78a2.645 2.645 0 0 1 3.729 0l1.69 1.688zm-5.756-1.456h4.3v-5.109l-1.264-1.262a1.182 1.182 0 0 0-1.672 0l-1.358 1.356z" class="cls-1" transform="translate(-1911.658 -890.551)"/>
        </g>
        <g id="Group_667" transform="translate(15.475 90.12)">
            <path id="Path_342" d="M1924.057 900.174h-7.213l.012-7.074 1.782-1.78a2.645 2.645 0 0 1 3.729 0l1.69 1.688zm-5.756-1.456h4.3v-5.109l-1.262-1.262a1.185 1.185 0 0 0-1.674 0l-1.356 1.356z" class="cls-1" transform="translate(-1916.843 -890.551)"/>
        </g>
        <g id="Group_668" transform="translate(107.479 76.954)">
            <path id="Path_343" d="M1968.3 893.821h-7.216l.014-7.07 1.782-1.782a2.7 2.7 0 0 1 3.73 0l1.688 1.691zm-5.758-1.453h4.3v-5.108l-1.256-1.26a1.21 1.21 0 0 0-1.672 0l-1.358 1.36z" class="cls-1" transform="translate(-1961.088 -884.22)"/>
        </g>
        <g id="Group_669" transform="translate(118.259 76.954)">
            <path id="Path_344" d="M1973.488 893.821h-7.216l.015-7.07 1.784-1.782a2.7 2.7 0 0 1 3.731 0l1.686 1.691zm-5.756-1.453h4.3v-5.108l-1.26-1.26a1.21 1.21 0 0 0-1.672 0l-1.358 1.36z" class="cls-1" transform="translate(-1966.272 -884.22)"/>
        </g>
        <g id="Group_670" transform="translate(107.479 90.115)">
            <path id="Path_345" d="M1968.3 900.177h-7.216l.014-7.074 1.782-1.78a2.633 2.633 0 0 1 3.729 0l1.69 1.688zm-5.758-1.456h4.3v-5.109l-1.262-1.262a1.189 1.189 0 0 0-1.674 0l-1.356 1.358z" class="cls-1" transform="translate(-1961.088 -890.549)"/>
        </g>
        <g id="Group_671" transform="translate(118.259 90.115)">
            <path id="Path_346" d="M1973.488 900.177h-7.216l.015-7.074 1.784-1.78a2.633 2.633 0 0 1 3.729 0l1.688 1.688zm-5.756-1.456h4.3v-5.109l-1.262-1.262a1.189 1.189 0 0 0-1.674 0l-1.356 1.358z" class="cls-1" transform="translate(-1966.272 -890.549)"/>
        </g>
        <g id="Group_672" transform="translate(25.876 122.681)">
            <path id="Path_347" d="M1929.058 916.927h-7.213l.015-7.07 3.645-3.647 3.554 3.552zm-5.756-1.453h4.3v-5.107l-2.1-2.1-2.191 2.194z" class="cls-1" transform="translate(-1921.845 -906.21)"/>
        </g>
        <g id="Group_673" transform="translate(25.876 134.975)">
            <path id="Path_348" d="M1929.058 922.839h-7.213l.015-7.07 3.645-3.647 3.554 3.556zm-5.756-1.453h4.3v-5.107l-2.1-2.1-2.191 2.194z" class="cls-1" transform="translate(-1921.845 -912.122)"/>
        </g>
        <g id="Group_674" transform="translate(25.876 147.836)">
            <path id="Path_349" d="M1929.058 929.026h-7.213l.015-7.07 3.645-3.649 3.554 3.556zm-5.756-1.453h4.3v-5.109l-2.1-2.1-2.191 2.2z" class="cls-1" transform="translate(-1921.845 -918.307)"/>
        </g>
        <g id="Group_675" transform="translate(97.687 109.504)">
            <path id="Path_350" d="M1963.593 910.593h-7.214l.012-7.072 3.647-3.647 3.554 3.556zm-5.756-1.454h4.3v-5.109l-2.1-2.1-2.194 2.194z" class="cls-1" transform="translate(-1956.379 -899.873)"/>
        </g>
        <g id="Group_676" transform="translate(97.687 122.681)">
            <path id="Path_351" d="M1963.593 916.927h-7.214l.012-7.07 3.647-3.647 3.554 3.552zm-5.756-1.453h4.3v-5.107l-2.1-2.1-2.194 2.194z" class="cls-1" transform="translate(-1956.379 -906.21)"/>
        </g>
        <g id="Group_677" transform="translate(97.687 134.975)">
            <path id="Path_352" d="M1963.593 922.839h-7.214l.012-7.07 3.647-3.647 3.554 3.556zm-5.756-1.453h4.3v-5.107l-2.1-2.1-2.194 2.194z" class="cls-1" transform="translate(-1956.379 -912.122)"/>
        </g>
        <g id="Group_678" transform="translate(97.687 147.836)">
            <path id="Path_353" d="M1963.593 929.026h-7.214l.012-7.07 3.647-3.649 3.554 3.556zm-5.756-1.453h4.3v-5.109l-2.1-2.1-2.194 2.2z" class="cls-1" transform="translate(-1956.379 -918.307)"/>
        </g>
        <g id="Group_679" transform="translate(41.283 110.363)">
            <path id="Path_354" d="M1932.818 907.414a3.564 3.564 0 1 1 3.564-3.564 3.567 3.567 0 0 1-3.564 3.564zm0-5.675a2.111 2.111 0 1 0 2.109 2.111 2.112 2.112 0 0 0-2.109-2.11z" class="cls-1" transform="translate(-1929.254 -900.286)"/>
        </g>
        <g id="Group_680" transform="translate(82.179 110.363)">
            <path id="Path_355" d="M1952.485 907.414a3.564 3.564 0 1 1 3.564-3.564 3.567 3.567 0 0 1-3.564 3.564zm0-5.675a2.111 2.111 0 1 0 2.109 2.111 2.112 2.112 0 0 0-2.109-2.11z" class="cls-1" transform="translate(-1948.921 -900.286)"/>
        </g>
        <g id="Group_681" transform="translate(61.825 84.746)">
            <path id="Path_356" d="M1942.7 895.1a3.564 3.564 0 1 1 3.564-3.564 3.567 3.567 0 0 1-3.564 3.564zm0-5.675a2.11 2.11 0 1 0 2.108 2.111 2.112 2.112 0 0 0-2.108-2.115z" class="cls-1" transform="translate(-1939.133 -887.967)"/>
        </g>
        <g id="Group_682" transform="translate(.112 71.862)">
            <path id="Path_357" d="M1936.675 914.666h-27.22v-32.895h27.22zm-25.766-1.454h24.313v-29.985h-24.312z" class="cls-1" transform="translate(-1909.455 -881.771)"/>
        </g>
        <g id="Group_683" transform="translate(103.445 71.862)">
            <path id="Path_358" d="M1986.368 914.666h-27.22v-32.895h27.22zm-25.764-1.454h24.311v-29.985H1960.6z" class="cls-1" transform="translate(-1959.148 -881.771)"/>
        </g>
        <g id="Group_684" transform="translate(26.605 71.863)">
            <path id="Rectangle_402" d="M0 0H77.568V1.454H0z" class="cls-1"/>
        </g>
        <g id="Group_685" transform="translate(25.878 104.029)">
            <path id="Rectangle_403" d="M0 0H1.454V3.446H0z" class="cls-1"/>
        </g>
        <g id="Group_686" transform="translate(31.299 82.453)">
            <path id="Path_359" d="M1925.906 911.886h-1.454l.058-19.455c.246-.559 2.469-5.471 5.779-5.565h.1c3.306 0 5.248 5.028 5.46 5.608l.044.25v18.827h-1.454v-18.7c-.532-1.375-2.156-4.533-4.055-4.533h-.052c-1.965.058-3.8 3.188-4.423 4.556z" class="cls-1" transform="translate(-1924.453 -886.864)"/>
        </g>
        <g id="Group_687" transform="translate(46.776 82.453)">
            <path id="Path_360" d="M1933.352 911.886h-1.452l.06-19.455c.243-.559 2.466-5.471 5.777-5.565h.1c3.308 0 5.248 5.028 5.46 5.608l.044.25v18.827h-1.453v-18.7c-.532-1.375-2.156-4.533-4.055-4.533h-.05c-1.967.058-3.8 3.188-4.423 4.556z" class="cls-1" transform="translate(-1931.896 -886.864)"/>
        </g>
        <g id="Group_688" transform="translate(72.195 82.453)">
            <path id="Path_361" d="M1945.573 911.886h-1.453l.058-19.455c.245-.559 2.468-5.471 5.779-5.565h.1c3.306 0 5.248 5.028 5.46 5.608l.044.25v18.827h-1.461v-18.7c-.532-1.375-2.156-4.533-4.055-4.533H1950c-1.965.058-3.8 3.188-4.423 4.556z" class="cls-1" transform="translate(-1944.12 -886.864)"/>
        </g>
        <g id="Group_689" transform="translate(88.095 82.453)">
            <path id="Path_362" d="M1953.219 911.886h-1.454l.058-19.455c.244-.559 2.466-5.471 5.777-5.565h.1c3.308 0 5.25 5.028 5.461 5.608l.046.25v18.827h-1.456v-18.7c-.53-1.375-2.156-4.533-4.055-4.533h-.05c-1.967.058-3.8 3.188-4.423 4.556z" class="cls-1" transform="translate(-1951.766 -886.864)"/>
        </g>
        <g id="Group_690" transform="translate(25.878 66.524)">
            <path id="Path_363" d="M1928.721 888.757l-1.454-.081c.385-6.733-.272-7.64-1.751-7.993a2.009 2.009 0 0 0-1.563.622 2.173 2.173 0 0 0-.653 1.607v2.82h-1.454v-2.82a3.624 3.624 0 0 1 1.125-2.68 3.378 3.378 0 0 1 2.886-.965c2.891.692 3.211 3.366 2.864 9.49z" class="cls-1" transform="translate(-1921.846 -879.204)"/>
        </g>
        <g id="Group_691" transform="translate(46.24 66.548)">
            <path id="Path_364" d="M1933.092 888.988h-1.454V882.9a3.624 3.624 0 0 1 1.125-2.68 3.694 3.694 0 0 1 2.8-.979c3.119.379 3.082 2.448 2.976 7.981l-.029 1.5-1.453-.025.027-1.5c.112-5.818-.017-6.3-1.695-6.509a2.34 2.34 0 0 0-1.647.607 2.174 2.174 0 0 0-.653 1.607z" class="cls-1" transform="translate(-1931.638 -879.216)"/>
        </g>
        <g id="Group_692" transform="translate(56.465 66.549)">
            <path id="Path_365" d="M1938.009 888.987h-1.453V882.9a3.622 3.622 0 0 1 1.123-2.68 3.705 3.705 0 0 1 2.8-.979c3.119.376 3.082 2.448 2.976 7.977l-.027 1.5-1.453-.025.027-1.5c.11-5.816-.019-6.3-1.7-6.507a2.363 2.363 0 0 0-1.647.609 2.16 2.16 0 0 0-.651 1.605z" class="cls-1" transform="translate(-1936.555 -879.216)"/>
        </g>
        <g id="Group_693" transform="translate(66.91 66.347)">
            <path id="Path_366" d="M1943.031 888.89h-1.453v-6.09a3.628 3.628 0 0 1 1.121-2.678 3.7 3.7 0 0 1 2.81-.984c3.119.38 3.077 2.454 2.973 7.993l-.027 1.485-1.455-.016.025-1.489c.11-5.827-.017-6.313-1.693-6.519a2.329 2.329 0 0 0-1.649.609 2.185 2.185 0 0 0-.653 1.607z" class="cls-1" transform="translate(-1941.578 -879.119)"/>
        </g>
        <g id="Group_694" transform="translate(77.23 66.354)">
            <path id="Path_367" d="M1947.995 888.887h-1.454V882.8a3.62 3.62 0 0 1 1.125-2.678 3.861 3.861 0 0 1 2.805-.984c3.119.38 3.08 2.452 2.974 7.983l-.027 1.5-1.456-.025.027-1.5c.112-5.818-.017-6.3-1.693-6.509a2.209 2.209 0 0 0-1.645.609 2.163 2.163 0 0 0-.657 1.607z" class="cls-1" transform="translate(-1946.541 -879.122)"/>
        </g>
        <g id="Group_695" transform="translate(87.327 66.347)">
            <path id="Path_368" d="M1952.853 888.89h-1.453v-6.09a3.629 3.629 0 0 1 1.123-2.678 3.7 3.7 0 0 1 2.807-.984c3.119.38 3.08 2.454 2.976 7.993l-.029 1.485-1.453-.025.027-1.489c.108-5.827-.017-6.313-1.695-6.519a2.361 2.361 0 0 0-1.649.609 2.182 2.182 0 0 0-.651 1.607z" class="cls-1" transform="translate(-1951.397 -879.119)"/>
        </g>
        <g id="Group_696" transform="translate(97.964 66.354)">
            <path id="Path_369" d="M1957.966 888.887h-1.454V882.8a3.619 3.619 0 0 1 1.125-2.678 3.847 3.847 0 0 1 2.8-.984c3.119.38 3.08 2.454 2.976 7.993l-.029 1.485-1.453-.025.027-1.489c.11-5.827-.017-6.313-1.695-6.519a2.23 2.23 0 0 0-1.645.609 2.17 2.17 0 0 0-.655 1.607z" class="cls-1" transform="translate(-1956.512 -879.122)"/>
        </g>
        <g id="Group_697" transform="translate(36.596 66.539)">
            <path id="Path_370" d="M1928.453 888.708H1927l.027-7.091a3.059 3.059 0 0 1 3.315-2.37c2.745.354 3.1 3.391 2.8 9.247l-1.454-.073c.316-6.259-.32-7.575-1.531-7.733a1.67 1.67 0 0 0-1.7 1.241z" class="cls-1" transform="translate(-1927 -879.211)"/>
        </g>
        <g id="Group_698" transform="translate(7.573 51.983)">
            <path id="Path_371" d="M1925.279 893.546h-12.236v-21.335h12.236zm-10.779-1.456h9.328v-18.426h-9.328z" class="cls-1" transform="translate(-1913.043 -872.211)"/>
        </g>
        <g id="Group_699" transform="translate(110.939 51.983)">
            <path id="Path_372" d="M1974.988 893.546h-12.236v-21.335h12.236zm-10.782-1.456h9.328v-18.426h-9.328z" class="cls-1" transform="translate(-1962.752 -872.211)"/>
        </g>
        <g id="Group_700" transform="translate(18.355 56.395)">
            <path id="Path_373" d="M2012.266 881.314h-94.038v-6.981h94.038zm-92.584-1.453h91.131v-4.074h-91.131z" class="cls-1" transform="translate(-1918.228 -874.333)"/>
        </g>
        <g id="Group_701" transform="translate(2.761 40.822)">
            <path id="Path_374" d="M1932.863 879.142h-22.134v-12.3h22.134zm-20.68-1.453h19.226V868.3h-19.226z" class="cls-1" transform="translate(-1910.729 -866.844)"/>
        </g>
        <g id="Group_702" transform="translate(7.848 29.872)">
            <path id="Path_375" d="M1925.136 874h-11.961v-12.422h11.961zm-10.507-1.456h9.054v-9.518h-9.054z" class="cls-1" transform="translate(-1913.175 -861.578)"/>
        </g>
        <g id="Group_703" transform="translate(5.198 21.762)">
            <path id="Path_376" d="M1929.158 867.241H1911.9v-9.563h17.257zm-15.8-1.453h14.342v-6.656h-14.348z" class="cls-1" transform="translate(-1911.901 -857.678)"/>
        </g>
        <g id="Group_704" transform="translate(107.481 21.762)">
            <path id="Path_377" d="M1978.348 867.241h-17.26v-9.563h17.26zm-15.806-1.453h14.35v-6.656h-14.35z" class="cls-1" transform="translate(-1961.089 -857.678)"/>
        </g>
        <g id="Group_705" transform="translate(110.613 29.872)">
            <path id="Path_378" d="M1974.346 873.982h-11.751v-12.4h11.751zm-10.3-1.454h8.844v-9.5h-8.844z" class="cls-1" transform="translate(-1962.595 -861.578)"/>
        </g>
        <g id="Group_706" transform="translate(105.99 40.822)">
            <path id="Path_379" d="M1982.506 879.142h-22.134v-12.3h22.134zm-20.68-1.453h19.224V868.3h-19.224z" class="cls-1" transform="translate(-1960.372 -866.844)"/>
        </g>
        <g id="Group_707" transform="translate(7.764 46.699)">
            <path id="Rectangle_404" d="M0 0H1.454V6.011H0z" class="cls-1"/>
        </g>
        <g id="Group_708" transform="translate(13.101 46.699)">
            <path id="Rectangle_405" d="M0 0H1.454V6.011H0z" class="cls-1"/>
        </g>
        <g id="Group_709" transform="translate(18.354 46.699)">
            <path id="Rectangle_406" d="M0 0H1.454V6.011H0z" class="cls-1"/>
        </g>
        <g id="Group_710" transform="translate(111.033 46.699)">
            <path id="Rectangle_407" d="M0 0H1.454V6.011H0z" class="cls-1"/>
        </g>
        <g id="Group_711" transform="translate(116.371 46.699)">
            <path id="Rectangle_408" d="M0 0H1.454V6.011H0z" class="cls-1"/>
        </g>
        <g id="Group_712" transform="translate(121.625 46.699)">
            <path id="Rectangle_409" d="M0 0H1.454V6.011H0z" class="cls-1"/>
        </g>
        <g id="Group_713" transform="translate(10.704 27.322)">
            <path id="Rectangle_410" d="M0 0H1.454V3.278H0z" class="cls-1"/>
        </g>
        <g id="Group_714" transform="translate(15.834 27.322)">
            <path id="Rectangle_411" d="M0 0H1.454V3.278H0z" class="cls-1"/>
        </g>
        <g id="Group_715" transform="translate(113.24 27.322)">
            <path id="Rectangle_412" d="M0 0H1.454V3.278H0z" class="cls-1"/>
        </g>
        <g id="Group_716" transform="translate(118.599 27.322)">
            <path id="Rectangle_413" d="M0 0H1.454V3.278H0z" class="cls-1"/>
        </g>
        <g id="Group_717" transform="translate(115.951 18.58)">
            <path id="Rectangle_414" d="M0 0H1.454V3.278H0z" class="cls-1"/>
        </g>
        <g id="Group_718" transform="translate(110.823 5.364)">
            <path id="Path_380" d="M1974.617 867.644H1962.7l.069-11.464c.5-1.04 3.1-6.24 5.748-6.384h.139c2.9 0 5.662 4.776 5.962 7.243zm-10.466-1.454h9.01v-9.068c-.279-2.262-2.77-5.874-4.506-5.874h-.067c-1.293.071-3.342 3.157-4.437 5.411z" class="cls-1" transform="translate(-1962.696 -849.792)"/>
        </g>
        <g id="Group_719" transform="translate(111.55 13.272)">
            <path id="Rectangle_415" d="M0 0H10.466V1.454H0z" class="cls-1"/>
        </g>
        <g id="Group_720" transform="translate(115.951 .001)">
            <path id="Rectangle_416" d="M0 0H1.454V6.094H0z" class="cls-1"/>
        </g>
        <g id="Group_721" transform="translate(8.184 12.829)">
            <path id="Path_381" d="M1924.961 863.769h-11.624v-10.387h11.624zm-10.171-1.454h8.717v-7.48h-8.717z" class="cls-1" transform="translate(-1913.337 -853.382)"/>
        </g>
        <g id="Group_722" transform="translate(13.269 18.023)">
            <path id="Rectangle_417" d="M0 0H1.454V4.465H0z" class="cls-1"/>
        </g>
        <g id="Group_723" transform="translate(8.144 5.121)">
            <path id="Path_382" d="M1913.366 858.221c-.01-.064-.9-6.367 5.4-8.492l.164-.054.171.025c.054.006 5.563.863 5.879 8.38l-1.454.06c-.237-5.635-3.7-6.783-4.475-6.966A6.312 6.312 0 0 0 1914.8 858z" class="cls-1" transform="translate(-1913.318 -849.675)"/>
        </g>
        <g id="Group_724" transform="translate(13.101 .507)">
            <path id="Rectangle_418" d="M0 0H1.454V5.359H0z" class="cls-1"/>
        </g>
    </g>
</svg>
