<svg xmlns="http://www.w3.org/2000/svg" width="95" height="65" viewBox="0 0 174.621 154.824">
    <defs>
        <style>
            .cls-1{fill:#989898}
        </style>
    </defs>
    <g id="Group_536" transform="translate(.001)">
        <g id="Group_397" transform="translate(-.001 153.37)">
            <path id="Rectangle_352" d="M0 0H174.621V1.454H0z" class="cls-1"/>
        </g>
        <g id="Group_398" transform="translate(5.042 110.187)">
            <path id="Path_192" d="M2187.938 949.159h-165.506v-44.637h165.506zm-164.052-1.453h162.6v-41.728h-162.6z" class="cls-1" transform="translate(-2022.432 -904.522)"/>
        </g>
        <g id="Group_399" transform="translate(158.814 110.915)">
            <path id="Rectangle_353" d="M0 0H1.454V43.183H0z" class="cls-1"/>
        </g>
        <g id="Group_400" transform="translate(142.877 110.915)">
            <path id="Rectangle_354" d="M0 0H1.454V43.183H0z" class="cls-1"/>
        </g>
        <g id="Group_401" transform="translate(132.423 110.915)">
            <path id="Rectangle_355" d="M0 0H1.454V43.183H0z" class="cls-1"/>
        </g>
        <g id="Group_402" transform="translate(121.969 110.915)">
            <path id="Rectangle_356" d="M0 0H1.454V43.183H0z" class="cls-1"/>
        </g>
        <g id="Group_403" transform="translate(105.861 110.915)">
            <path id="Rectangle_357" d="M0 0H1.454V43.183H0z" class="cls-1"/>
        </g>
        <g id="Group_404" transform="translate(95.751 110.915)">
            <path id="Rectangle_358" d="M0 0H1.454V43.183H0z" class="cls-1"/>
        </g>
        <g id="Group_405" transform="translate(79.643 110.915)">
            <path id="Rectangle_359" d="M0 0H1.454V43.183H0z" class="cls-1"/>
        </g>
        <g id="Group_406" transform="translate(69.36 110.915)">
            <path id="Rectangle_360" d="M0 0H1.454V43.183H0z" class="cls-1"/>
        </g>
        <g id="Group_407" transform="translate(53.252 110.915)">
            <path id="Rectangle_361" d="M0 0H1.454V43.183H0z" class="cls-1"/>
        </g>
        <g id="Group_408" transform="translate(42.971 110.915)">
            <path id="Rectangle_362" d="M0 0H1.454V43.183H0z" class="cls-1"/>
        </g>
        <g id="Group_409" transform="translate(32.86 110.915)">
            <path id="Rectangle_363" d="M0 0H1.454V43.183H0z" class="cls-1"/>
        </g>
        <g id="Group_410" transform="translate(16.58 110.915)">
            <path id="Rectangle_364" d="M0 0H1.454V43.183H0z" class="cls-1"/>
        </g>
        <g id="Group_411" transform="translate(11.838 120.869)">
            <path id="Path_193" d="M2026.428 933.791a.727.727 0 0 1-.728-.728v-22.676a.727.727 0 1 1 1.454 0v22.676a.727.727 0 0 1-.726.728z" class="cls-1" transform="translate(-2025.7 -909.659)"/>
        </g>
        <g id="Group_412" transform="translate(37.486 120.869)">
            <path id="Path_194" d="M2038.762 933.791a.727.727 0 0 1-.728-.728v-22.676a.727.727 0 1 1 1.454 0v22.676a.727.727 0 0 1-.726.728z" class="cls-1" transform="translate(-2038.034 -909.659)"/>
        </g>
        <g id="Group_413" transform="translate(48.54 120.869)">
            <path id="Path_195" d="M2044.076 933.791a.727.727 0 0 1-.726-.728v-22.676a.727.727 0 1 1 1.454 0v22.676a.727.727 0 0 1-.728.728z" class="cls-1" transform="translate(-2043.35 -909.659)"/>
        </g>
        <g id="Group_414" transform="translate(74.502 120.869)">
            <path id="Path_196" d="M2056.563 933.791a.727.727 0 0 1-.728-.728v-22.676a.727.727 0 1 1 1.453 0v22.676a.727.727 0 0 1-.725.728z" class="cls-1" transform="translate(-2055.835 -909.659)"/>
        </g>
        <g id="Group_415" transform="translate(100.807 120.869)">
            <path id="Path_197" d="M2069.213 933.791a.729.729 0 0 1-.728-.728v-22.676a.728.728 0 1 1 1.456 0v22.676a.728.728 0 0 1-.728.728z" class="cls-1" transform="translate(-2068.485 -909.659)"/>
        </g>
        <g id="Group_416" transform="translate(127.196 120.869)">
            <path id="Path_198" d="M2081.9 933.791a.727.727 0 0 1-.725-.728v-22.676a.727.727 0 1 1 1.453 0v22.676a.727.727 0 0 1-.728.728z" class="cls-1" transform="translate(-2081.176 -909.659)"/>
        </g>
        <g id="Group_417" transform="translate(137.735 120.869)">
            <path id="Path_199" d="M2086.972 933.791a.727.727 0 0 1-.728-.728v-22.676a.727.727 0 1 1 1.454 0v22.676a.727.727 0 0 1-.726.728z" class="cls-1" transform="translate(-2086.244 -909.659)"/>
        </g>
        <g id="Group_418" transform="translate(163.611 120.869)">
            <path id="Path_200" d="M2099.416 933.791a.729.729 0 0 1-.728-.728v-22.676a.728.728 0 1 1 1.456 0v22.676a.728.728 0 0 1-.728.728z" class="cls-1" transform="translate(-2098.688 -909.659)"/>
        </g>
        <g id="Group_419" transform="translate(17.307 118.923)">
            <path id="Path_201" d="M2044.61 913.264h-4.729l-.164-.505c-.034-.1-.836-2.508-3.1-2.578h-.087c-2.25 0-3.408 2.62-3.42 2.645l-.191.439h-4.589v-1.453h3.67c.537-.965 2.1-3.184 4.668-3.084a4.9 4.9 0 0 1 4.238 3.084h3.708z" class="cls-1" transform="translate(-2028.33 -908.723)"/>
        </g>
        <g id="Group_420" transform="translate(54.356 118.923)">
            <path id="Path_202" d="M2062.427 913.264h-4.727l-.164-.505c-.033-.1-.834-2.508-3.1-2.578-2.35-.058-3.5 2.62-3.508 2.647l-.191.437h-4.589v-1.453h3.666c.536-.965 2.115-3.184 4.666-3.084a4.9 4.9 0 0 1 4.24 3.084h3.708z" class="cls-1" transform="translate(-2046.147 -908.723)"/>
        </g>
        <g id="Group_421" transform="translate(80.721 118.924)">
            <path id="Path_203" d="M2075.1 913.263h-4.726l-.165-.505c-.034-.1-.836-2.508-3.1-2.578-2.239-.058-3.5 2.62-3.508 2.647l-.191.437h-4.589v-1.454h3.667c.526-.948 1.992-3.086 4.529-3.086h.137a4.905 4.905 0 0 1 4.24 3.084h3.705z" class="cls-1" transform="translate(-2058.826 -908.724)"/>
        </g>
        <g id="Group_422" transform="translate(106.589 118.923)">
            <path id="Path_204" d="M2087.546 913.264h-4.73l-.165-.505c-.031-.1-.833-2.508-3.1-2.578h-.087c-2.25 0-3.41 2.62-3.423 2.645l-.189.439h-4.589v-1.453h3.664c.536-.965 2.106-3.184 4.668-3.084a4.9 4.9 0 0 1 4.24 3.084h3.708z" class="cls-1" transform="translate(-2071.266 -908.723)"/>
        </g>
        <g id="Group_423" transform="translate(143.26 118.924)">
            <path id="Path_205" d="M2105.181 913.263h-4.729l-.165-.505c-.033-.1-.833-2.508-3.1-2.578h-.087c-2.25 0-3.41 2.62-3.423 2.645l-.191.439h-4.586v-1.454h3.667c.526-.948 1.994-3.086 4.531-3.086h.137a4.9 4.9 0 0 1 4.238 3.084h3.708z" class="cls-1" transform="translate(-2088.901 -908.724)"/>
        </g>
        <g id="Group_424" transform="translate(21.892 129.594)">
            <path id="Path_206" d="M2037.43 925.914h-6.9v-12.059h6.9zm-5.442-1.453h3.986v-9.15h-3.986z" class="cls-1" transform="translate(-2030.535 -913.855)"/>
        </g>
        <g id="Group_425" transform="translate(58.587 129.594)">
            <path id="Path_207" d="M2055.076 925.914h-6.894v-12.059h6.894zm-5.44-1.453h3.986v-9.15h-3.986z" class="cls-1" transform="translate(-2048.182 -913.855)"/>
        </g>
        <g id="Group_426" transform="translate(84.976 129.594)">
            <path id="Path_208" d="M2067.767 925.914h-6.9v-12.059h6.9zm-5.441-1.453h3.988v-9.15h-3.988z" class="cls-1" transform="translate(-2060.872 -913.855)"/>
        </g>
        <g id="Group_427" transform="translate(111.28 129.594)">
            <path id="Path_209" d="M2080.417 925.914h-6.9v-12.059h6.9zm-5.439-1.453h3.986v-9.15h-3.986z" class="cls-1" transform="translate(-2073.522 -913.855)"/>
        </g>
        <g id="Group_428" transform="translate(147.953 129.594)">
            <path id="Path_210" d="M2098.054 925.914h-6.9v-12.059h6.9zm-5.442-1.453h3.986v-9.15h-3.986z" class="cls-1" transform="translate(-2091.158 -913.855)"/>
        </g>
        <g id="Group_429" transform="translate(79.644 85.252)">
            <path id="Path_211" d="M2075.355 918.921h-17.047v-20.314l.12-.183c.161-.241 4-5.893 8.915-5.893 4.216 0 7.758 5.731 7.906 5.976l.106.172zm-15.593-1.456h14.14V899.1c-.588-.9-3.506-5.113-6.558-5.113-3.7 0-6.923 4.163-7.582 5.076z" class="cls-1" transform="translate(-2058.308 -892.531)"/>
        </g>
        <g id="Group_430" transform="translate(53.971 85.252)">
            <path id="Path_212" d="M2063.011 918.921h-17.049l.077-20.42c.123-.243 3.067-5.97 8.041-5.97 4.165 0 8.594 5.668 8.782 5.91l.149.2zm-15.6-1.456h14.142v-18.323c-.78-.95-4.4-5.157-7.477-5.157-3.683 0-6.2 4.188-6.665 5.026z" class="cls-1" transform="translate(-2045.962 -892.531)"/>
        </g>
        <g id="Group_431" transform="translate(16.816 88.039)">
            <path id="Path_213" d="M2045.141 917.475h-17.047v-17.991l.2-.21c.537-.553 5.317-5.4 8.428-5.4 2.125 0 7.187 4.512 8.181 5.419l.237.216zm-15.593-1.456h14.14v-15.868c-2.312-2.073-5.854-4.826-6.964-4.826-2.017 0-5.679 3.252-7.176 4.751z" class="cls-1" transform="translate(-2028.094 -893.871)"/>
        </g>
        <g id="Group_432" transform="translate(106.205 85.252)">
            <path id="Path_214" d="M2088.128 918.921h-17.047v-20.314l.122-.183c.161-.241 4-5.893 8.917-5.893 4.213 0 7.754 5.731 7.9 5.976l.1.172zm-15.594-1.456h14.14V899.1c-.586-.9-3.5-5.113-6.554-5.113-3.714 0-6.925 4.163-7.586 5.074z" class="cls-1" transform="translate(-2071.081 -892.531)"/>
        </g>
        <g id="Group_433" transform="translate(121.798 85.252)">
            <path id="Path_215" d="M2090.659 918.921h-12.079l.064-20.4c.281-.613 2.834-5.995 6.324-5.995 3.025 0 5.377 5.452 5.635 6.076l.056.279zm-10.625-1.456h9.17v-18.432c-.861-2.009-2.712-5.049-4.236-5.049-2.1 0-4.209 3.487-4.935 5.007z" class="cls-1" transform="translate(-2078.58 -892.531)"/>
        </g>
        <g id="Group_434" transform="translate(132.422 85.252)">
            <path id="Path_216" d="M2095.768 918.921h-12.079l.066-20.4c.279-.613 2.834-5.995 6.326-5.995 3.023 0 5.375 5.452 5.633 6.076l.054.279zm-10.624-1.456h9.171v-18.432c-.861-2.009-2.714-5.049-4.234-5.049-2.1 0-4.213 3.487-4.937 5.007z" class="cls-1" transform="translate(-2083.689 -892.531)"/>
        </g>
        <g id="Group_435" transform="translate(69.189 85.252)">
            <path id="Path_217" d="M2065.36 918.921h-12.08l.066-20.4c.279-.613 2.834-5.995 6.326-5.995 3.023 0 5.373 5.452 5.633 6.076l.054.279zm-10.626-1.456h9.172v-18.432c-.86-2.009-2.713-5.049-4.233-5.049-2.1 0-4.213 3.487-4.938 5.007z" class="cls-1" transform="translate(-2053.28 -892.531)"/>
        </g>
        <g id="Group_436" transform="translate(69.189 85.252)">
            <path id="Path_218" d="M2065.36 918.921h-12.08l.066-20.4c.279-.613 2.834-5.995 6.326-5.995 3.023 0 5.373 5.452 5.633 6.076l.054.279zm-10.626-1.456h9.172v-18.432c-.86-2.009-2.713-5.049-4.233-5.049-2.1 0-4.213 3.487-4.938 5.007z" class="cls-1" transform="translate(-2053.28 -892.531)"/>
        </g>
        <g id="Group_437" transform="translate(95.408 85.252)">
            <path id="Path_219" d="M2077.967 918.921h-12.078l.064-20.4c.281-.613 2.834-5.995 6.326-5.995 3.023 0 5.375 5.452 5.633 6.076l.054.279zm-10.624-1.456h9.17v-18.432c-.861-2.009-2.713-5.049-4.234-5.049-2.1 0-4.211 3.487-4.937 5.007z" class="cls-1" transform="translate(-2065.889 -892.531)"/>
        </g>
        <g id="Group_438" transform="translate(43.227 85.252)">
            <path id="Path_220" d="M2052.875 918.921h-12.08l.065-20.4c.28-.613 2.834-5.995 6.325-5.995 3.023 0 5.375 5.452 5.633 6.076l.056.279zm-10.626-1.456h9.17v-18.432c-.861-2.009-2.712-5.049-4.234-5.049-2.1 0-4.211 3.487-4.937 5.007z" class="cls-1" transform="translate(-2040.795 -892.531)"/>
        </g>
        <g id="Group_439" transform="translate(32.173 85.252)">
            <path id="Path_221" d="M2047.559 918.921h-12.08l.066-20.4c.281-.613 2.834-5.995 6.326-5.995 3.023 0 5.375 5.452 5.633 6.076l.054.279zm-10.624-1.456h9.17v-18.432c-.861-2.009-2.713-5.049-4.234-5.049-2.1 0-4.213 3.487-4.937 5.007z" class="cls-1" transform="translate(-2035.479 -892.531)"/>
        </g>
        <g id="Group_440" transform="translate(5.042 90.366)">
            <path id="Path_222" d="M2035.659 916.267h-13.228v-16.315l.1-.168c.11-.2 2.787-4.793 6.292-4.793 2.9 0 6.307 4.265 6.688 4.751l.152.2zm-11.774-1.456h10.32v-14.369c-1.038-1.273-3.62-4-5.386-4-2.111 0-4.186 2.676-4.935 3.9z" class="cls-1" transform="translate(-2022.432 -894.99)"/>
        </g>
        <g id="Group_441" transform="translate(158.301 91.137)">
            <path id="Path_223" d="M2108.211 915.866h-12.077v-15.722l.1-.173c.11-.187 2.788-4.61 6.286-4.61 2.975 0 5.342 4.2 5.6 4.679l.087.347zm-10.624-1.456h9.17v-13.832c-.68-1.181-2.522-3.762-4.235-3.762-2.352 0-4.455 3-4.935 3.739z" class="cls-1" transform="translate(-2096.134 -895.361)"/>
        </g>
        <g id="Group_442" transform="translate(142.877 88.423)">
            <path id="Path_224" d="M2105.764 917.275h-17.047V899.4l.15-.2c.16-.21 4-5.145 8.887-5.145 4.186 0 7.731 5.009 7.881 5.221l.129.187zm-15.594-1.456h14.14v-15.884c-.641-.848-3.522-4.425-6.557-4.425-3.678 0-6.864 3.537-7.583 4.392z" class="cls-1" transform="translate(-2088.717 -894.056)"/>
        </g>
        <g id="Group_443" transform="translate(37.787 92.322)">
            <path id="Path_225" d="M2038.9 911.866a.726.726 0 0 1-.726-.728v-14.481a.727.727 0 0 1 1.454 0v14.481a.726.726 0 0 1-.728.728z" class="cls-1" transform="translate(-2038.179 -895.931)"/>
        </g>
        <g id="Group_444" transform="translate(10.353 96.489)">
            <path id="Path_226" d="M2025.714 908.469a.727.727 0 0 1-.728-.728v-9.081a.728.728 0 0 1 1.456 0v9.081a.727.727 0 0 1-.728.728z" class="cls-1" transform="translate(-2024.986 -897.935)"/>
        </g>
        <g id="Group_445" transform="translate(48.384 92.322)">
            <path id="Path_227" d="M2044 911.866a.727.727 0 0 1-.728-.728v-14.481a.728.728 0 0 1 1.456 0v14.481a.727.727 0 0 1-.728.728z" class="cls-1" transform="translate(-2043.275 -895.931)"/>
        </g>
        <g id="Group_446" transform="translate(74.606 92.322)">
            <path id="Path_228" d="M2056.61 911.866a.725.725 0 0 1-.725-.728v-14.481a.727.727 0 0 1 1.453 0v14.481a.726.726 0 0 1-.728.728z" class="cls-1" transform="translate(-2055.885 -895.931)"/>
        </g>
        <g id="Group_447" transform="translate(100.719 92.322)">
            <path id="Path_229" d="M2069.17 911.866a.727.727 0 0 1-.728-.728v-14.481a.728.728 0 0 1 1.456 0v14.481a.727.727 0 0 1-.728.728z" class="cls-1" transform="translate(-2068.443 -895.931)"/>
        </g>
        <g id="Group_448" transform="translate(127.111 92.322)">
            <path id="Path_230" d="M2081.861 911.866a.725.725 0 0 1-.726-.728v-14.481a.727.727 0 0 1 1.454 0v14.481a.726.726 0 0 1-.728.728z" class="cls-1" transform="translate(-2081.135 -895.931)"/>
        </g>
        <g id="Group_449" transform="translate(137.735 89.438)">
            <path id="Path_231" d="M2086.972 913.363a.726.726 0 0 1-.728-.728v-17.363a.727.727 0 1 1 1.454 0v17.363a.726.726 0 0 1-.726.728z" class="cls-1" transform="translate(-2086.244 -894.544)"/>
        </g>
        <g id="Group_450" transform="translate(163.954 97.565)">
            <path id="Path_232" d="M2099.579 909.144a.726.726 0 0 1-.726-.728v-9.236a.727.727 0 1 1 1.454 0v9.237a.726.726 0 0 1-.728.727z" class="cls-1" transform="translate(-2098.853 -898.452)"/>
        </g>
        <g id="Group_451" transform="translate(148.047 93.044)">
            <path id="Path_233" d="M2097.562 905.219h-6.362v-6.382l.172-.2c2.088-2.454 2.833-2.377 3.084-2.348.584.063 1.563.823 2.907 2.258l.2.212zm-4.9-1.453h3.452v-4.433a12.028 12.028 0 0 0-1.759-1.562 10.306 10.306 0 0 0-1.692 1.607z" class="cls-1" transform="translate(-2091.203 -896.278)"/>
        </g>
        <g id="Group_452" transform="translate(111.548 90.232)">
            <path id="Path_234" d="M2080.01 903.87h-6.359v-6.384l.172-.2c2.09-2.454 2.831-2.383 3.084-2.35.584.06 1.564.821 2.907 2.258l.2.21zm-4.9-1.456h3.449v-4.433a11.768 11.768 0 0 0-1.759-1.562 10.056 10.056 0 0 0-1.69 1.607z" class="cls-1" transform="translate(-2073.651 -894.926)"/>
        </g>
        <g id="Group_453" transform="translate(85.421 90.232)">
            <path id="Path_235" d="M2067.445 903.87h-6.359v-6.384l.172-.2c2.088-2.454 2.831-2.383 3.084-2.35.586.06 1.562.821 2.907 2.258l.2.21zm-4.906-1.456h3.45v-4.433a11.681 11.681 0 0 0-1.757-1.562 10.045 10.045 0 0 0-1.693 1.607z" class="cls-1" transform="translate(-2061.086 -894.926)"/>
        </g>
        <g id="Group_454" transform="translate(58.856 90.232)">
            <path id="Path_236" d="M2054.666 903.87h-6.354v-6.384l.172-.2c2.083-2.454 2.838-2.383 3.082-2.35.584.06 1.563.821 2.9 2.258l.2.21zm-4.9-1.456h3.448v-4.433a11.829 11.829 0 0 0-1.757-1.562 9.924 9.924 0 0 0-1.691 1.607z" class="cls-1" transform="translate(-2048.311 -894.926)"/>
        </g>
        <g id="Group_455" transform="translate(22.268 92.788)">
            <path id="Path_237" d="M2037.073 905.1h-6.357v-6.38l.172-.2c2.088-2.454 2.843-2.381 3.082-2.35.586.06 1.563.823 2.909 2.258l.193.212zm-4.9-1.453h3.45v-4.437a11.926 11.926 0 0 0-1.757-1.562 10.221 10.221 0 0 0-1.693 1.607z" class="cls-1" transform="translate(-2030.716 -896.155)"/>
        </g>
        <g id="Group_483" transform="translate(5.042 59.12)">
            <g id="Group_456" transform="translate(74.602)">
                <path id="Path_238" d="M2073.987 913.474l-.085-26.943c-.586-.9-3.5-5.113-6.558-5.113-3.7 0-6.923 4.163-7.582 5.076v24.516h-1.454v-24.97l.12-.183c.161-.241 4-5.893 8.915-5.893 4.216 0 7.758 5.731 7.906 5.976l.106.173.085 27.357z" class="cls-1" transform="translate(-2058.308 -879.964)"/>
            </g>
            <g id="Group_457" transform="translate(48.929 2.828)">
                <path id="Path_239" d="M2047.416 913.189h-1.454l.077-25.9c.125-.243 3.069-5.968 8.041-5.968 4.165 0 8.594 5.667 8.782 5.908l.149.2v25.109h-1.454v-24.606c-.78-.95-4.4-5.155-7.477-5.155-3.683 0-6.2 4.186-6.665 5.024z" class="cls-1" transform="translate(-2045.962 -881.324)"/>
            </g>
            <g id="Group_458" transform="translate(11.774 10.603)">
                <path id="Path_240" d="M2029.548 911.441h-1.454v-20.764l.2-.212c.537-.551 5.317-5.4 8.428-5.4 2.125 0 7.187 4.512 8.181 5.419l.237.216v20.593h-1.453v-19.95c-2.312-2.073-5.854-4.824-6.964-4.824-2.017 0-5.679 3.25-7.176 4.751z" class="cls-1" transform="translate(-2028.094 -885.063)"/>
            </g>
            <g id="Group_459" transform="translate(101.162 2.828)">
                <path id="Path_241" d="M2072.534 911.27h-1.453V887.4l.122-.183c.161-.241 4-5.891 8.917-5.891 4.213 0 7.754 5.729 7.9 5.974l.1.173v19.513h-1.454v-19.1c-.586-.9-3.5-5.111-6.554-5.111-3.706 0-6.922 4.161-7.586 5.074z" class="cls-1" transform="translate(-2071.081 -881.324)"/>
            </g>
            <g id="Group_460" transform="translate(116.756 5.531)">
                <path id="Path_242" d="M2090.659 908.286h-1.459v-19.16c-.861-2.009-2.712-5.049-4.236-5.049-2.1 0-4.209 3.487-4.935 5.005v19.2h-1.454l.064-19.667c.281-.614 2.834-5.995 6.324-5.995 3.025 0 5.377 5.452 5.635 6.076l.056.279z" class="cls-1" transform="translate(-2078.58 -882.624)"/>
            </g>
            <g id="Group_461" transform="translate(127.379 7.81)">
                <path id="Path_243" d="M2095.768 909.38h-1.453v-19.158c-.861-2.009-2.714-5.049-4.234-5.049-2.106 0-4.213 3.485-4.937 5v19.2h-1.455l.066-19.667c.279-.613 2.834-5.993 6.326-5.993 3.023 0 5.375 5.452 5.633 6.076l.054.276z" class="cls-1" transform="translate(-2083.689 -883.72)"/>
            </g>
            <g id="Group_462" transform="translate(64.146 .133)">
                <path id="Path_244" d="M2065.36 905.688h-1.454V886.53c-.86-2.009-2.713-5.047-4.233-5.047-2.1 0-4.213 3.485-4.938 5.005v19.2h-1.454l.066-19.665c.279-.613 2.834-5.995 6.326-5.995 3.023 0 5.373 5.452 5.633 6.076l.054.279z" class="cls-1" transform="translate(-2053.28 -880.028)"/>
            </g>
            <g id="Group_463" transform="translate(64.146 .133)">
                <path id="Path_245" d="M2054.734 911.908h-1.454l.066-25.885c.279-.613 2.834-5.995 6.326-5.995 3.023 0 5.373 5.452 5.633 6.076l.054.279v23.6h-1.454V886.53c-.86-2.009-2.713-5.047-4.233-5.047-2.1 0-4.213 3.485-4.938 5.005z" class="cls-1" transform="translate(-2053.28 -880.028)"/>
            </g>
            <g id="Group_464" transform="translate(90.43 .133)">
                <path id="Path_246" d="M2067.394 913.538h-1.453l-.021-27.515c.281-.613 2.834-5.995 6.326-5.995 3.023 0 5.375 5.452 5.633 6.076l.054.279v23.591h-1.454V886.53c-.861-2.009-2.713-5.047-4.234-5.047-2.1 0-4.208 3.483-4.934 5z" class="cls-1" transform="translate(-2065.92 -880.028)"/>
            </g>
            <g id="Group_465" transform="translate(38.185 5.384)">
                <path id="Path_247" d="M2052.875 908.215h-1.456v-19.16c-.861-2.009-2.712-5.049-4.234-5.049-2.1 0-4.211 3.487-4.937 5.005v19.2h-1.454l.065-19.667c.28-.613 2.834-5.995 6.325-5.995 3.023 0 5.375 5.452 5.633 6.076l.056.276z" class="cls-1" transform="translate(-2040.795 -882.553)"/>
            </g>
            <g id="Group_466" transform="translate(27.13 7.369)">
                <path id="Path_248" d="M2046.277 910.543l-.172-20.53c-.859-2.007-2.711-5.051-4.234-5.051-2.106 0-4.213 3.485-4.937 5v19.2h-1.456l.066-19.667c.281-.614 2.834-5.993 6.326-5.993 3.023 0 5.375 5.452 5.633 6.076l.054.272.172 20.674z" class="cls-1" transform="translate(-2035.479 -883.508)"/>
            </g>
            <g id="Group_467" transform="translate(0 13.379)">
                <path id="Path_249" d="M2023.885 912.347h-1.454v-20.985l.1-.168c.11-.2 2.787-4.8 6.292-4.8 2.895 0 6.4 4.259 6.787 4.747l.16.2v19.509h-1.454v-18.991c-1.073-1.277-3.726-4-5.494-4-2.117 0-4.188 2.676-4.935 3.9z" class="cls-1" transform="translate(-2022.432 -886.398)"/>
            </g>
            <g id="Group_468" transform="translate(153.258 13.34)">
                <path id="Path_250" d="M2108.211 913.01h-1.454V891.6c-.68-1.183-2.522-3.764-4.235-3.764-2.352 0-4.455 3-4.935 3.739v14.583h-1.454V891.16l.1-.173c.112-.187 2.788-4.608 6.286-4.608 2.975 0 5.342 4.2 5.6 4.679l.087.347z" class="cls-1" transform="translate(-2096.134 -886.379)"/>
            </g>
            <g id="Group_469" transform="translate(137.835 11.553)">
                <path id="Path_251" d="M2105.764 908.009h-1.454V891.4c-.643-.849-3.522-4.423-6.557-4.423-3.678 0-6.864 3.537-7.583 4.392v16.644h-1.454V890.86l.15-.2c.16-.21 4-5.145 8.887-5.145 4.186 0 7.731 5.007 7.881 5.219l.129.187z" class="cls-1" transform="translate(-2088.717 -885.52)"/>
            </g>
            <g id="Group_470" transform="translate(32.745 14.437)">
                <path id="Path_252" d="M2038.9 895.115a.725.725 0 0 1-.726-.726v-6.754a.727.727 0 1 1 1.454 0v6.754a.726.726 0 0 1-.728.726z" class="cls-1" transform="translate(-2038.179 -886.907)"/>
            </g>
            <g id="Group_471" transform="translate(5.311 19.503)">
                <path id="Path_253" d="M2025.714 899.879a.727.727 0 0 1-.728-.726v-9.085a.728.728 0 0 1 1.456 0v9.085a.726.726 0 0 1-.728.726z" class="cls-1" transform="translate(-2024.986 -889.343)"/>
            </g>
            <g id="Group_472" transform="translate(43.342 12.452)">
                <path id="Path_254" d="M2044 895.474a.727.727 0 0 1-.728-.726v-8.068a.728.728 0 1 1 1.456 0v8.068a.727.727 0 0 1-.728.726z" class="cls-1" transform="translate(-2043.275 -885.952)"/>
            </g>
            <g id="Group_473" transform="translate(69.563 7.203)">
                <path id="Path_255" d="M2056.61 899.363a.725.725 0 0 1-.725-.728v-14.481a.727.727 0 0 1 1.453 0v14.481a.726.726 0 0 1-.728.728z" class="cls-1" transform="translate(-2055.885 -883.428)"/>
            </g>
            <g id="Group_474" transform="translate(95.677 7.203)">
                <path id="Path_256" d="M2069.17 899.363a.727.727 0 0 1-.728-.728v-14.481a.728.728 0 0 1 1.456 0v14.481a.727.727 0 0 1-.728.728z" class="cls-1" transform="translate(-2068.443 -883.428)"/>
            </g>
            <g id="Group_475" transform="translate(122.069 12.599)">
                <path id="Path_257" d="M2081.861 896.069a.725.725 0 0 1-.726-.726v-8.592a.727.727 0 1 1 1.454 0v8.592a.726.726 0 0 1-.728.726z" class="cls-1" transform="translate(-2081.135 -886.023)"/>
            </g>
            <g id="Group_476" transform="translate(132.692 14.878)">
                <path id="Path_258" d="M2086.972 894.886a.725.725 0 0 1-.728-.726v-6.313a.727.727 0 1 1 1.454 0v6.313a.725.725 0 0 1-.726.726z" class="cls-1" transform="translate(-2086.244 -887.119)"/>
            </g>
            <g id="Group_477" transform="translate(158.912 19.767)">
                <path id="Path_259" d="M2099.579 897.449a.727.727 0 0 1-.726-.728V890.2a.727.727 0 0 1 1.454 0v6.525a.727.727 0 0 1-.728.724z" class="cls-1" transform="translate(-2098.853 -889.47)"/>
            </g>
            <g id="Group_478" transform="translate(143.004 16.174)">
                <path id="Path_260" d="M2097.562 896.683h-6.362V890.3l.172-.2c2.094-2.46 2.838-2.364 3.082-2.352.586.062 1.566.825 2.909 2.26l.2.212zm-4.9-1.453h3.452v-4.435a11.907 11.907 0 0 0-1.759-1.562 10.294 10.294 0 0 0-1.692 1.607z" class="cls-1" transform="translate(-2091.203 -887.742)"/>
            </g>
            <g id="Group_479" transform="translate(106.506 7.807)">
                <path id="Path_261" d="M2080.01 892.661h-6.359v-6.384l.172-.2c2.09-2.454 2.831-2.381 3.084-2.348.584.058 1.564.817 2.907 2.256l.2.21zm-4.9-1.456h3.449v-4.433a11.6 11.6 0 0 0-1.759-1.56 9.927 9.927 0 0 0-1.69 1.605z" class="cls-1" transform="translate(-2073.651 -883.719)"/>
            </g>
            <g id="Group_480" transform="translate(80.378 4.978)">
                <path id="Path_262" d="M2067.445 891.3h-6.359v-6.38l.172-.2c2.088-2.452 2.831-2.381 3.084-2.35.586.063 1.562.823 2.907 2.258l.2.212zm-4.906-1.454h3.45v-4.433a11.8 11.8 0 0 0-1.757-1.562 10.162 10.162 0 0 0-1.693 1.609z" class="cls-1" transform="translate(-2061.086 -882.358)"/>
            </g>
            <g id="Group_481" transform="translate(53.814 7.807)">
                <path id="Path_263" d="M2054.666 892.661h-6.354v-6.384l.172-.2c2.083-2.454 2.838-2.381 3.082-2.348.584.058 1.563.817 2.9 2.256l.2.21zm-4.9-1.456h3.448v-4.433a11.659 11.659 0 0 0-1.757-1.56 9.944 9.944 0 0 0-1.691 1.605z" class="cls-1" transform="translate(-2048.311 -883.719)"/>
            </g>
            <g id="Group_482" transform="translate(17.226 15.353)">
                <path id="Path_264" d="M2037.073 896.288h-6.357v-6.38l.172-.2c2.088-2.452 2.843-2.383 3.082-2.348.586.06 1.563.821 2.909 2.258l.193.21zm-4.9-1.453h3.45V890.4a12.057 12.057 0 0 0-1.757-1.562 10.164 10.164 0 0 0-1.693 1.609z" class="cls-1" transform="translate(-2030.716 -887.347)"/>
            </g>
        </g>
        <g id="Group_534" transform="translate(5.042)">
            <g id="Group_484" transform="translate(74.602 33.204)">
                <path id="Path_265" d="M2073.987 901.009l-.085-26.943c-.586-.894-3.5-5.111-6.558-5.111-3.712 0-6.923 4.161-7.582 5.072v19.135h-1.454v-19.587l.12-.183c.161-.241 4-5.891 8.915-5.891 4.216 0 7.758 5.729 7.906 5.972l.106.175.085 27.357z" class="cls-1" transform="translate(-2058.308 -867.501)"/>
            </g>
            <g id="Group_485" transform="translate(48.929 38.48)">
                <path id="Path_266" d="M2047.416 901.269h-1.454l.077-25.263c.125-.243 3.069-5.968 8.041-5.968 4.165 0 8.594 5.668 8.782 5.91l.149.2v25.107h-1.454v-24.6c-.78-.95-4.4-5.157-7.477-5.157-3.683 0-6.2 4.186-6.665 5.024z" class="cls-1" transform="translate(-2045.962 -870.038)"/>
            </g>
            <g id="Group_486" transform="translate(11.882 51.297)">
                <path id="Path_267" d="M2045.193 904.7h-1.454v-22.216c-2.312-2.073-5.854-4.828-6.964-4.828-2.017 0-5.681 3.252-7.176 4.754v20.308h-1.454v-20.9l.2-.21c.536-.553 5.317-5.4 8.428-5.4 2.123 0 7.187 4.514 8.178 5.421l.239.216z" class="cls-1" transform="translate(-2028.146 -876.202)"/>
            </g>
            <g id="Group_487" transform="translate(101.162 38.856)">
                <path id="Path_268" d="M2072.534 900.163h-1.453V876.3l.122-.183c.161-.241 4-5.893 8.917-5.893 4.213 0 7.754 5.731 7.9 5.976l.1.173v19.513h-1.454v-19.1c-.586-.9-3.5-5.113-6.554-5.113-3.714 0-6.925 4.163-7.586 5.072z" class="cls-1" transform="translate(-2071.081 -870.219)"/>
            </g>
            <g id="Group_488" transform="translate(116.756 43.766)">
                <path id="Path_269" d="M2090.659 898.24h-1.459v-19.16c-.861-2.007-2.712-5.047-4.236-5.047-2.1 0-4.209 3.485-4.935 5.005v19.2h-1.454l.064-19.667c.281-.613 2.834-5.993 6.324-5.993 3.025 0 5.377 5.45 5.635 6.074l.056.279z" class="cls-1" transform="translate(-2078.58 -872.58)"/>
            </g>
            <g id="Group_489" transform="translate(127.379 46.203)">
                <path id="Path_270" d="M2095.768 899.412h-1.453v-19.16c-.861-2.007-2.714-5.047-4.234-5.047-2.106 0-4.213 3.485-4.937 5v19.2h-1.455l.066-19.667c.279-.613 2.834-5.993 6.326-5.993 3.023 0 5.375 5.45 5.633 6.074l.054.279z" class="cls-1" transform="translate(-2083.689 -873.752)"/>
            </g>
            <g id="Group_490" transform="translate(64.146 35.955)">
                <path id="Path_271" d="M2065.36 898.778h-1.454v-23.452c-.86-2.009-2.713-5.049-4.233-5.049-2.1 0-4.213 3.487-4.938 5.007v19.2h-1.454l.066-19.667c.279-.613 2.834-5.995 6.326-5.995 3.023 0 5.373 5.452 5.633 6.076l.054.279z" class="cls-1" transform="translate(-2053.28 -868.824)"/>
            </g>
            <g id="Group_491" transform="translate(90.43 35.126)">
                <path id="Path_272" d="M2067.394 901.931h-1.453l-.021-27.513c.281-.613 2.834-5.993 6.326-5.993 3.023 0 5.375 5.452 5.633 6.076l.054.277v23.591h-1.454v-23.442c-.861-2.009-2.713-5.049-4.234-5.049-2.1 0-4.208 3.483-4.934 5z" class="cls-1" transform="translate(-2065.92 -868.425)"/>
            </g>
            <g id="Group_492" transform="translate(38.185 44.028)">
                <path id="Path_273" d="M2052.875 898.686h-1.456v-19.478c-.861-2.009-2.712-5.049-4.234-5.049-2.1 0-4.211 3.487-4.937 5.007v19.2h-1.454l.065-19.667c.28-.613 2.834-5.995 6.325-5.995 3.023 0 5.375 5.452 5.633 6.076l.056.279z" class="cls-1" transform="translate(-2040.795 -872.706)"/>
            </g>
            <g id="Group_493" transform="translate(27.13 46.103)">
                <path id="Path_274" d="M2046.277 900.739l-.172-20.53c-.859-2.007-2.711-5.051-4.234-5.051-2.106 0-4.213 3.485-4.937 5.005v19.2h-1.456l.066-19.667c.281-.613 2.834-5.993 6.326-5.993 3.023 0 5.375 5.452 5.633 6.076l.054.272.172 20.674z" class="cls-1" transform="translate(-2035.479 -873.704)"/>
            </g>
            <g id="Group_494" transform="translate(0 54.593)">
                <path id="Path_275" d="M2035.659 902.986h-1.454v-19.745c-1.038-1.275-3.62-4-5.386-4-2.111 0-4.186 2.674-4.935 3.9v19.846h-1.454v-20.238l.1-.168c.11-.2 2.787-4.793 6.292-4.793 2.9 0 6.307 4.267 6.688 4.754l.152.2z" class="cls-1" transform="translate(-2022.432 -877.787)"/>
            </g>
            <g id="Group_495" transform="translate(153.258 54.444)">
                <path id="Path_276" d="M2108.211 904.344h-1.454v-21.412c-.68-1.183-2.522-3.764-4.235-3.764-2.352 0-4.455 3-4.935 3.739v14.585h-1.454v-15l.1-.172c.112-.187 2.788-4.608 6.286-4.608 2.975 0 5.342 4.2 5.6 4.679l.087.347z" class="cls-1" transform="translate(-2096.134 -877.715)"/>
            </g>
            <g id="Group_496" transform="translate(137.835 51.516)">
                <path id="Path_277" d="M2105.764 898.8h-1.454v-16.61c-.641-.848-3.522-4.425-6.557-4.425-3.678 0-6.864 3.537-7.583 4.392V898.8h-1.454v-17.153l.15-.2c.16-.21 4-5.145 8.887-5.145 4.186 0 7.731 5.009 7.881 5.221l.129.187z" class="cls-1" transform="translate(-2088.717 -876.307)"/>
            </g>
            <g id="Group_497" transform="translate(74.602 7.326)">
                <path id="Path_278" d="M2073.987 888.564l-.085-26.941c-.586-.9-3.5-5.113-6.558-5.113-3.712 0-6.923 4.161-7.582 5.07v18.27l.53.175-.459 1.383-1.524-.507V861.13l.12-.183c.161-.243 4-5.891 8.915-5.891 4.216 0 7.758 5.731 7.906 5.976l.106.173.085 27.355z" class="cls-1" transform="translate(-2058.308 -855.056)"/>
            </g>
            <g id="Group_498" transform="translate(48.929 14.81)">
                <path id="Path_279" d="M2047.416 889.888h-1.454l.077-25.263c.123-.243 3.067-5.97 8.041-5.97 4.165 0 8.594 5.668 8.782 5.91l.149.2v25.109h-1.454v-24.609c-.78-.95-4.4-5.157-7.477-5.157-3.683 0-6.2 4.188-6.665 5.026z" class="cls-1" transform="translate(-2045.962 -858.655)"/>
            </g>
            <g id="Group_499" transform="translate(11.882 40.836)">
                <path id="Path_280" d="M2045.193 899.663h-1.454v-22.214c-2.312-2.073-5.854-4.824-6.964-4.824-2.017 0-5.681 3.252-7.176 4.752v20.308h-1.454v-20.9l.2-.21c.536-.553 5.317-5.4 8.428-5.4 2.123 0 7.187 4.512 8.178 5.417l.239.218z" class="cls-1" transform="translate(-2028.146 -871.171)"/>
            </g>
            <g id="Group_500" transform="translate(101.162 14.81)">
                <path id="Path_281" d="M2072.534 888.6h-1.453v-23.87l.122-.183c.161-.241 4-5.893 8.917-5.893 4.213 0 7.754 5.731 7.9 5.976l.1.173v19.511h-1.454v-19.092c-.586-.9-3.5-5.113-6.554-5.113-3.714 0-6.925 4.163-7.586 5.074z" class="cls-1" transform="translate(-2071.081 -858.655)"/>
            </g>
            <g id="Group_501" transform="translate(116.756 19.095)">
                <path id="Path_282" d="M2090.659 886.376h-1.459v-19.157c-.861-2.009-2.712-5.049-4.236-5.049-2.1 0-4.209 3.485-4.935 5v19.2h-1.454l.064-19.667c.281-.614 2.834-5.993 6.324-5.993 3.025 0 5.377 5.452 5.635 6.076l.056.277z" class="cls-1" transform="translate(-2078.58 -860.716)"/>
            </g>
            <g id="Group_502" transform="translate(127.379 27.638)">
                <path id="Path_283" d="M2095.768 890.486h-1.453v-19.16c-.861-2.009-2.714-5.049-4.234-5.049-2.1 0-4.213 3.487-4.937 5.007v19.2h-1.455l.066-19.667c.279-.613 2.834-5.995 6.326-5.995 3.023 0 5.375 5.452 5.633 6.076l.054.279z" class="cls-1" transform="translate(-2083.689 -864.824)"/>
            </g>
            <g id="Group_503" transform="translate(64.146 9.102)">
                <path id="Path_284" d="M2065.36 885.862h-1.454v-23.45c-.86-2.009-2.713-5.049-4.233-5.049-2.1 0-4.213 3.487-4.938 5.007v19.2h-1.454l.066-19.667c.279-.614 2.834-6 6.326-6 3.023 0 5.373 5.452 5.633 6.076l.054.279z" class="cls-1" transform="translate(-2053.28 -855.91)"/>
            </g>
            <g id="Group_504" transform="translate(90.43 9.102)">
                <path id="Path_285" d="M2067.394 889.418h-1.453l-.021-27.513c.281-.614 2.834-6 6.326-6 3.023 0 5.375 5.452 5.633 6.076l.054.279v23.591h-1.454v-23.439c-.861-2.009-2.713-5.049-4.234-5.049-2.1 0-4.208 3.485-4.934 5.005z" class="cls-1" transform="translate(-2065.92 -855.91)"/>
            </g>
            <g id="Group_505" transform="translate(38.185 20.06)">
                <path id="Path_286" d="M2052.875 887.162h-1.456v-19.48c-.861-2.009-2.712-5.049-4.234-5.049-2.1 0-4.211 3.487-4.937 5.005v19.2h-1.454l.065-19.667c.28-.613 2.834-5.995 6.325-5.995 3.023 0 5.375 5.452 5.633 6.076l.056.277z" class="cls-1" transform="translate(-2040.795 -861.18)"/>
            </g>
            <g id="Group_506" transform="translate(27.13 27.683)">
                <path id="Path_287" d="M2046.277 891.883l-.172-20.532c-.859-2.007-2.711-5.051-4.234-5.051-2.1 0-4.213 3.487-4.937 5.005v19.2h-1.456l.066-19.667c.281-.613 2.834-5.995 6.326-5.995 3.023 0 5.375 5.452 5.633 6.076l.054.27.172 20.678z" class="cls-1" transform="translate(-2035.479 -864.846)"/>
            </g>
            <g id="Group_507" transform="translate(137.835 41.05)">
                <path id="Path_288" d="M2105.764 893.767h-1.454v-16.612c-.641-.85-3.522-4.425-6.557-4.425-3.678 0-6.864 3.537-7.583 4.392v16.646h-1.454v-17.152l.15-.2c.16-.212 4-5.147 8.887-5.147 4.186 0 7.731 5.011 7.881 5.224l.129.187z" class="cls-1" transform="translate(-2088.717 -871.274)"/>
            </g>
            <g id="Group_508" transform="translate(32.745 53.117)">
                <path id="Path_289" d="M2038.9 887.362a.725.725 0 0 1-.726-.726V877.8a.727.727 0 1 1 1.454 0v8.831a.726.726 0 0 1-.728.731z" class="cls-1" transform="translate(-2038.179 -877.077)"/>
            </g>
            <g id="Group_509" transform="translate(5.311 59.503)">
                <path id="Path_290" d="M2025.714 887.8a.727.727 0 0 1-.728-.726v-6.195a.728.728 0 0 1 1.456 0v6.195a.727.727 0 0 1-.728.726z" class="cls-1" transform="translate(-2024.986 -880.148)"/>
            </g>
            <g id="Group_510" transform="translate(43.342 50.969)">
                <path id="Path_291" d="M2044 885.566a.727.727 0 0 1-.728-.728v-8.066a.728.728 0 1 1 1.456 0v8.066a.727.727 0 0 1-.728.728z" class="cls-1" transform="translate(-2043.275 -876.044)"/>
            </g>
            <g id="Group_511" transform="translate(69.563 40.407)">
                <path id="Path_292" d="M2056.61 886.9a.725.725 0 0 1-.725-.728v-14.481a.727.727 0 0 1 1.453 0v14.479a.726.726 0 0 1-.728.73z" class="cls-1" transform="translate(-2055.885 -870.965)"/>
            </g>
            <g id="Group_512" transform="translate(95.677 40.407)">
                <path id="Path_293" d="M2069.17 886.9a.727.727 0 0 1-.728-.728v-14.481a.728.728 0 0 1 1.456 0v14.479a.727.727 0 0 1-.728.73z" class="cls-1" transform="translate(-2068.443 -870.965)"/>
            </g>
            <g id="Group_513" transform="translate(122.069 50.676)">
                <path id="Path_294" d="M2081.861 885.949a.725.725 0 0 1-.726-.726v-8.592a.727.727 0 1 1 1.454 0v8.592a.726.726 0 0 1-.728.726z" class="cls-1" transform="translate(-2081.135 -875.903)"/>
            </g>
            <g id="Group_514" transform="translate(132.692 53.464)">
                <path id="Path_295" d="M2086.972 886.924a.725.725 0 0 1-.728-.726v-8.226a.727.727 0 1 1 1.454 0v8.228a.725.725 0 0 1-.726.724z" class="cls-1" transform="translate(-2086.244 -877.244)"/>
            </g>
            <g id="Group_515" transform="translate(158.912 60.453)">
                <path id="Path_296" d="M2099.579 888.584a.725.725 0 0 1-.726-.726v-6.525a.727.727 0 1 1 1.454 0v6.525a.725.725 0 0 1-.728.726z" class="cls-1" transform="translate(-2098.853 -880.605)"/>
            </g>
            <g id="Group_516" transform="translate(143.004 56.229)">
                <path id="Path_297" d="M2097.562 887.516h-6.362v-6.382l.172-.2c2.094-2.46 2.838-2.37 3.082-2.352.586.062 1.566.826 2.909 2.26l.2.212zm-4.9-1.454h3.452v-4.435a11.912 11.912 0 0 0-1.759-1.562 10.289 10.289 0 0 0-1.692 1.607z" class="cls-1" transform="translate(-2091.203 -878.574)"/>
            </g>
            <g id="Group_517" transform="translate(106.506 43.081)">
                <path id="Path_298" d="M2080.01 881.193h-6.359v-6.384l.172-.2c2.09-2.454 2.831-2.379 3.084-2.348.584.06 1.564.821 2.907 2.258l.2.21zm-4.9-1.454h3.449v-4.433a11.9 11.9 0 0 0-1.759-1.562 10.288 10.288 0 0 0-1.69 1.605z" class="cls-1" transform="translate(-2073.651 -872.251)"/>
            </g>
            <g id="Group_518" transform="translate(106.506 19.52)">
                <path id="Path_299" d="M2080.01 869.861h-6.359v-6.384l.172-.2c2.09-2.452 2.831-2.377 3.084-2.348.584.058 1.564.817 2.907 2.256l.2.21zm-4.9-1.453h3.449v-4.435a11.6 11.6 0 0 0-1.759-1.56 10.014 10.014 0 0 0-1.69 1.605z" class="cls-1" transform="translate(-2073.651 -860.92)"/>
            </g>
            <g id="Group_519" transform="translate(80.378 38.183)">
                <path id="Path_300" d="M2067.445 878.836h-6.359v-6.382l.172-.2c2.088-2.45 2.831-2.375 3.084-2.348.584.06 1.562.819 2.907 2.256l.2.212zm-4.906-1.454h3.45v-4.435a11.756 11.756 0 0 0-1.755-1.56 9.964 9.964 0 0 0-1.7 1.607z" class="cls-1" transform="translate(-2061.086 -869.896)"/>
            </g>
            <g id="Group_520" transform="translate(80.378 11.608)">
                <path id="Path_301" d="M2067.445 866.056h-6.359v-6.382l.172-.2c2.088-2.454 2.831-2.375 3.084-2.348.584.058 1.562.819 2.907 2.256l.2.212zm-4.906-1.453h3.45v-4.435a11.756 11.756 0 0 0-1.755-1.56 10.02 10.02 0 0 0-1.7 1.605z" class="cls-1" transform="translate(-2061.086 -857.115)"/>
            </g>
            <g id="Group_521" transform="translate(53.814 43.081)">
                <path id="Path_302" d="M2054.666 881.193h-6.354v-6.384l.172-.2c2.083-2.454 2.838-2.379 3.082-2.348.584.06 1.563.821 2.9 2.258l.2.21zm-4.9-1.454h3.448v-4.433a11.841 11.841 0 0 0-1.757-1.562 9.973 9.973 0 0 0-1.691 1.605z" class="cls-1" transform="translate(-2048.311 -872.251)"/>
            </g>
            <g id="Group_522" transform="translate(53.814 19.97)">
                <path id="Path_303" d="M2054.666 870.079h-6.354V863.7l.172-.2c2.083-2.454 2.838-2.381 3.082-2.348.584.06 1.563.821 2.9 2.258l.2.21zm-4.9-1.456h3.448v-4.433a11.958 11.958 0 0 0-1.757-1.562 9.924 9.924 0 0 0-1.691 1.607z" class="cls-1" transform="translate(-2048.311 -861.137)"/>
            </g>
            <g id="Group_523" transform="translate(17.226 56.492)">
                <path id="Path_304" d="M2037.073 887.641h-6.357v-6.38l.172-.2c2.088-2.454 2.843-2.379 3.082-2.35.586.06 1.563.823 2.909 2.258l.193.212zm-4.9-1.453h3.45v-4.433a11.93 11.93 0 0 0-1.757-1.562 10.222 10.222 0 0 0-1.693 1.607z" class="cls-1" transform="translate(-2030.716 -878.7)"/>
            </g>
            <g id="Group_524" transform="translate(82.439)">
                <path id="Path_305" d="M2062.8 860.341a.727.727 0 0 1-.728-.728v-7.353a.727.727 0 1 1 1.454 0v7.353a.727.727 0 0 1-.726.728z" class="cls-1" transform="translate(-2062.077 -851.533)"/>
            </g>
            <g id="Group_525" transform="translate(108.677 9.102)">
                <path id="Path_306" d="M2075.422 863.13a.727.727 0 0 1-.728-.728v-5.764a.728.728 0 1 1 1.456 0v5.762a.727.727 0 0 1-.728.73z" class="cls-1" transform="translate(-2074.695 -855.91)"/>
            </g>
            <g id="Group_526" transform="translate(145.631 35.126)">
                <path id="Path_307" d="M2093.192 875.832a.725.725 0 0 1-.726-.726v-5.955a.727.727 0 0 1 1.454 0v5.955a.725.725 0 0 1-.728.726z" class="cls-1" transform="translate(-2092.466 -868.425)"/>
            </g>
            <g id="Group_527" transform="translate(132.435 35.126)">
                <path id="Path_308" d="M2086.848 875.832a.725.725 0 0 1-.728-.726v-5.955a.727.727 0 0 1 1.454 0v5.955a.725.725 0 0 1-.726.726z" class="cls-1" transform="translate(-2086.12 -868.425)"/>
            </g>
            <g id="Group_528" transform="translate(122.069 26.648)">
                <path id="Path_309" d="M2081.861 877.482a.725.725 0 0 1-.726-.728v-11.68a.727.727 0 0 1 1.454 0v11.68a.726.726 0 0 1-.728.728z" class="cls-1" transform="translate(-2081.135 -864.348)"/>
            </g>
            <g id="Group_529" transform="translate(95.677 16.278)">
                <path id="Path_310" d="M2069.17 874.867a.727.727 0 0 1-.728-.726v-14.052a.728.728 0 1 1 1.456 0v14.053a.727.727 0 0 1-.728.725z" class="cls-1" transform="translate(-2068.443 -859.361)"/>
            </g>
            <g id="Group_530" transform="translate(69.459 16.278)">
                <path id="Path_311" d="M2056.563 874.6a.725.725 0 0 1-.728-.726v-13.785a.727.727 0 1 1 1.453 0v13.785a.725.725 0 0 1-.725.726z" class="cls-1" transform="translate(-2055.835 -859.361)"/>
            </g>
            <g id="Group_531" transform="translate(43.342 27.076)">
                <path id="Path_312" d="M2044 877.788a.727.727 0 0 1-.728-.728v-11.78a.728.728 0 0 1 1.456 0v11.78a.728.728 0 0 1-.728.728z" class="cls-1" transform="translate(-2043.275 -864.554)"/>
            </g>
            <g id="Group_532" transform="translate(33.198 35.126)">
                <path id="Path_313" d="M2039.125 876.052a.727.727 0 0 1-.728-.728v-6.174a.728.728 0 0 1 1.456 0v6.174a.727.727 0 0 1-.728.728z" class="cls-1" transform="translate(-2038.397 -868.425)"/>
            </g>
            <g id="Group_533" transform="translate(18.752 35.126)">
                <path id="Path_314" d="M2032.178 875.772a.726.726 0 0 1-.728-.728v-5.893a.727.727 0 0 1 1.454 0v5.893a.725.725 0 0 1-.726.728z" class="cls-1" transform="translate(-2031.45 -868.425)"/>
            </g>
        </g>
        <g id="Group_535" transform="translate(60.667 9.102)">
            <path id="Path_315" d="M2049.908 863.12a.726.726 0 0 1-.726-.728v-5.754a.727.727 0 1 1 1.454 0v5.754a.726.726 0 0 1-.728.728z" class="cls-1" transform="translate(-2049.182 -855.91)"/>
        </g>
    </g>
</svg>
