<svg xmlns="http://www.w3.org/2000/svg" id="Group_653" width="175.433" height="157.267" viewBox="0 0 148.247 122.84">
    <defs>
        <style>
            .cls-1{fill:#989898}
        </style>
    </defs>
    <g id="Group_538">
        <g id="Group_537">
            <path id="Path_316" d="M1643.655 858.678v1.387a1.875 1.875 0 0 1 1.152 2.425h.753v1.271h.634v1.271h.636v1.268h.634v1.271h.636v1.27h.635a1.271 1.271 0 0 1 0 2.541h-.3v15.242h1.574a1.271 1.271 0 0 1 0 2.541h-.636v13.972h31.757a1.271 1.271 0 1 1 0 2.541h-1.27v11.433h6.353a1.271 1.271 0 0 1 0 2.541h-2.541v50.809h3.175v7.621H1543.3v-7.621h3.175v-50.81h-2.539a1.271 1.271 0 1 1 0-2.541h6.351v-11.433h-1.27a1.271 1.271 0 1 1 0-2.541h31.757v-13.972h-.636a1.271 1.271 0 0 1 0-2.541h1.574v-15.242h-.3a1.271 1.271 0 0 1 0-2.541h.636v-1.27h.634v-1.27h.636v-1.27h.634v-1.27h.634v-1.271h.753a1.874 1.874 0 0 1 1.154-2.425v-1.387h1.27v1.387a1.9 1.9 0 0 1 1.269 1.788 1.848 1.848 0 0 1-.116.636h.753v1.271h.634v1.271h.636v1.27h.634v1.271h.636v1.27h.634a1.271 1.271 0 0 1 0 2.541h-.3v15.242h.94v-6.43h2.539v4.182h2.541v-4.182h2.541v4.182h2.539v-4.182h2.541v4.182h2.541v-4.182h2.541v4.182h2.539v-4.182h2.541v4.182h2.541v-4.182h2.541v4.182h2.539v-4.182h2.541v4.182h2.541v-4.182h2.539v4.182h2.541v-4.182h2.541v6.43h.938v-15.243h-.3a1.271 1.271 0 0 1 0-2.541h.636v-1.27h.634v-1.27h.636v-1.27h.634v-1.27h.634v-1.271h.753a1.874 1.874 0 0 1 1.154-2.425v-1.387h1.271m0-1.718h-1.271a1.719 1.719 0 0 0-1.72 1.718v.428a3.634 3.634 0 0 0-1.187 1.986 75.266 75.266 0 0 1-3.24 6.226 2.989 2.989 0 0 0-.349 5.425v5.731h-1.761a1.719 1.719 0 0 1-2.541 0h-2.539a1.719 1.719 0 0 1-2.541 0h-2.541a1.716 1.716 0 0 1-2.539 0h-2.541a1.718 1.718 0 0 1-2.541 0h-2.549a1.716 1.716 0 0 1-2.539 0h-2.541a1.719 1.719 0 0 1-2.541 0h-2.541a1.716 1.716 0 0 1-2.539 0h-2.541a1.719 1.719 0 0 1-2.541 0h-1.759v-5.731a2.988 2.988 0 0 0-.352-5.425 24.119 24.119 0 0 1-1.252-2.354 1945.054 1945.054 0 0 1-1.271-2.539 1.716 1.716 0 0 0-.715-1.333 3.636 3.636 0 0 0-1.189-1.986v-.428a1.718 1.718 0 0 0-1.718-1.718h-1.27a1.719 1.719 0 0 0-1.72 1.718v.428a3.636 3.636 0 0 0-1.187 1.986 75.6 75.6 0 0 1-3.24 6.226 2.989 2.989 0 0 0-.349 5.425v12.165a2.99 2.99 0 0 0-.94 5.772v10.738h-30.037a2.989 2.989 0 0 0-.447 5.945v8.027h-4.633a2.989 2.989 0 1 0 0 5.978h.821v47.373h-1.459a1.718 1.718 0 0 0-1.718 1.718v7.621a1.719 1.719 0 0 0 1.718 1.72h143.539a1.719 1.719 0 0 0 1.72-1.72v-7.621a1.719 1.719 0 0 0-1.72-1.718h-1.458v-47.372h.823a2.989 2.989 0 0 0 0-5.978h-4.633v-8.027a2.989 2.989 0 0 0-.449-5.945h-30.037V890.68a2.99 2.99 0 0 0-.938-5.772v-12.165a2.988 2.988 0 0 0-.351-5.425 24.187 24.187 0 0 1-1.252-2.354 2463.507 2463.507 0 0 1-1.271-2.539 1.718 1.718 0 0 0-.715-1.333 3.64 3.64 0 0 0-1.19-1.986v-.428a1.718 1.718 0 0 0-1.718-1.718z" class="cls-1" transform="translate(-1540.95 -856.96)"/>
        </g>
    </g>
    <g id="Group_540" transform="translate(109.691 48.717)">
        <g id="Group_539">
            <path id="Rectangle_365" d="M0 0H1.27V11.432H0z" class="cls-1"/>
        </g>
    </g>
    <g id="Group_542" transform="translate(53.8 48.717)">
        <g id="Group_541">
            <path id="Path_317" d="M1606.02 890.55v-10.162h1.45v11.432h-40.648v-11.432h1.09v10.162z" class="cls-1" transform="translate(-1566.822 -880.388)"/>
        </g>
    </g>
    <g id="Group_544" transform="translate(37.287 48.717)">
        <g id="Group_543">
            <path id="Rectangle_366" d="M0 0H1.27V11.432H0z" class="cls-1"/>
        </g>
    </g>
    <g id="Group_546" transform="translate(14.423 72.853)">
        <g id="Group_545">
            <path id="Path_318" d="M1566.94 932.642v-29.216c0-4.91-4.325-8.892-8.894-10.162-4.321 1.121-8.892 5.253-8.892 10.162v29.216h-1.269V892h20.323v40.646z" class="cls-1" transform="translate(-1547.886 -891.995)"/>
        </g>
    </g>
    <g id="Group_548" transform="translate(37.286 62.69)">
        <g id="Group_547">
            <path id="Path_319" d="M1558.881 937.917v-50.809h2.541a1.27 1.27 0 1 0 0 2.539v5.082a1.271 1.271 0 1 0 0 2.541v26.675a1.269 1.269 0 1 0 0 2.539v8.894a1.269 1.269 0 1 0 0 2.539z" class="cls-1" transform="translate(-1558.881 -887.108)"/>
        </g>
    </g>
    <g id="Group_550" transform="translate(57.611 68.629)">
        <g id="Group_549">
            <path id="Path_320" d="M1585.178 891.769c5.3 1.795 14.785 9.087 14.785 17.249v24.957h-29.588v-24.957c0-8.035 9.5-15.386 14.8-17.249m-.01-1.8c-5.995 1.8-16.513 9.936-16.513 19.054V935.7h33.025v-26.682c0-9.118-10.424-17.3-16.513-19.054z" class="cls-1" transform="translate(-1568.655 -889.964)"/>
        </g>
    </g>
    <g id="Group_552" transform="translate(52.531 62.69)">
        <g id="Group_551">
            <path id="Path_321" d="M1606.859 937.917v-49.538h-38.108v49.538h-2.539a1.269 1.269 0 0 0 0-2.539v-8.894a1.269 1.269 0 0 0 0-2.539V897.27a1.271 1.271 0 0 0 0-2.541v-5.082a1.27 1.27 0 0 0 0-2.539h43.188a1.27 1.27 0 1 0 0 2.539v5.082a1.271 1.271 0 1 0 0 2.541v26.675a1.269 1.269 0 1 0 0 2.539v8.894a1.269 1.269 0 1 0 0 2.539z" class="cls-1" transform="translate(-1566.212 -887.108)"/>
        </g>
    </g>
    <g id="Group_554" transform="translate(108.419 62.69)">
        <g id="Group_553">
            <path id="Path_322" d="M1593.089 937.917a1.269 1.269 0 1 0 0-2.539v-8.894a1.269 1.269 0 1 0 0-2.539V897.27a1.271 1.271 0 1 0 0-2.541v-5.082a1.27 1.27 0 1 0 0-2.539h2.541v50.809z" class="cls-1" transform="translate(-1593.089 -887.108)"/>
        </g>
    </g>
    <g id="Group_556" transform="translate(113.501 72.853)">
        <g id="Group_555">
            <path id="Path_323" d="M1614.587 932.642v-29.216c0-4.91-4.571-9.042-8.892-10.162-4.569 1.271-8.892 5.253-8.892 10.162v29.216h-1.271V892h20.324v40.646z" class="cls-1" transform="translate(-1595.533 -891.995)"/>
        </g>
    </g>
    <g id="Group_558" transform="translate(138.271 62.69)">
        <g id="Group_557">
            <path id="Rectangle_367" d="M0 0H2.54V5.081H0z" class="cls-1"/>
        </g>
    </g>
    <g id="Group_560" transform="translate(133.19 62.69)">
        <g id="Group_559">
            <path id="Rectangle_368" d="M0 0H2.54V5.081H0z" class="cls-1"/>
        </g>
    </g>
    <g id="Group_562" transform="translate(128.109 62.69)">
        <g id="Group_561">
            <path id="Rectangle_369" d="M0 0H2.54V5.081H0z" class="cls-1"/>
        </g>
    </g>
    <g id="Group_564" transform="translate(123.028 62.69)">
        <g id="Group_563">
            <path id="Rectangle_370" d="M0 0H2.54V5.081H0z" class="cls-1"/>
        </g>
    </g>
    <g id="Group_566" transform="translate(117.947 62.69)">
        <g id="Group_565">
            <path id="Rectangle_371" d="M0 0H2.54V5.081H0z" class="cls-1"/>
        </g>
    </g>
    <g id="Group_568" transform="translate(112.866 62.69)">
        <g id="Group_567">
            <path id="Rectangle_372" d="M0 0H2.54V5.081H0z" class="cls-1"/>
        </g>
    </g>
    <g id="Group_570" transform="translate(105.88 48.717)">
        <g id="Group_569">
            <path id="Rectangle_373" d="M0 0H2.54V4.4H0z" class="cls-1"/>
        </g>
    </g>
    <g id="Group_572" transform="translate(96.412 65.865)">
        <g id="Group_571">
            <ellipse id="Ellipse_25" cx="1.27" cy="1.905" class="cls-1" rx="1.27" ry="1.905"/>
        </g>
    </g>
    <g id="Group_574" transform="translate(105.273 65.865)">
        <g id="Group_573">
            <ellipse id="Ellipse_26" cx="1.27" cy="1.905" class="cls-1" rx="1.27" ry="1.905"/>
        </g>
    </g>
    <g id="Group_576" transform="translate(104.941 16.325)">
        <g id="Group_575">
            <path id="Path_324" d="M1591.416 865.447a.636.636 0 0 1 .636-.636.635.635 0 0 1 .634.636v9.526h-1.271z" class="cls-1" transform="translate(-1591.416 -864.811)"/>
        </g>
    </g>
    <g id="Group_578" transform="translate(100.164 16.325)">
        <g id="Group_577">
            <path id="Path_325" d="M1589.119 866.716a1.9 1.9 0 0 1 3.81 0v8.257h-3.81z" class="cls-1" transform="translate(-1589.119 -864.811)"/>
        </g>
    </g>
    <g id="Group_580" transform="translate(100.799 48.717)">
        <g id="Group_579">
            <path id="Rectangle_374" d="M0 0H2.54V4.4H0z" class="cls-1"/>
        </g>
    </g>
    <g id="Group_582" transform="translate(100.164 65.865)">
        <g id="Group_581">
            <circle id="Ellipse_27" cx="1.905" cy="1.905" r="1.905" class="cls-1"/>
        </g>
    </g>
    <g id="Group_584" transform="translate(97.927 16.325)">
        <g id="Group_583">
            <path id="Path_326" d="M1588.043 865.447a.637.637 0 0 1 .636-.636.636.636 0 0 1 .634.636v9.526h-1.271z" class="cls-1" transform="translate(-1588.043 -864.811)"/>
        </g>
    </g>
    <g id="Group_586" transform="translate(95.718 48.717)">
        <g id="Group_585">
            <path id="Rectangle_375" d="M0 0H2.54V4.4H0z" class="cls-1"/>
        </g>
    </g>
    <g id="Group_588" transform="translate(51.67 31.343)">
        <g id="Group_587">
            <path id="Path_327" d="M1610.705 887.727H1565.8v-15.694h44.907zm-43.188-1.72h41.47v-12.254h-41.47z" class="cls-1" transform="translate(-1565.798 -872.033)"/>
        </g>
    </g>
    <g id="Group_590" transform="translate(57.431 48.717)">
        <g id="Group_589">
            <path id="Rectangle_376" d="M0 0H1.903V7.622H0z" class="cls-1"/>
        </g>
    </g>
    <g id="Group_592" transform="translate(61.823 48.717)">
        <g id="Group_591">
            <path id="Rectangle_377" d="M0 0H1.903V7.622H0z" class="cls-1"/>
        </g>
    </g>
    <g id="Group_594" transform="translate(66.268 48.717)">
        <g id="Group_593">
            <path id="Rectangle_378" d="M0 0H1.903V7.622H0z" class="cls-1"/>
        </g>
    </g>
    <g id="Group_596" transform="translate(70.711 48.717)">
        <g id="Group_595">
            <path id="Rectangle_379" d="M0 0H1.903V7.622H0z" class="cls-1"/>
        </g>
    </g>
    <g id="Group_598" transform="translate(75.155 48.717)">
        <g id="Group_597">
            <path id="Rectangle_380" d="M0 0H1.903V7.622H0z" class="cls-1"/>
        </g>
    </g>
    <g id="Group_600" transform="translate(79.599 48.717)">
        <g id="Group_599">
            <path id="Rectangle_381" d="M0 0H1.903V7.622H0z" class="cls-1"/>
        </g>
    </g>
    <g id="Group_602" transform="translate(84.043 48.717)">
        <g id="Group_601">
            <path id="Rectangle_382" d="M0 0H1.903V7.622H0z" class="cls-1"/>
        </g>
    </g>
    <g id="Group_604" transform="translate(88.487 48.717)">
        <g id="Group_603">
            <path id="Rectangle_383" d="M0 0H1.903V7.622H0z" class="cls-1"/>
        </g>
    </g>
    <g id="Group_606" transform="translate(49.989 48.717)">
        <g id="Group_605">
            <path id="Rectangle_384" d="M0 0H2.541V4.4H0z" class="cls-1"/>
        </g>
    </g>
    <g id="Group_608" transform="translate(40.521 65.865)">
        <g id="Group_607">
            <ellipse id="Ellipse_28" cx="1.27" cy="1.905" class="cls-1" rx="1.27" ry="1.905"/>
        </g>
    </g>
    <g id="Group_610" transform="translate(49.382 65.865)">
        <g id="Group_609">
            <ellipse id="Ellipse_29" cx="1.27" cy="1.905" class="cls-1" rx="1.27" ry="1.905"/>
        </g>
    </g>
    <g id="Group_612" transform="translate(49.05 16.325)">
        <g id="Group_611">
            <path id="Path_328" d="M1564.538 865.447a.637.637 0 0 1 .636-.636.635.635 0 0 1 .634.636v9.526h-1.271z" class="cls-1" transform="translate(-1564.538 -864.811)"/>
        </g>
    </g>
    <g id="Group_614" transform="translate(44.273 16.325)">
        <g id="Group_613">
            <path id="Path_329" d="M1562.241 866.716a1.9 1.9 0 0 1 3.81 0v8.257h-3.81z" class="cls-1" transform="translate(-1562.241 -864.811)"/>
        </g>
    </g>
    <g id="Group_616" transform="translate(44.908 48.717)">
        <g id="Group_615">
            <path id="Rectangle_385" d="M0 0H2.54V4.4H0z" class="cls-1"/>
        </g>
    </g>
    <g id="Group_618" transform="translate(44.273 65.865)">
        <g id="Group_617">
            <circle id="Ellipse_30" cx="1.905" cy="1.905" r="1.905" class="cls-1"/>
        </g>
    </g>
    <g id="Group_620" transform="translate(42.036 16.325)">
        <g id="Group_619">
            <path id="Path_330" d="M1561.165 865.447a.636.636 0 0 1 .634-.636.636.636 0 0 1 .636.636v9.526h-1.27z" class="cls-1" transform="translate(-1561.165 -864.811)"/>
        </g>
    </g>
    <g id="Group_622" transform="translate(39.827 48.717)">
        <g id="Group_621">
            <path id="Rectangle_386" d="M0 0H2.54V4.4H0z" class="cls-1"/>
        </g>
    </g>
    <g id="Group_624" transform="translate(32.841 62.69)">
        <g id="Group_623">
            <path id="Rectangle_387" d="M0 0H2.54V5.081H0z" class="cls-1"/>
        </g>
    </g>
    <g id="Group_626" transform="translate(27.76 62.69)">
        <g id="Group_625">
            <path id="Rectangle_388" d="M0 0H2.54V5.081H0z" class="cls-1"/>
        </g>
    </g>
    <g id="Group_628" transform="translate(22.679 62.69)">
        <g id="Group_627">
            <path id="Rectangle_389" d="M0 0H2.54V5.081H0z" class="cls-1"/>
        </g>
    </g>
    <g id="Group_630" transform="translate(17.598 62.69)">
        <g id="Group_629">
            <path id="Rectangle_390" d="M0 0H2.54V5.081H0z" class="cls-1"/>
        </g>
    </g>
    <g id="Group_632" transform="translate(12.517 62.69)">
        <g id="Group_631">
            <path id="Rectangle_391" d="M0 0H2.54V5.081H0z" class="cls-1"/>
        </g>
    </g>
    <g id="Group_634" transform="translate(7.436 62.69)">
        <g id="Group_633">
            <path id="Rectangle_392" d="M0 0H2.541V5.081H0z" class="cls-1"/>
        </g>
    </g>
    <g id="Group_636" transform="translate(17.374 88.507)">
        <g id="Group_635">
            <path id="Path_331" d="M1563.726 925.377h-14.421v-16.962h1.271v-2.953a5.94 5.94 0 0 1 11.88 0v2.953h1.27zm-12.7-1.72h10.983v-13.525h-1.268v-4.67a4.222 4.222 0 0 0-8.445 0v4.67h-1.271z" class="cls-1" transform="translate(-1549.305 -899.523)"/>
        </g>
    </g>
    <g id="Group_638" transform="translate(57.694 66.501)">
        <g id="Group_637">
            <circle id="Ellipse_31" cx="2.54" cy="2.54" r="2.54" class="cls-1"/>
        </g>
    </g>
    <g id="Group_640" transform="translate(85.556 66.501)">
        <g id="Group_639">
            <circle id="Ellipse_32" cx="2.54" cy="2.54" r="2.54" class="cls-1"/>
        </g>
    </g>
    <g id="Group_642" transform="translate(116.452 88.507)">
        <g id="Group_641">
            <path id="Path_332" d="M1611.375 925.377h-14.423v-16.962h1.27v-2.953a5.94 5.94 0 0 1 11.88 0v2.953h1.272zm-12.7-1.72h10.983v-13.525h-1.271v-4.67a4.221 4.221 0 1 0-8.442 0v4.67h-1.27z" class="cls-1" transform="translate(-1596.952 -899.523)"/>
        </g>
    </g>
    <g id="Group_644" transform="translate(15.691 74.774)">
        <g id="Group_643">
            <path id="Path_333" d="M1550.994 894.169a1.249 1.249 0 1 1-1.248-1.25 1.249 1.249 0 0 1 1.248 1.25z" class="cls-1" transform="translate(-1548.496 -892.919)"/>
        </g>
    </g>
    <g id="Group_646" transform="translate(30.979 74.774)">
        <g id="Group_645">
            <path id="Path_334" d="M1558.345 894.169a1.249 1.249 0 1 1-1.25-1.25 1.249 1.249 0 0 1 1.25 1.25z" class="cls-1" transform="translate(-1555.848 -892.919)"/>
        </g>
    </g>
    <g id="Group_648" transform="translate(130.058 74.774)">
        <g id="Group_647">
            <path id="Path_335" d="M1605.993 894.169a1.249 1.249 0 1 1-1.248-1.25 1.249 1.249 0 0 1 1.248 1.25z" class="cls-1" transform="translate(-1603.495 -892.919)"/>
        </g>
    </g>
    <g id="Group_650" transform="translate(114.772 74.774)">
        <g id="Group_649">
            <path id="Path_336" d="M1598.641 894.169a1.249 1.249 0 1 1-1.25-1.25 1.249 1.249 0 0 1 1.25 1.25z" class="cls-1" transform="translate(-1596.144 -892.919)"/>
        </g>
    </g>
    <g id="Group_652" transform="translate(5.53 112.64)">
        <g id="Group_651">
            <path id="Rectangle_393" d="M0 0H137.187V1.719H0z" class="cls-1"/>
        </g>
    </g>
</svg>
