<svg xmlns="http://www.w3.org/2000/svg" id="Group_230" width="175.433" height="157.267" viewBox="0 0 93.768 171.465">
    <defs>
        <style>
            .cls-1{fill:#989898}
        </style>
    </defs>
    <g id="Group_204" transform="translate(0 161.865)">
        <path id="Path_104" d="M2254.566 934.3H2160.8v-9.6h93.768zm-92.314-1.453h90.858v-6.694h-90.858z" class="cls-1" transform="translate(-2160.798 -924.704)"/>
    </g>
    <g id="Group_205" transform="translate(5.04 150.609)">
        <path id="Path_105" d="M2247.16 932h-83.938v-12.709h83.938zm-82.484-1.454h81.031v-9.8h-81.031z" class="cls-1" transform="translate(-2163.222 -919.291)"/>
    </g>
    <g id="Group_206" transform="translate(9.126 166.119)">
        <path id="Rectangle_285" d="M0 0H75.598V4.62H0z" class="cls-1"/>
    </g>
    <g id="Group_207" transform="translate(84.724 167.799)">
        <path id="Rectangle_286" d="M0 0H4.62V2.94H0z" class="cls-1"/>
    </g>
    <g id="Group_208" transform="translate(5.031 167.799)">
        <path id="Rectangle_287" d="M0 0H4.62V2.94H0z" class="cls-1"/>
    </g>
    <g id="Group_209" transform="translate(19.59 154.634)">
        <path id="Path_106" d="M2187.608 926.6h-15.945a1.444 1.444 0 0 0-1.443-1.445v-2.485a1.444 1.444 0 0 0 1.443-1.443h15.945a1.444 1.444 0 0 0 1.442 1.443v2.485a1.444 1.444 0 0 0-1.442 1.445z" class="cls-1" transform="translate(-2170.219 -921.227)"/>
    </g>
    <g id="Group_210" transform="translate(55.681 154.634)">
        <path id="Path_107" d="M2204.963 926.6h-15.945a1.444 1.444 0 0 0-1.443-1.445v-2.485a1.444 1.444 0 0 0 1.443-1.443h15.945a1.444 1.444 0 0 0 1.443 1.443v2.485a1.444 1.444 0 0 0-1.443 1.445z" class="cls-1" transform="translate(-2187.575 -921.227)"/>
    </g>
    <g id="Group_211" transform="translate(39.617 154.634)">
        <path id="Path_108" d="M2193.185 926.6h-11.892a1.444 1.444 0 0 0-1.443-1.445v-2.485a1.444 1.444 0 0 0 1.443-1.443h11.892a1.445 1.445 0 0 0 1.445 1.443v2.485a1.445 1.445 0 0 0-1.445 1.445z" class="cls-1" transform="translate(-2179.85 -921.227)"/>
    </g>
    <g id="Group_212" transform="translate(16.419)">
        <path id="Path_109" d="M2229.914 998.925h-61.22v-9.274l.651-.071c.123-.015 12.53-1.6 17.135-21.782 4.713-20.674 4.6-45.781 4.6-46.032.013-.293 1.244-25.442.006-34.259-1.239-8.846-7.565-33.273-7.627-33.518l-.12-.466 4.144-3.19 9.141 8.52v-11.99h4.729V859.1l9.245-8.01 4.652 2.327-.139.564c-.067.258-6.388 25.729-7.128 30.43a224.548 224.548 0 0 0-1.253 27.989c.336 6.55 1.262 22.086 1.262 22.086l2.938 28.528c.015.239 1.529 21.11 18.486 26.683l.5.162zm-59.765-1.453h58.312v-6.563c-17.432-6.122-18.971-27.557-18.983-27.777l-2.938-28.532c0-.033-.928-15.577-1.265-22.131a227.085 227.085 0 0 1 1.269-28.289c.7-4.425 6.049-26.093 7.014-29.987l-2.741-1.37-10.917 9.461v-13.97h-1.821V862.2l-10.682-9.96-2.408 1.853c.888 3.446 6.386 24.974 7.54 33.215 1.258 8.952.058 33.452.006 34.491 0 .212.117 25.483-4.637 46.326-4.292 18.819-14.967 22.223-17.748 22.8z" class="cls-1" transform="translate(-2168.694 -846.863)"/>
    </g>
    <g id="Group_213" transform="translate(45.497 .728)">
        <path id="Path_110" d="M2182.677 849.019v148.8h3.15V847.213z" class="cls-1" transform="translate(-2182.677 -847.213)"/>
    </g>
    <g id="Group_214" transform="translate(31.875 141.998)">
        <path id="Path_111" d="M2206.6 925.214h-30.476V915.15h30.476zm-29.022-1.453h27.569v-7.155h-27.569z" class="cls-1" transform="translate(-2176.127 -915.15)"/>
    </g>
    <g id="Group_215" transform="translate(29.497 133.685)">
        <path id="Rectangle_288" d="M0 0H35.385V1.454H0z" class="cls-1"/>
    </g>
    <g id="Group_216" transform="translate(33.502 125.386)">
        <path id="Rectangle_289" d="M0 0H26.527V1.454H0z" class="cls-1"/>
    </g>
    <g id="Group_217" transform="translate(35.752 116.402)">
        <path id="Rectangle_290" d="M0 0H22.295V1.454H0z" class="cls-1"/>
    </g>
    <g id="Group_218" transform="translate(37.33 108.504)">
        <path id="Rectangle_291" d="M0 0H19.137V1.454H0z" class="cls-1"/>
    </g>
    <g id="Group_219" transform="translate(37.33 99.413)">
        <path id="Rectangle_292" d="M0 0H19.137V1.454H0z" class="cls-1"/>
    </g>
    <g id="Group_220" transform="translate(38.725 90.803)">
        <path id="Rectangle_293" d="M0 0H16.347V1.454H0z" class="cls-1"/>
    </g>
    <g id="Group_221" transform="translate(38.725 82.361)">
        <path id="Rectangle_294" d="M0 0H16.347V1.454H0z" class="cls-1"/>
    </g>
    <g id="Group_222" transform="translate(38.725 73.92)">
        <path id="Rectangle_295" d="M0 0H16.347V1.454H0z" class="cls-1"/>
    </g>
    <g id="Group_223" transform="translate(39.397 65.184)">
        <path id="Rectangle_296" d="M0 0H15.003V1.454H0z" class="cls-1"/>
    </g>
    <g id="Group_224" transform="translate(39.397 56.7)">
        <path id="Rectangle_297" d="M0 0H15.003V1.454H0z" class="cls-1"/>
    </g>
    <g id="Group_225" transform="translate(39.397 48.215)">
        <path id="Rectangle_298" d="M0 0H15.003V1.454H0z" class="cls-1"/>
    </g>
    <g id="Group_226" transform="translate(39.397 39.479)">
        <path id="Rectangle_299" d="M0 0H15.003V1.454H0z" class="cls-1"/>
    </g>
    <g id="Group_227" transform="translate(38.095 31.415)">
        <path id="Rectangle_300" d="M0 0H17.608V1.454H0z" class="cls-1"/>
    </g>
    <g id="Group_228" transform="translate(35.715 22.344)">
        <path id="Rectangle_301" d="M0 0H22.368V1.454H0z" class="cls-1"/>
    </g>
    <g id="Group_229" transform="translate(33.475 13.777)">
        <path id="Rectangle_302" d="M0 0H26.848V1.454H0z" class="cls-1"/>
    </g>
</svg>
