<svg xmlns="http://www.w3.org/2000/svg" width="1920" height="919"  xmlns:v="https://vecta.io/nano"><style>.A{mix-blend-mode:overlay;isolation:isolate}</style><defs><linearGradient id="A" x1=".611" x2=".278" y1=".246" y2="1.008"><stop offset="0" stop-color="#b11220"/><stop offset=".002" stop-color="#b11220"/><stop offset="1" stop-color="#ec4119"/></linearGradient><linearGradient id="B" x1=".47" x2=".604" y1=".596" y2="-.168"><stop offset="0" stop-color="#3c3c3d"/><stop offset="1" stop-color="#262626"/></linearGradient><linearGradient id="C" x1="34.685" x2="34.1" y1="-41.825" y2="-43.029"><stop offset="0" stop-color="#b11220"/><stop offset=".002" stop-color="#f4263d"/><stop offset="1" stop-color="#ff3000"/></linearGradient><clipPath id="D"><path fill="#363737" d="M0 0H1920V919H0z" transform="translate(0 168)"/></clipPath></defs><g clip-path="url(#D)" transform="translate(0 -168)"><g transform="rotate(135 440.608 701.218)"><path fill="url(#A)" d="M1433.077 1333.685a317.26 317.26 0 0 1-185.389 211.351c-91.342 37.73-195.049 30.738-280.5-18.91l-808.4-466.29C64.088 1004.53.03 901.93.03 784.537c0-175.136 142.45-317.588 317.585-317.588 58.26-.08 115.401 15.993 165.076 46.433l802.288 462.728-.2.266c124.774 71.662 185.658 218.353 148.3 357.308z"/><g fill="url(#B)"><path d="M1000.335 811.961L486.3 1078.312c-49.588 25.414-105.004 37.646-160.73 35.056-100.163-4.6-187.5-55.3-242.35-130.678 93.719 53.977 208.494 56.431 304.435 6.51l.13.461 484.9-251.354z" class="A"/><path d="M1000.335 811.961L486.3 1078.312c-49.588 25.414-105.004 37.646-160.73 35.056-100.163-4.6-187.5-55.3-242.35-130.678 93.719 53.977 208.494 56.431 304.435 6.51l.13.461 484.9-251.354z" class="A"/></g><path fill="url(#C)" d="M1433.05 235.444A317.26 317.26 0 0 0 967.357 42.815l-.066-.13-800.771 462.53C67.411 559.015 0 664.038 0 784.525c0 175.136 142.449 317.588 317.584 317.588 55.772.056 110.559-14.697 158.762-42.751l.2.4 808.4-467.203c124.637-71.681 185.428-218.264 148.105-357.114z"/></g></g></svg>