<svg xmlns="http://www.w3.org/2000/svg" width="1920" height="919" viewBox="0 0 1920 919">
    <defs>
        <linearGradient id="linear-gradient" x1=".611" x2=".278" y1=".246" y2="1.008" gradientUnits="objectBoundingBox">
            <stop offset="0" stop-color="#b11220"/>
            <stop offset=".002" stop-color="#b11220"/>
            <stop offset="1" stop-color="#ec4119"/>
        </linearGradient>
        <linearGradient id="linear-gradient-2" x1=".47" x2=".604" y1=".596" y2="-.168" gradientUnits="objectBoundingBox">
            <stop offset="0" stop-color="#3c3c3d"/>
            <stop offset="1" stop-color="#262626"/>
        </linearGradient>
        <linearGradient id="linear-gradient-4" x1="34.685" x2="34.1" y1="-41.825" y2="-43.029" gradientUnits="objectBoundingBox">
            <stop offset="0" stop-color="#b11220"/>
            <stop offset=".002" stop-color="#f4263d"/>
            <stop offset="1" stop-color="#ff3000"/>
        </linearGradient>
        <clipPath id="clip-path">
            <path id="Rectangle_409" fill="#363737" d="M0 0H1920V919H0z" transform="translate(0 168)"/>
        </clipPath>
        <style>
            .cls-4{mix-blend-mode:overlay;isolation:isolate;fill:url(#linear-gradient-2)}
        </style>
    </defs>
    <g id="Mask_Group_40" clip-path="url(#clip-path)" transform="translate(0 -168)">
        <g id="Group_416" transform="rotate(135 440.608 701.218)">
            <path id="Path_346" fill="url(#linear-gradient)" d="M1731.522 1535.32a317.255 317.255 0 0 1-465.889 192.441l-808.4-466.29.2-.332c-94.9-54.974-158.958-157.574-158.958-274.967 0-175.136 142.45-317.588 317.585-317.588a315.114 315.114 0 0 1 165.076 46.433l390 224.926 127.651 73.654 284.637 164.148-.2.266a317.105 317.105 0 0 1 148.3 357.308z" transform="translate(-298.445 -201.635)"/>
            <g id="Group_415" transform="translate(83.221 738.307)">
                <path id="Path_347" d="M1228.235 783.5L714.2 1049.851l-.13-.393a315.494 315.494 0 0 1-160.6 35.449c-100.163-4.6-187.5-55.3-242.35-130.678a316.9 316.9 0 0 0 304.435 6.51l.13.461 484.9-251.354z" class="cls-4" transform="translate(-311.121 -709.846)"/>
                <path id="Path_348" d="M1228.235 783.5L714.2 1049.851l-.13-.393a315.494 315.494 0 0 1-160.6 35.449c-100.163-4.6-187.5-55.3-242.35-130.678a316.9 316.9 0 0 0 304.435 6.51l.13.461 484.9-251.354z" class="cls-4" transform="translate(-311.121 -709.846)"/>
            </g>
            <path id="Path_349" fill="url(#linear-gradient-4)" d="M1731.517 833.029A317.258 317.258 0 0 0 1265.824 640.4l-.066-.13-800.771 462.53c-99.109 53.8-166.52 158.823-166.52 279.31 0 175.136 142.449 317.588 317.584 317.588a314.985 314.985 0 0 0 158.762-42.751l.2.4 808.467-467.073-.067-.13a317.026 317.026 0 0 0 148.105-357.114z" transform="translate(-298.467 -597.585)"/>
        </g>
    </g>
</svg>
