<svg xmlns="http://www.w3.org/2000/svg" width="375" height="751" viewBox="0 0 375 751">
    <defs>
        <linearGradient id="linear-gradient" x1=".611" x2=".278" y1=".246" y2="1.008" gradientUnits="objectBoundingBox">
            <stop offset="0" stop-color="#b11220"/>
            <stop offset=".002" stop-color="#b11220"/>
            <stop offset="1" stop-color="#ec4119"/>
        </linearGradient>
        <linearGradient id="linear-gradient-2" x1=".47" x2=".604" y1=".596" y2="-.168" gradientUnits="objectBoundingBox">
            <stop offset="0" stop-color="#3c3c3d"/>
            <stop offset="1" stop-color="#262626"/>
        </linearGradient>
        <linearGradient id="linear-gradient-4" x1="34.685" x2="34.1" y1="-41.825" y2="-43.029" gradientUnits="objectBoundingBox">
            <stop offset="0" stop-color="#b11220"/>
            <stop offset=".002" stop-color="#f4263d"/>
            <stop offset="1" stop-color="#ff3000"/>
        </linearGradient>
        <clipPath id="clip-path">
            <path id="Rectangle_414" fill="#363737" d="M0 0H375V751H0z" transform="translate(0 336)"/>
        </clipPath>
        <style>
            .cls-4{mix-blend-mode:overlay;isolation:isolate;fill:url(#linear-gradient-2)}
        </style>
    </defs>
    <g id="Mask_Group_41" clip-path="url(#clip-path)" transform="translate(0 -336)">
        <g id="Group_579" transform="scale(-1) rotate(-24 -2340.793 626.516)">
            <path id="Path_1212" fill="url(#linear-gradient)" d="M1028.782 1110.29a161.68 161.68 0 0 1-237.426 98.072L379.378 970.731l.1-.169a161.916 161.916 0 0 1-81.008-140.129c0-89.253 72.6-161.849 161.848-161.849a160.588 160.588 0 0 1 84.126 23.663l198.75 114.627 65.054 37.535L953.3 928.063l-.1.136a161.6 161.6 0 0 1 75.578 182.091z" transform="translate(-298.458 -430.618)"/>
            <g id="Group_578" transform="translate(42.411 376.256)">
                <path id="Path_1213" d="M778.5 747.381L516.54 883.119l-.066-.2a161.527 161.527 0 0 1-205.353-48.531 161.5 161.5 0 0 0 155.146 3.317l.066.235 247.113-128.094z" class="cls-4" transform="translate(-311.121 -709.846)"/>
                <path id="Path_1214" d="M778.5 747.381L516.54 883.119l-.066-.2a161.527 161.527 0 0 1-205.353-48.531 161.5 161.5 0 0 0 155.146 3.317l.066.235 247.113-128.094z" class="cls-4" transform="translate(-311.121 -709.846)"/>
            </g>
            <path id="Path_1215" fill="url(#linear-gradient-4)" d="M1028.778 717.572A161.681 161.681 0 0 0 791.452 619.4l-.034-.066-408.089 235.72A161.966 161.966 0 0 0 298.467 997.4c0 89.253 72.595 161.849 161.847 161.849a160.522 160.522 0 0 0 80.908-21.787l.1.2 412.011-238.03-.034-.066a161.563 161.563 0 0 0 75.478-181.992z" transform="translate(-298.467 -597.585)"/>
        </g>
    </g>
</svg>
