<svg width="64" height="64" viewBox="0 0 64 64" fill="none" xmlns="https://www.w3.org/2000/svg">
<rect width="64" height="64" rx="8" fill="#41B2F1"/>
<path fill-rule="evenodd" clip-rule="evenodd" d="M43.9999 45.3333H46.6666V48H17.3333V45.3333H19.9999V16H43.9999V45.3333ZM30.6666 41.3333H27.9999V46.6667H30.6666V41.3333ZM35.9999 41.3333H33.3333V46.6667H35.9999V41.3333ZM41.3333 18.6667H22.6666V45.3333H25.3333V38.6667H38.6666V45.3333H41.3333V18.6667ZM25.3333 33.3333H27.9999V36H25.3333V33.3333ZM30.6666 33.3333H33.3333V36H30.6666V33.3333ZM35.9999 33.3333H38.6666V36H35.9999V33.3333ZM25.3333 29.3333H27.9999V32H25.3333V29.3333ZM30.6666 29.3333H33.3333V32H30.6666V29.3333ZM35.9999 29.3333H38.6666V32H35.9999V29.3333ZM25.3333 25.3333H27.9999V28H25.3333V25.3333ZM30.6666 25.3333H33.3333V28H30.6666V25.3333ZM35.9999 25.3333H38.6666V28H35.9999V25.3333ZM25.3333 21.3333H27.9999V24H25.3333V21.3333ZM30.6666 21.3333H33.3333V24H30.6666V21.3333ZM35.9999 21.3333H38.6666V24H35.9999V21.3333Z" fill="white"/>
</svg>
