<svg width="40" height="40" viewBox="0 0 40 40" fill="none" xmlns="http://www.w3.org/2000/svg">
<rect width="40" height="40" rx="8" fill="#41B2F1"/>
<path d="M29.739 21.921C28.392 21.531 27.854 21.383 26.187 21C26.187 21 23.808 18.641 23.355 18.184C22.787 17.612 22.312 17 20.406 17H12.512C12.001 17 11.777 17.547 12.443 18C11.7 18.602 10.823 19.38 10.185 20.027C8.749 21.482 8 22.412 8 24.282C8 26.042 9.042 28 11.174 28H11.184C11.597 29.162 12.696 30 14 30C15.304 30 16.403 29.162 16.816 28H23.183C23.596 29.162 24.695 30 25.999 30C27.303 30 28.402 29.162 28.815 28H29.5C31.494 28 32 26.224 32 24.835C32 22.794 30.877 22.251 29.739 21.921ZM14 28.2C13.338 28.2 12.8 27.662 12.8 27C12.8 26.338 13.338 25.8 14 25.8C14.662 25.8 15.2 26.338 15.2 27C15.2 27.662 14.662 28.2 14 28.2ZM17.576 22C16.505 22 14.076 21.894 12.357 21.25C12.935 20.5 13.355 20.028 13.627 19.714C13.945 19.346 14.5 19 15.188 19H17.576V22ZM18.576 19H20.411C21.293 19 21.839 19.493 22.433 20.105C22.885 20.571 24.165 22 24.165 22H18.577V19H18.576ZM26 28.2C25.338 28.2 24.8 27.662 24.8 27C24.8 26.338 25.338 25.8 26 25.8C26.662 25.8 27.2 26.338 27.2 27C27.2 27.662 26.662 28.2 26 28.2ZM22.375 13.5C22.375 13.776 22.151 14 21.875 14H20V15H18.111C17.268 15 16.523 14.583 16.07 13.943C15.652 13.353 14.971 13 14.248 13H14.229C10.212 13 8.974 16.215 10.727 18.254L9.992 18.931C7.651 16.252 9.329 12 14.229 12H14.248C14.972 12 15.652 11.648 16.07 11.057C16.523 10.417 17.268 10 18.111 10H20V11H21.875C22.151 11 22.375 11.224 22.375 11.5C22.375 11.776 22.151 12 21.875 12H20V13H21.875C22.151 13 22.375 13.224 22.375 13.5Z" fill="white"/>
</svg>
