<svg width="290" height="505" viewBox="0 0 290 505" fill="none" xmlns="http://www.w3.org/2000/svg">
<path opacity="0.2" fill-rule="evenodd" clip-rule="evenodd" d="M288.5 5C287.119 5 286 3.88071 286 2.5C286 1.11929 287.119 0 288.5 0C289.881 0 291 1.11929 291 2.5C291 3.88071 289.881 5 288.5 5ZM262.5 5C261.119 5 260 3.88071 260 2.5C260 1.11929 261.119 0 262.5 0C263.881 0 265 1.11929 265 2.5C265 3.88071 263.881 5 262.5 5ZM210.5 5C209.119 5 208 3.88071 208 2.5C208 1.11929 209.119 0 210.5 0C211.881 0 213 1.11929 213 2.5C213 3.88071 211.881 5 210.5 5ZM234 2.5C234 3.88071 235.119 5 236.5 5C237.881 5 239 3.88071 239 2.5C239 1.11929 237.881 0 236.5 0C235.119 0 234 1.11929 234 2.5ZM208 22.5C208 23.8807 209.119 25 210.5 25C211.881 25 213 23.8807 213 22.5C213 21.1193 211.881 20 210.5 20C209.119 20 208 21.1193 208 22.5ZM158.5 25C157.119 25 156 23.8807 156 22.5C156 21.1193 157.119 20 158.5 20C159.881 20 161 21.1193 161 22.5C161 23.8807 159.881 25 158.5 25ZM260 22.5C260 23.8807 261.119 25 262.5 25C263.881 25 265 23.8807 265 22.5C265 21.1193 263.881 20 262.5 20C261.119 20 260 21.1193 260 22.5ZM236.5 25C235.119 25 234 23.8807 234 22.5C234 21.1193 235.119 20 236.5 20C237.881 20 239 21.1193 239 22.5C239 23.8807 237.881 25 236.5 25ZM182 22.5C182 23.8807 183.119 25 184.5 25C185.881 25 187 23.8807 187 22.5C187 21.1193 185.881 20 184.5 20C183.119 20 182 21.1193 182 22.5ZM288.5 25C287.119 25 286 23.8807 286 22.5C286 21.1193 287.119 20 288.5 20C289.881 20 291 21.1193 291 22.5C291 23.8807 289.881 25 288.5 25ZM104 62.5C104 63.8807 105.119 65 106.5 65C107.881 65 109 63.8807 109 62.5C109 61.1193 107.881 60 106.5 60C105.119 60 104 61.1193 104 62.5ZM210.5 65C209.119 65 208 63.8807 208 62.5C208 61.1193 209.119 60 210.5 60C211.881 60 213 61.1193 213 62.5C213 63.8807 211.881 65 210.5 65ZM156 62.5C156 63.8807 157.119 65 158.5 65C159.881 65 161 63.8807 161 62.5C161 61.1193 159.881 60 158.5 60C157.119 60 156 61.1193 156 62.5ZM262.5 65C261.119 65 260 63.8807 260 62.5C260 61.1193 261.119 60 262.5 60C263.881 60 265 61.1193 265 62.5C265 63.8807 263.881 65 262.5 65ZM130 62.5C130 63.8807 131.119 65 132.5 65C133.881 65 135 63.8807 135 62.5C135 61.1193 133.881 60 132.5 60C131.119 60 130 61.1193 130 62.5ZM236.5 65C235.119 65 234 63.8807 234 62.5C234 61.1193 235.119 60 236.5 60C237.881 60 239 61.1193 239 62.5C239 63.8807 237.881 65 236.5 65ZM78 62.5C78 63.8807 79.1193 65 80.5 65C81.8807 65 83 63.8807 83 62.5C83 61.1193 81.8807 60 80.5 60C79.1193 60 78 61.1193 78 62.5ZM184.5 65C183.119 65 182 63.8807 182 62.5C182 61.1193 183.119 60 184.5 60C185.881 60 187 61.1193 187 62.5C187 63.8807 185.881 65 184.5 65ZM286 62.5C286 63.8807 287.119 65 288.5 65C289.881 65 291 63.8807 291 62.5C291 61.1193 289.881 60 288.5 60C287.119 60 286 61.1193 286 62.5ZM106.5 85C105.119 85 104 83.8807 104 82.5C104 81.1193 105.119 80 106.5 80C107.881 80 109 81.1193 109 82.5C109 83.8807 107.881 85 106.5 85ZM208 82.5C208 83.8807 209.119 85 210.5 85C211.881 85 213 83.8807 213 82.5C213 81.1193 211.881 80 210.5 80C209.119 80 208 81.1193 208 82.5ZM158.5 85C157.119 85 156 83.8807 156 82.5C156 81.1193 157.119 80 158.5 80C159.881 80 161 81.1193 161 82.5C161 83.8807 159.881 85 158.5 85ZM260 82.5C260 83.8807 261.119 85 262.5 85C263.881 85 265 83.8807 265 82.5C265 81.1193 263.881 80 262.5 80C261.119 80 260 81.1193 260 82.5ZM132.5 85C131.119 85 130 83.8807 130 82.5C130 81.1193 131.119 80 132.5 80C133.881 80 135 81.1193 135 82.5C135 83.8807 133.881 85 132.5 85ZM234 82.5C234 83.8807 235.119 85 236.5 85C237.881 85 239 83.8807 239 82.5C239 81.1193 237.881 80 236.5 80C235.119 80 234 81.1193 234 82.5ZM80.5 85C79.1193 85 78 83.8807 78 82.5C78 81.1193 79.1193 80 80.5 80C81.8807 80 83 81.1193 83 82.5C83 83.8807 81.8807 85 80.5 85ZM182 82.5C182 83.8807 183.119 85 184.5 85C185.881 85 187 83.8807 187 82.5C187 81.1193 185.881 80 184.5 80C183.119 80 182 81.1193 182 82.5ZM288.5 85C287.119 85 286 83.8807 286 82.5C286 81.1193 287.119 80 288.5 80C289.881 80 291 81.1193 291 82.5C291 83.8807 289.881 85 288.5 85ZM104 102.5C104 103.881 105.119 105 106.5 105C107.881 105 109 103.881 109 102.5C109 101.119 107.881 100 106.5 100C105.119 100 104 101.119 104 102.5ZM210.5 105C209.119 105 208 103.881 208 102.5C208 101.119 209.119 100 210.5 100C211.881 100 213 101.119 213 102.5C213 103.881 211.881 105 210.5 105ZM52 102.5C52 103.881 53.1193 105 54.5 105C55.8807 105 57 103.881 57 102.5C57 101.119 55.8807 100 54.5 100C53.1193 100 52 101.119 52 102.5ZM158.5 105C157.119 105 156 103.881 156 102.5C156 101.119 157.119 100 158.5 100C159.881 100 161 101.119 161 102.5C161 103.881 159.881 105 158.5 105ZM260 102.5C260 103.881 261.119 105 262.5 105C263.881 105 265 103.881 265 102.5C265 101.119 263.881 100 262.5 100C261.119 100 260 101.119 260 102.5ZM28.5 105C27.1193 105 26 103.881 26 102.5C26 101.119 27.1193 100 28.5 100C29.8807 100 31 101.119 31 102.5C31 103.881 29.8807 105 28.5 105ZM130 102.5C130 103.881 131.119 105 132.5 105C133.881 105 135 103.881 135 102.5C135 101.119 133.881 100 132.5 100C131.119 100 130 101.119 130 102.5ZM236.5 105C235.119 105 234 103.881 234 102.5C234 101.119 235.119 100 236.5 100C237.881 100 239 101.119 239 102.5C239 103.881 237.881 105 236.5 105ZM78 102.5C78 103.881 79.1193 105 80.5 105C81.8807 105 83 103.881 83 102.5C83 101.119 81.8807 100 80.5 100C79.1193 100 78 101.119 78 102.5ZM184.5 105C183.119 105 182 103.881 182 102.5C182 101.119 183.119 100 184.5 100C185.881 100 187 101.119 187 102.5C187 103.881 185.881 105 184.5 105ZM286 102.5C286 103.881 287.119 105 288.5 105C289.881 105 291 103.881 291 102.5C291 101.119 289.881 100 288.5 100C287.119 100 286 101.119 286 102.5ZM2.5 125C1.11929 125 0 123.881 0 122.5C0 121.119 1.11929 120 2.5 120C3.88071 120 5 121.119 5 122.5C5 123.881 3.88071 125 2.5 125ZM104 122.5C104 123.881 105.119 125 106.5 125C107.881 125 109 123.881 109 122.5C109 121.119 107.881 120 106.5 120C105.119 120 104 121.119 104 122.5ZM210.5 125C209.119 125 208 123.881 208 122.5C208 121.119 209.119 120 210.5 120C211.881 120 213 121.119 213 122.5C213 123.881 211.881 125 210.5 125ZM52 122.5C52 123.881 53.1193 125 54.5 125C55.8807 125 57 123.881 57 122.5C57 121.119 55.8807 120 54.5 120C53.1193 120 52 121.119 52 122.5ZM158.5 125C157.119 125 156 123.881 156 122.5C156 121.119 157.119 120 158.5 120C159.881 120 161 121.119 161 122.5C161 123.881 159.881 125 158.5 125ZM26 122.5C26 123.881 27.1193 125 28.5 125C29.8807 125 31 123.881 31 122.5C31 121.119 29.8807 120 28.5 120C27.1193 120 26 121.119 26 122.5ZM132.5 125C131.119 125 130 123.881 130 122.5C130 121.119 131.119 120 132.5 120C133.881 120 135 121.119 135 122.5C135 123.881 133.881 125 132.5 125ZM234 122.5C234 123.881 235.119 125 236.5 125C237.881 125 239 123.881 239 122.5C239 121.119 237.881 120 236.5 120C235.119 120 234 121.119 234 122.5ZM80.5 125C79.1193 125 78 123.881 78 122.5C78 121.119 79.1193 120 80.5 120C81.8807 120 83 121.119 83 122.5C83 123.881 81.8807 125 80.5 125ZM182 122.5C182 123.881 183.119 125 184.5 125C185.881 125 187 123.881 187 122.5C187 121.119 185.881 120 184.5 120C183.119 120 182 121.119 182 122.5ZM210.5 145C209.119 145 208 143.881 208 142.5C208 141.119 209.119 140 210.5 140C211.881 140 213 141.119 213 142.5C213 143.881 211.881 145 210.5 145ZM156 142.5C156 143.881 157.119 145 158.5 145C159.881 145 161 143.881 161 142.5C161 141.119 159.881 140 158.5 140C157.119 140 156 141.119 156 142.5ZM132.5 145C131.119 145 130 143.881 130 142.5C130 141.119 131.119 140 132.5 140C133.881 140 135 141.119 135 142.5C135 143.881 133.881 145 132.5 145ZM234 142.5C234 143.881 235.119 145 236.5 145C237.881 145 239 143.881 239 142.5C239 141.119 237.881 140 236.5 140C235.119 140 234 141.119 234 142.5ZM184.5 145C183.119 145 182 143.881 182 142.5C182 141.119 183.119 140 184.5 140C185.881 140 187 141.119 187 142.5C187 143.881 185.881 145 184.5 145ZM0 162.5C0 163.881 1.11929 165 2.5 165C3.88071 165 5 163.881 5 162.5C5 161.119 3.88071 160 2.5 160C1.11929 160 0 161.119 0 162.5ZM106.5 165C105.119 165 104 163.881 104 162.5C104 161.119 105.119 160 106.5 160C107.881 160 109 161.119 109 162.5C109 163.881 107.881 165 106.5 165ZM52 162.5C52 163.881 53.1193 165 54.5 165C55.8807 165 57 163.881 57 162.5C57 161.119 55.8807 160 54.5 160C53.1193 160 52 161.119 52 162.5ZM158.5 165C157.119 165 156 163.881 156 162.5C156 161.119 157.119 160 158.5 160C159.881 160 161 161.119 161 162.5C161 163.881 159.881 165 158.5 165ZM26 162.5C26 163.881 27.1193 165 28.5 165C29.8807 165 31 163.881 31 162.5C31 161.119 29.8807 160 28.5 160C27.1193 160 26 161.119 26 162.5ZM132.5 165C131.119 165 130 163.881 130 162.5C130 161.119 131.119 160 132.5 160C133.881 160 135 161.119 135 162.5C135 163.881 133.881 165 132.5 165ZM78 162.5C78 163.881 79.1193 165 80.5 165C81.8807 165 83 163.881 83 162.5C83 161.119 81.8807 160 80.5 160C79.1193 160 78 161.119 78 162.5ZM184.5 165C183.119 165 182 163.881 182 162.5C182 161.119 183.119 160 184.5 160C185.881 160 187 161.119 187 162.5C187 163.881 185.881 165 184.5 165ZM208 182.5C208 183.881 209.119 185 210.5 185C211.881 185 213 183.881 213 182.5C213 181.119 211.881 180 210.5 180C209.119 180 208 181.119 208 182.5ZM54.5 185C53.1193 185 52 183.881 52 182.5C52 181.119 53.1193 180 54.5 180C55.8807 180 57 181.119 57 182.5C57 183.881 55.8807 185 54.5 185ZM234 182.5C234 183.881 235.119 185 236.5 185C237.881 185 239 183.881 239 182.5C239 181.119 237.881 180 236.5 180C235.119 180 234 181.119 234 182.5ZM106.5 205C105.119 205 104 203.881 104 202.5C104 201.119 105.119 200 106.5 200C107.881 200 109 201.119 109 202.5C109 203.881 107.881 205 106.5 205ZM52 202.5C52 203.881 53.1193 205 54.5 205C55.8807 205 57 203.881 57 202.5C57 201.119 55.8807 200 54.5 200C53.1193 200 52 201.119 52 202.5ZM158.5 205C157.119 205 156 203.881 156 202.5C156 201.119 157.119 200 158.5 200C159.881 200 161 201.119 161 202.5C161 203.881 159.881 205 158.5 205ZM130 202.5C130 203.881 131.119 205 132.5 205C133.881 205 135 203.881 135 202.5C135 201.119 133.881 200 132.5 200C131.119 200 130 201.119 130 202.5ZM80.5 205C79.1193 205 78 203.881 78 202.5C78 201.119 79.1193 200 80.5 200C81.8807 200 83 201.119 83 202.5C83 203.881 81.8807 205 80.5 205ZM0 222.5C0 223.881 1.11929 225 2.5 225C3.88071 225 5 223.881 5 222.5C5 221.119 3.88071 220 2.5 220C1.11929 220 0 221.119 0 222.5ZM106.5 225C105.119 225 104 223.881 104 222.5C104 221.119 105.119 220 106.5 220C107.881 220 109 221.119 109 222.5C109 223.881 107.881 225 106.5 225ZM52 222.5C52 223.881 53.1193 225 54.5 225C55.8807 225 57 223.881 57 222.5C57 221.119 55.8807 220 54.5 220C53.1193 220 52 221.119 52 222.5ZM28.5 225C27.1193 225 26 223.881 26 222.5C26 221.119 27.1193 220 28.5 220C29.8807 220 31 221.119 31 222.5C31 223.881 29.8807 225 28.5 225ZM130 222.5C130 223.881 131.119 225 132.5 225C133.881 225 135 223.881 135 222.5C135 221.119 133.881 220 132.5 220C131.119 220 130 221.119 130 222.5ZM80.5 225C79.1193 225 78 223.881 78 222.5C78 221.119 79.1193 220 80.5 220C81.8807 220 83 221.119 83 222.5C83 223.881 81.8807 225 80.5 225ZM0 242.5C0 243.881 1.11929 245 2.5 245C3.88071 245 5 243.881 5 242.5C5 241.119 3.88071 240 2.5 240C1.11929 240 0 241.119 0 242.5ZM106.5 245C105.119 245 104 243.881 104 242.5C104 241.119 105.119 240 106.5 240C107.881 240 109 241.119 109 242.5C109 243.881 107.881 245 106.5 245ZM52 242.5C52 243.881 53.1193 245 54.5 245C55.8807 245 57 243.881 57 242.5C57 241.119 55.8807 240 54.5 240C53.1193 240 52 241.119 52 242.5ZM28.5 245C27.1193 245 26 243.881 26 242.5C26 241.119 27.1193 240 28.5 240C29.8807 240 31 241.119 31 242.5C31 243.881 29.8807 245 28.5 245ZM130 242.5C130 243.881 131.119 245 132.5 245C133.881 245 135 243.881 135 242.5C135 241.119 133.881 240 132.5 240C131.119 240 130 241.119 130 242.5ZM80.5 245C79.1193 245 78 243.881 78 242.5C78 241.119 79.1193 240 80.5 240C81.8807 240 83 241.119 83 242.5C83 243.881 81.8807 245 80.5 245ZM0 282.5C0 283.881 1.11929 285 2.5 285C3.88071 285 5 283.881 5 282.5C5 281.119 3.88071 280 2.5 280C1.11929 280 0 281.119 0 282.5ZM106.5 285C105.119 285 104 283.881 104 282.5C104 281.119 105.119 280 106.5 280C107.881 280 109 281.119 109 282.5C109 283.881 107.881 285 106.5 285ZM52 282.5C52 283.881 53.1193 285 54.5 285C55.8807 285 57 283.881 57 282.5C57 281.119 55.8807 280 54.5 280C53.1193 280 52 281.119 52 282.5ZM28.5 285C27.1193 285 26 283.881 26 282.5C26 281.119 27.1193 280 28.5 280C29.8807 280 31 281.119 31 282.5C31 283.881 29.8807 285 28.5 285ZM130 282.5C130 283.881 131.119 285 132.5 285C133.881 285 135 283.881 135 282.5C135 281.119 133.881 280 132.5 280C131.119 280 130 281.119 130 282.5ZM80.5 285C79.1193 285 78 283.881 78 282.5C78 281.119 79.1193 280 80.5 280C81.8807 280 83 281.119 83 282.5C83 283.881 81.8807 285 80.5 285ZM0 302.5C0 303.881 1.11929 305 2.5 305C3.88071 305 5 303.881 5 302.5C5 301.119 3.88071 300 2.5 300C1.11929 300 0 301.119 0 302.5ZM54.5 305C53.1193 305 52 303.881 52 302.5C52 301.119 53.1193 300 54.5 300C55.8807 300 57 301.119 57 302.5C57 303.881 55.8807 305 54.5 305ZM260 302.5C260 303.881 261.119 305 262.5 305C263.881 305 265 303.881 265 302.5C265 301.119 263.881 300 262.5 300C261.119 300 260 301.119 260 302.5ZM28.5 305C27.1193 305 26 303.881 26 302.5C26 301.119 27.1193 300 28.5 300C29.8807 300 31 301.119 31 302.5C31 303.881 29.8807 305 28.5 305ZM78 302.5C78 303.881 79.1193 305 80.5 305C81.8807 305 83 303.881 83 302.5C83 301.119 81.8807 300 80.5 300C79.1193 300 78 301.119 78 302.5ZM288.5 305C287.119 305 286 303.881 286 302.5C286 301.119 287.119 300 288.5 300C289.881 300 291 301.119 291 302.5C291 303.881 289.881 305 288.5 305ZM0 322.5C0 323.881 1.11929 325 2.5 325C3.88071 325 5 323.881 5 322.5C5 321.119 3.88071 320 2.5 320C1.11929 320 0 321.119 0 322.5ZM54.5 325C53.1193 325 52 323.881 52 322.5C52 321.119 53.1193 320 54.5 320C55.8807 320 57 321.119 57 322.5C57 323.881 55.8807 325 54.5 325ZM260 322.5C260 323.881 261.119 325 262.5 325C263.881 325 265 323.881 265 322.5C265 321.119 263.881 320 262.5 320C261.119 320 260 321.119 260 322.5ZM28.5 325C27.1193 325 26 323.881 26 322.5C26 321.119 27.1193 320 28.5 320C29.8807 320 31 321.119 31 322.5C31 323.881 29.8807 325 28.5 325ZM234 322.5C234 323.881 235.119 325 236.5 325C237.881 325 239 323.881 239 322.5C239 321.119 237.881 320 236.5 320C235.119 320 234 321.119 234 322.5ZM80.5 325C79.1193 325 78 323.881 78 322.5C78 321.119 79.1193 320 80.5 320C81.8807 320 83 321.119 83 322.5C83 323.881 81.8807 325 80.5 325ZM286 322.5C286 323.881 287.119 325 288.5 325C289.881 325 291 323.881 291 322.5C291 321.119 289.881 320 288.5 320C287.119 320 286 321.119 286 322.5ZM28.5 345C27.1193 345 26 343.881 26 342.5C26 341.119 27.1193 340 28.5 340C29.8807 340 31 341.119 31 342.5C31 343.881 29.8807 345 28.5 345ZM104 362.5C104 363.881 105.119 365 106.5 365C107.881 365 109 363.881 109 362.5C109 361.119 107.881 360 106.5 360C105.119 360 104 361.119 104 362.5ZM210.5 365C209.119 365 208 363.881 208 362.5C208 361.119 209.119 360 210.5 360C211.881 360 213 361.119 213 362.5C213 363.881 211.881 365 210.5 365ZM52 362.5C52 363.881 53.1193 365 54.5 365C55.8807 365 57 363.881 57 362.5C57 361.119 55.8807 360 54.5 360C53.1193 360 52 361.119 52 362.5ZM158.5 365C157.119 365 156 363.881 156 362.5C156 361.119 157.119 360 158.5 360C159.881 360 161 361.119 161 362.5C161 363.881 159.881 365 158.5 365ZM260 362.5C260 363.881 261.119 365 262.5 365C263.881 365 265 363.881 265 362.5C265 361.119 263.881 360 262.5 360C261.119 360 260 361.119 260 362.5ZM28.5 365C27.1193 365 26 363.881 26 362.5C26 361.119 27.1193 360 28.5 360C29.8807 360 31 361.119 31 362.5C31 363.881 29.8807 365 28.5 365ZM130 362.5C130 363.881 131.119 365 132.5 365C133.881 365 135 363.881 135 362.5C135 361.119 133.881 360 132.5 360C131.119 360 130 361.119 130 362.5ZM236.5 365C235.119 365 234 363.881 234 362.5C234 361.119 235.119 360 236.5 360C237.881 360 239 361.119 239 362.5C239 363.881 237.881 365 236.5 365ZM78 362.5C78 363.881 79.1193 365 80.5 365C81.8807 365 83 363.881 83 362.5C83 361.119 81.8807 360 80.5 360C79.1193 360 78 361.119 78 362.5ZM288.5 365C287.119 365 286 363.881 286 362.5C286 361.119 287.119 360 288.5 360C289.881 360 291 361.119 291 362.5C291 363.881 289.881 365 288.5 365ZM104 382.5C104 383.881 105.119 385 106.5 385C107.881 385 109 383.881 109 382.5C109 381.119 107.881 380 106.5 380C105.119 380 104 381.119 104 382.5ZM210.5 385C209.119 385 208 383.881 208 382.5C208 381.119 209.119 380 210.5 380C211.881 380 213 381.119 213 382.5C213 383.881 211.881 385 210.5 385ZM52 382.5C52 383.881 53.1193 385 54.5 385C55.8807 385 57 383.881 57 382.5C57 381.119 55.8807 380 54.5 380C53.1193 380 52 381.119 52 382.5ZM158.5 385C157.119 385 156 383.881 156 382.5C156 381.119 157.119 380 158.5 380C159.881 380 161 381.119 161 382.5C161 383.881 159.881 385 158.5 385ZM260 382.5C260 383.881 261.119 385 262.5 385C263.881 385 265 383.881 265 382.5C265 381.119 263.881 380 262.5 380C261.119 380 260 381.119 260 382.5ZM28.5 385C27.1193 385 26 383.881 26 382.5C26 381.119 27.1193 380 28.5 380C29.8807 380 31 381.119 31 382.5C31 383.881 29.8807 385 28.5 385ZM130 382.5C130 383.881 131.119 385 132.5 385C133.881 385 135 383.881 135 382.5C135 381.119 133.881 380 132.5 380C131.119 380 130 381.119 130 382.5ZM236.5 385C235.119 385 234 383.881 234 382.5C234 381.119 235.119 380 236.5 380C237.881 380 239 381.119 239 382.5C239 383.881 237.881 385 236.5 385ZM78 382.5C78 383.881 79.1193 385 80.5 385C81.8807 385 83 383.881 83 382.5C83 381.119 81.8807 380 80.5 380C79.1193 380 78 381.119 78 382.5ZM288.5 385C287.119 385 286 383.881 286 382.5C286 381.119 287.119 380 288.5 380C289.881 380 291 381.119 291 382.5C291 383.881 289.881 385 288.5 385ZM104 402.5C104 403.881 105.119 405 106.5 405C107.881 405 109 403.881 109 402.5C109 401.119 107.881 400 106.5 400C105.119 400 104 401.119 104 402.5ZM210.5 405C209.119 405 208 403.881 208 402.5C208 401.119 209.119 400 210.5 400C211.881 400 213 401.119 213 402.5C213 403.881 211.881 405 210.5 405ZM52 402.5C52 403.881 53.1193 405 54.5 405C55.8807 405 57 403.881 57 402.5C57 401.119 55.8807 400 54.5 400C53.1193 400 52 401.119 52 402.5ZM158.5 405C157.119 405 156 403.881 156 402.5C156 401.119 157.119 400 158.5 400C159.881 400 161 401.119 161 402.5C161 403.881 159.881 405 158.5 405ZM26 402.5C26 403.881 27.1193 405 28.5 405C29.8807 405 31 403.881 31 402.5C31 401.119 29.8807 400 28.5 400C27.1193 400 26 401.119 26 402.5ZM132.5 405C131.119 405 130 403.881 130 402.5C130 401.119 131.119 400 132.5 400C133.881 400 135 401.119 135 402.5C135 403.881 133.881 405 132.5 405ZM234 402.5C234 403.881 235.119 405 236.5 405C237.881 405 239 403.881 239 402.5C239 401.119 237.881 400 236.5 400C235.119 400 234 401.119 234 402.5ZM80.5 405C79.1193 405 78 403.881 78 402.5C78 401.119 79.1193 400 80.5 400C81.8807 400 83 401.119 83 402.5C83 403.881 81.8807 405 80.5 405ZM286 402.5C286 403.881 287.119 405 288.5 405C289.881 405 291 403.881 291 402.5C291 401.119 289.881 400 288.5 400C287.119 400 286 401.119 286 402.5ZM106.5 425C105.119 425 104 423.881 104 422.5C104 421.119 105.119 420 106.5 420C107.881 420 109 421.119 109 422.5C109 423.881 107.881 425 106.5 425ZM208 422.5C208 423.881 209.119 425 210.5 425C211.881 425 213 423.881 213 422.5C213 421.119 211.881 420 210.5 420C209.119 420 208 421.119 208 422.5ZM54.5 425C53.1193 425 52 423.881 52 422.5C52 421.119 53.1193 420 54.5 420C55.8807 420 57 421.119 57 422.5C57 423.881 55.8807 425 54.5 425ZM156 422.5C156 423.881 157.119 425 158.5 425C159.881 425 161 423.881 161 422.5C161 421.119 159.881 420 158.5 420C157.119 420 156 421.119 156 422.5ZM28.5 425C27.1193 425 26 423.881 26 422.5C26 421.119 27.1193 420 28.5 420C29.8807 420 31 421.119 31 422.5C31 423.881 29.8807 425 28.5 425ZM234 422.5C234 423.881 235.119 425 236.5 425C237.881 425 239 423.881 239 422.5C239 421.119 237.881 420 236.5 420C235.119 420 234 421.119 234 422.5ZM80.5 425C79.1193 425 78 423.881 78 422.5C78 421.119 79.1193 420 80.5 420C81.8807 420 83 421.119 83 422.5C83 423.881 81.8807 425 80.5 425ZM182 422.5C182 423.881 183.119 425 184.5 425C185.881 425 187 423.881 187 422.5C187 421.119 185.881 420 184.5 420C183.119 420 182 421.119 182 422.5ZM288.5 425C287.119 425 286 423.881 286 422.5C286 421.119 287.119 420 288.5 420C289.881 420 291 421.119 291 422.5C291 423.881 289.881 425 288.5 425ZM104 442.5C104 443.881 105.119 445 106.5 445C107.881 445 109 443.881 109 442.5C109 441.119 107.881 440 106.5 440C105.119 440 104 441.119 104 442.5ZM210.5 445C209.119 445 208 443.881 208 442.5C208 441.119 209.119 440 210.5 440C211.881 440 213 441.119 213 442.5C213 443.881 211.881 445 210.5 445ZM52 442.5C52 443.881 53.1193 445 54.5 445C55.8807 445 57 443.881 57 442.5C57 441.119 55.8807 440 54.5 440C53.1193 440 52 441.119 52 442.5ZM158.5 445C157.119 445 156 443.881 156 442.5C156 441.119 157.119 440 158.5 440C159.881 440 161 441.119 161 442.5C161 443.881 159.881 445 158.5 445ZM26 442.5C26 443.881 27.1193 445 28.5 445C29.8807 445 31 443.881 31 442.5C31 441.119 29.8807 440 28.5 440C27.1193 440 26 441.119 26 442.5ZM236.5 445C235.119 445 234 443.881 234 442.5C234 441.119 235.119 440 236.5 440C237.881 440 239 441.119 239 442.5C239 443.881 237.881 445 236.5 445ZM78 442.5C78 443.881 79.1193 445 80.5 445C81.8807 445 83 443.881 83 442.5C83 441.119 81.8807 440 80.5 440C79.1193 440 78 441.119 78 442.5ZM184.5 445C183.119 445 182 443.881 182 442.5C182 441.119 183.119 440 184.5 440C185.881 440 187 441.119 187 442.5C187 443.881 185.881 445 184.5 445ZM286 442.5C286 443.881 287.119 445 288.5 445C289.881 445 291 443.881 291 442.5C291 441.119 289.881 440 288.5 440C287.119 440 286 441.119 286 442.5ZM106.5 465C105.119 465 104 463.881 104 462.5C104 461.119 105.119 460 106.5 460C107.881 460 109 461.119 109 462.5C109 463.881 107.881 465 106.5 465ZM208 462.5C208 463.881 209.119 465 210.5 465C211.881 465 213 463.881 213 462.5C213 461.119 211.881 460 210.5 460C209.119 460 208 461.119 208 462.5ZM158.5 465C157.119 465 156 463.881 156 462.5C156 461.119 157.119 460 158.5 460C159.881 460 161 461.119 161 462.5C161 463.881 159.881 465 158.5 465ZM234 462.5C234 463.881 235.119 465 236.5 465C237.881 465 239 463.881 239 462.5C239 461.119 237.881 460 236.5 460C235.119 460 234 461.119 234 462.5ZM80.5 465C79.1193 465 78 463.881 78 462.5C78 461.119 79.1193 460 80.5 460C81.8807 460 83 461.119 83 462.5C83 463.881 81.8807 465 80.5 465ZM182 462.5C182 463.881 183.119 465 184.5 465C185.881 465 187 463.881 187 462.5C187 461.119 185.881 460 184.5 460C183.119 460 182 461.119 182 462.5ZM288.5 465C287.119 465 286 463.881 286 462.5C286 461.119 287.119 460 288.5 460C289.881 460 291 461.119 291 462.5C291 463.881 289.881 465 288.5 465ZM208 482.5C208 483.881 209.119 485 210.5 485C211.881 485 213 483.881 213 482.5C213 481.119 211.881 480 210.5 480C209.119 480 208 481.119 208 482.5ZM158.5 485C157.119 485 156 483.881 156 482.5C156 481.119 157.119 480 158.5 480C159.881 480 161 481.119 161 482.5C161 483.881 159.881 485 158.5 485ZM234 482.5C234 483.881 235.119 485 236.5 485C237.881 485 239 483.881 239 482.5C239 481.119 237.881 480 236.5 480C235.119 480 234 481.119 234 482.5ZM184.5 485C183.119 485 182 483.881 182 482.5C182 481.119 183.119 480 184.5 480C185.881 480 187 481.119 187 482.5C187 483.881 185.881 485 184.5 485ZM286 482.5C286 483.881 287.119 485 288.5 485C289.881 485 291 483.881 291 482.5C291 481.119 289.881 480 288.5 480C287.119 480 286 481.119 286 482.5ZM236.5 505C235.119 505 234 503.881 234 502.5C234 501.119 235.119 500 236.5 500C237.881 500 239 501.119 239 502.5C239 503.881 237.881 505 236.5 505ZM286 502.5C286 503.881 287.119 505 288.5 505C289.881 505 291 503.881 291 502.5C291 501.119 289.881 500 288.5 500C287.119 500 286 501.119 286 502.5Z" fill="#D8D8D8"/>
</svg>
