<svg width="291" height="505" viewBox="0 0 291 505" fill="none" xmlns="http://www.w3.org/2000/svg">
<path fill-rule="evenodd" clip-rule="evenodd" d="M2.5 5C3.88071 5 5 3.88071 5 2.5C5 1.11929 3.88071 0 2.5 0C1.11929 0 0 1.11929 0 2.5C0 3.88071 1.11929 5 2.5 5ZM28.5 5C29.8807 5 31 3.88071 31 2.5C31 1.11929 29.8807 0 28.5 0C27.1193 0 26 1.11929 26 2.5C26 3.88071 27.1193 5 28.5 5ZM80.5 5C81.8807 5 83 3.88071 83 2.5C83 1.11929 81.8807 0 80.5 0C79.1193 0 78 1.11929 78 2.5C78 3.88071 79.1193 5 80.5 5ZM57 2.5C57 3.88071 55.8807 5 54.5 5C53.1193 5 52 3.88071 52 2.5C52 1.11929 53.1193 0 54.5 0C55.8807 0 57 1.11929 57 2.5ZM83 22.5C83 23.8807 81.8807 25 80.5 25C79.1193 25 78 23.8807 78 22.5C78 21.1193 79.1193 20 80.5 20C81.8807 20 83 21.1193 83 22.5ZM132.5 25C133.881 25 135 23.8807 135 22.5C135 21.1193 133.881 20 132.5 20C131.119 20 130 21.1193 130 22.5C130 23.8807 131.119 25 132.5 25ZM31 22.5C31 23.8807 29.8807 25 28.5 25C27.1193 25 26 23.8807 26 22.5C26 21.1193 27.1193 20 28.5 20C29.8807 20 31 21.1193 31 22.5ZM54.5 25C55.8807 25 57 23.8807 57 22.5C57 21.1193 55.8807 20 54.5 20C53.1193 20 52 21.1193 52 22.5C52 23.8807 53.1193 25 54.5 25ZM109 22.5C109 23.8807 107.881 25 106.5 25C105.119 25 104 23.8807 104 22.5C104 21.1193 105.119 20 106.5 20C107.881 20 109 21.1193 109 22.5ZM2.5 25C3.88071 25 5 23.8807 5 22.5C5 21.1193 3.88071 20 2.5 20C1.11929 20 0 21.1193 0 22.5C0 23.8807 1.11929 25 2.5 25ZM187 62.5C187 63.8807 185.881 65 184.5 65C183.119 65 182 63.8807 182 62.5C182 61.1193 183.119 60 184.5 60C185.881 60 187 61.1193 187 62.5ZM80.5 65C81.8807 65 83 63.8807 83 62.5C83 61.1193 81.8807 60 80.5 60C79.1193 60 78 61.1193 78 62.5C78 63.8807 79.1193 65 80.5 65ZM135 62.5C135 63.8807 133.881 65 132.5 65C131.119 65 130 63.8807 130 62.5C130 61.1193 131.119 60 132.5 60C133.881 60 135 61.1193 135 62.5ZM28.5 65C29.8807 65 31 63.8807 31 62.5C31 61.1193 29.8807 60 28.5 60C27.1193 60 26 61.1193 26 62.5C26 63.8807 27.1193 65 28.5 65ZM161 62.5C161 63.8807 159.881 65 158.5 65C157.119 65 156 63.8807 156 62.5C156 61.1193 157.119 60 158.5 60C159.881 60 161 61.1193 161 62.5ZM54.5 65C55.8807 65 57 63.8807 57 62.5C57 61.1193 55.8807 60 54.5 60C53.1193 60 52 61.1193 52 62.5C52 63.8807 53.1193 65 54.5 65ZM213 62.5C213 63.8807 211.881 65 210.5 65C209.119 65 208 63.8807 208 62.5C208 61.1193 209.119 60 210.5 60C211.881 60 213 61.1193 213 62.5ZM106.5 65C107.881 65 109 63.8807 109 62.5C109 61.1193 107.881 60 106.5 60C105.119 60 104 61.1193 104 62.5C104 63.8807 105.119 65 106.5 65ZM5 62.5C5 63.8807 3.88071 65 2.5 65C1.11929 65 0 63.8807 0 62.5C0 61.1193 1.11929 60 2.5 60C3.88071 60 5 61.1193 5 62.5ZM184.5 85C185.881 85 187 83.8807 187 82.5C187 81.1193 185.881 80 184.5 80C183.119 80 182 81.1193 182 82.5C182 83.8807 183.119 85 184.5 85ZM83 82.5C83 83.8807 81.8807 85 80.5 85C79.1193 85 78 83.8807 78 82.5C78 81.1193 79.1193 80 80.5 80C81.8807 80 83 81.1193 83 82.5ZM132.5 85C133.881 85 135 83.8807 135 82.5C135 81.1193 133.881 80 132.5 80C131.119 80 130 81.1193 130 82.5C130 83.8807 131.119 85 132.5 85ZM31 82.5C31 83.8807 29.8807 85 28.5 85C27.1193 85 26 83.8807 26 82.5C26 81.1193 27.1193 80 28.5 80C29.8807 80 31 81.1193 31 82.5ZM158.5 85C159.881 85 161 83.8807 161 82.5C161 81.1193 159.881 80 158.5 80C157.119 80 156 81.1193 156 82.5C156 83.8807 157.119 85 158.5 85ZM57 82.5C57 83.8807 55.8807 85 54.5 85C53.1193 85 52 83.8807 52 82.5C52 81.1193 53.1193 80 54.5 80C55.8807 80 57 81.1193 57 82.5ZM210.5 85C211.881 85 213 83.8807 213 82.5C213 81.1193 211.881 80 210.5 80C209.119 80 208 81.1193 208 82.5C208 83.8807 209.119 85 210.5 85ZM109 82.5C109 83.8807 107.881 85 106.5 85C105.119 85 104 83.8807 104 82.5C104 81.1193 105.119 80 106.5 80C107.881 80 109 81.1193 109 82.5ZM2.5 85C3.88071 85 5 83.8807 5 82.5C5 81.1193 3.88071 80 2.5 80C1.11929 80 0 81.1193 0 82.5C0 83.8807 1.11929 85 2.5 85ZM187 102.5C187 103.881 185.881 105 184.5 105C183.119 105 182 103.881 182 102.5C182 101.119 183.119 100 184.5 100C185.881 100 187 101.119 187 102.5ZM80.5 105C81.8807 105 83 103.881 83 102.5C83 101.119 81.8807 100 80.5 100C79.1193 100 78 101.119 78 102.5C78 103.881 79.1193 105 80.5 105ZM239 102.5C239 103.881 237.881 105 236.5 105C235.119 105 234 103.881 234 102.5C234 101.119 235.119 100 236.5 100C237.881 100 239 101.119 239 102.5ZM132.5 105C133.881 105 135 103.881 135 102.5C135 101.119 133.881 100 132.5 100C131.119 100 130 101.119 130 102.5C130 103.881 131.119 105 132.5 105ZM31 102.5C31 103.881 29.8807 105 28.5 105C27.1193 105 26 103.881 26 102.5C26 101.119 27.1193 100 28.5 100C29.8807 100 31 101.119 31 102.5ZM262.5 105C263.881 105 265 103.881 265 102.5C265 101.119 263.881 100 262.5 100C261.119 100 260 101.119 260 102.5C260 103.881 261.119 105 262.5 105ZM161 102.5C161 103.881 159.881 105 158.5 105C157.119 105 156 103.881 156 102.5C156 101.119 157.119 100 158.5 100C159.881 100 161 101.119 161 102.5ZM54.5 105C55.8807 105 57 103.881 57 102.5C57 101.119 55.8807 100 54.5 100C53.1193 100 52 101.119 52 102.5C52 103.881 53.1193 105 54.5 105ZM213 102.5C213 103.881 211.881 105 210.5 105C209.119 105 208 103.881 208 102.5C208 101.119 209.119 100 210.5 100C211.881 100 213 101.119 213 102.5ZM106.5 105C107.881 105 109 103.881 109 102.5C109 101.119 107.881 100 106.5 100C105.119 100 104 101.119 104 102.5C104 103.881 105.119 105 106.5 105ZM5 102.5C5 103.881 3.88071 105 2.5 105C1.11929 105 0 103.881 0 102.5C0 101.119 1.11929 100 2.5 100C3.88071 100 5 101.119 5 102.5ZM288.5 125C289.881 125 291 123.881 291 122.5C291 121.119 289.881 120 288.5 120C287.119 120 286 121.119 286 122.5C286 123.881 287.119 125 288.5 125ZM187 122.5C187 123.881 185.881 125 184.5 125C183.119 125 182 123.881 182 122.5C182 121.119 183.119 120 184.5 120C185.881 120 187 121.119 187 122.5ZM80.5 125C81.8807 125 83 123.881 83 122.5C83 121.119 81.8807 120 80.5 120C79.1193 120 78 121.119 78 122.5C78 123.881 79.1193 125 80.5 125ZM239 122.5C239 123.881 237.881 125 236.5 125C235.119 125 234 123.881 234 122.5C234 121.119 235.119 120 236.5 120C237.881 120 239 121.119 239 122.5ZM132.5 125C133.881 125 135 123.881 135 122.5C135 121.119 133.881 120 132.5 120C131.119 120 130 121.119 130 122.5C130 123.881 131.119 125 132.5 125ZM265 122.5C265 123.881 263.881 125 262.5 125C261.119 125 260 123.881 260 122.5C260 121.119 261.119 120 262.5 120C263.881 120 265 121.119 265 122.5ZM158.5 125C159.881 125 161 123.881 161 122.5C161 121.119 159.881 120 158.5 120C157.119 120 156 121.119 156 122.5C156 123.881 157.119 125 158.5 125ZM57 122.5C57 123.881 55.8807 125 54.5 125C53.1193 125 52 123.881 52 122.5C52 121.119 53.1193 120 54.5 120C55.8807 120 57 121.119 57 122.5ZM210.5 125C211.881 125 213 123.881 213 122.5C213 121.119 211.881 120 210.5 120C209.119 120 208 121.119 208 122.5C208 123.881 209.119 125 210.5 125ZM109 122.5C109 123.881 107.881 125 106.5 125C105.119 125 104 123.881 104 122.5C104 121.119 105.119 120 106.5 120C107.881 120 109 121.119 109 122.5ZM80.5 145C81.8807 145 83 143.881 83 142.5C83 141.119 81.8807 140 80.5 140C79.1193 140 78 141.119 78 142.5C78 143.881 79.1193 145 80.5 145ZM135 142.5C135 143.881 133.881 145 132.5 145C131.119 145 130 143.881 130 142.5C130 141.119 131.119 140 132.5 140C133.881 140 135 141.119 135 142.5ZM158.5 145C159.881 145 161 143.881 161 142.5C161 141.119 159.881 140 158.5 140C157.119 140 156 141.119 156 142.5C156 143.881 157.119 145 158.5 145ZM57 142.5C57 143.881 55.8807 145 54.5 145C53.1193 145 52 143.881 52 142.5C52 141.119 53.1193 140 54.5 140C55.8807 140 57 141.119 57 142.5ZM106.5 145C107.881 145 109 143.881 109 142.5C109 141.119 107.881 140 106.5 140C105.119 140 104 141.119 104 142.5C104 143.881 105.119 145 106.5 145ZM291 162.5C291 163.881 289.881 165 288.5 165C287.119 165 286 163.881 286 162.5C286 161.119 287.119 160 288.5 160C289.881 160 291 161.119 291 162.5ZM184.5 165C185.881 165 187 163.881 187 162.5C187 161.119 185.881 160 184.5 160C183.119 160 182 161.119 182 162.5C182 163.881 183.119 165 184.5 165ZM239 162.5C239 163.881 237.881 165 236.5 165C235.119 165 234 163.881 234 162.5C234 161.119 235.119 160 236.5 160C237.881 160 239 161.119 239 162.5ZM132.5 165C133.881 165 135 163.881 135 162.5C135 161.119 133.881 160 132.5 160C131.119 160 130 161.119 130 162.5C130 163.881 131.119 165 132.5 165ZM265 162.5C265 163.881 263.881 165 262.5 165C261.119 165 260 163.881 260 162.5C260 161.119 261.119 160 262.5 160C263.881 160 265 161.119 265 162.5ZM158.5 165C159.881 165 161 163.881 161 162.5C161 161.119 159.881 160 158.5 160C157.119 160 156 161.119 156 162.5C156 163.881 157.119 165 158.5 165ZM213 162.5C213 163.881 211.881 165 210.5 165C209.119 165 208 163.881 208 162.5C208 161.119 209.119 160 210.5 160C211.881 160 213 161.119 213 162.5ZM106.5 165C107.881 165 109 163.881 109 162.5C109 161.119 107.881 160 106.5 160C105.119 160 104 161.119 104 162.5C104 163.881 105.119 165 106.5 165ZM83 182.5C83 183.881 81.8807 185 80.5 185C79.1193 185 78 183.881 78 182.5C78 181.119 79.1193 180 80.5 180C81.8807 180 83 181.119 83 182.5ZM236.5 185C237.881 185 239 183.881 239 182.5C239 181.119 237.881 180 236.5 180C235.119 180 234 181.119 234 182.5C234 183.881 235.119 185 236.5 185ZM57 182.5C57 183.881 55.8807 185 54.5 185C53.1193 185 52 183.881 52 182.5C52 181.119 53.1193 180 54.5 180C55.8807 180 57 181.119 57 182.5ZM184.5 205C185.881 205 187 203.881 187 202.5C187 201.119 185.881 200 184.5 200C183.119 200 182 201.119 182 202.5C182 203.881 183.119 205 184.5 205ZM239 202.5C239 203.881 237.881 205 236.5 205C235.119 205 234 203.881 234 202.5C234 201.119 235.119 200 236.5 200C237.881 200 239 201.119 239 202.5ZM132.5 205C133.881 205 135 203.881 135 202.5C135 201.119 133.881 200 132.5 200C131.119 200 130 201.119 130 202.5C130 203.881 131.119 205 132.5 205ZM161 202.5C161 203.881 159.881 205 158.5 205C157.119 205 156 203.881 156 202.5C156 201.119 157.119 200 158.5 200C159.881 200 161 201.119 161 202.5ZM210.5 205C211.881 205 213 203.881 213 202.5C213 201.119 211.881 200 210.5 200C209.119 200 208 201.119 208 202.5C208 203.881 209.119 205 210.5 205ZM291 222.5C291 223.881 289.881 225 288.5 225C287.119 225 286 223.881 286 222.5C286 221.119 287.119 220 288.5 220C289.881 220 291 221.119 291 222.5ZM184.5 225C185.881 225 187 223.881 187 222.5C187 221.119 185.881 220 184.5 220C183.119 220 182 221.119 182 222.5C182 223.881 183.119 225 184.5 225ZM239 222.5C239 223.881 237.881 225 236.5 225C235.119 225 234 223.881 234 222.5C234 221.119 235.119 220 236.5 220C237.881 220 239 221.119 239 222.5ZM262.5 225C263.881 225 265 223.881 265 222.5C265 221.119 263.881 220 262.5 220C261.119 220 260 221.119 260 222.5C260 223.881 261.119 225 262.5 225ZM161 222.5C161 223.881 159.881 225 158.5 225C157.119 225 156 223.881 156 222.5C156 221.119 157.119 220 158.5 220C159.881 220 161 221.119 161 222.5ZM210.5 225C211.881 225 213 223.881 213 222.5C213 221.119 211.881 220 210.5 220C209.119 220 208 221.119 208 222.5C208 223.881 209.119 225 210.5 225ZM291 242.5C291 243.881 289.881 245 288.5 245C287.119 245 286 243.881 286 242.5C286 241.119 287.119 240 288.5 240C289.881 240 291 241.119 291 242.5ZM184.5 245C185.881 245 187 243.881 187 242.5C187 241.119 185.881 240 184.5 240C183.119 240 182 241.119 182 242.5C182 243.881 183.119 245 184.5 245ZM239 242.5C239 243.881 237.881 245 236.5 245C235.119 245 234 243.881 234 242.5C234 241.119 235.119 240 236.5 240C237.881 240 239 241.119 239 242.5ZM262.5 245C263.881 245 265 243.881 265 242.5C265 241.119 263.881 240 262.5 240C261.119 240 260 241.119 260 242.5C260 243.881 261.119 245 262.5 245ZM161 242.5C161 243.881 159.881 245 158.5 245C157.119 245 156 243.881 156 242.5C156 241.119 157.119 240 158.5 240C159.881 240 161 241.119 161 242.5ZM210.5 245C211.881 245 213 243.881 213 242.5C213 241.119 211.881 240 210.5 240C209.119 240 208 241.119 208 242.5C208 243.881 209.119 245 210.5 245ZM291 282.5C291 283.881 289.881 285 288.5 285C287.119 285 286 283.881 286 282.5C286 281.119 287.119 280 288.5 280C289.881 280 291 281.119 291 282.5ZM184.5 285C185.881 285 187 283.881 187 282.5C187 281.119 185.881 280 184.5 280C183.119 280 182 281.119 182 282.5C182 283.881 183.119 285 184.5 285ZM239 282.5C239 283.881 237.881 285 236.5 285C235.119 285 234 283.881 234 282.5C234 281.119 235.119 280 236.5 280C237.881 280 239 281.119 239 282.5ZM262.5 285C263.881 285 265 283.881 265 282.5C265 281.119 263.881 280 262.5 280C261.119 280 260 281.119 260 282.5C260 283.881 261.119 285 262.5 285ZM161 282.5C161 283.881 159.881 285 158.5 285C157.119 285 156 283.881 156 282.5C156 281.119 157.119 280 158.5 280C159.881 280 161 281.119 161 282.5ZM210.5 285C211.881 285 213 283.881 213 282.5C213 281.119 211.881 280 210.5 280C209.119 280 208 281.119 208 282.5C208 283.881 209.119 285 210.5 285ZM291 302.5C291 303.881 289.881 305 288.5 305C287.119 305 286 303.881 286 302.5C286 301.119 287.119 300 288.5 300C289.881 300 291 301.119 291 302.5ZM236.5 305C237.881 305 239 303.881 239 302.5C239 301.119 237.881 300 236.5 300C235.119 300 234 301.119 234 302.5C234 303.881 235.119 305 236.5 305ZM31 302.5C31 303.881 29.8807 305 28.5 305C27.1193 305 26 303.881 26 302.5C26 301.119 27.1193 300 28.5 300C29.8807 300 31 301.119 31 302.5ZM262.5 305C263.881 305 265 303.881 265 302.5C265 301.119 263.881 300 262.5 300C261.119 300 260 301.119 260 302.5C260 303.881 261.119 305 262.5 305ZM213 302.5C213 303.881 211.881 305 210.5 305C209.119 305 208 303.881 208 302.5C208 301.119 209.119 300 210.5 300C211.881 300 213 301.119 213 302.5ZM2.5 305C3.88071 305 5 303.881 5 302.5C5 301.119 3.88071 300 2.5 300C1.11929 300 0 301.119 0 302.5C0 303.881 1.11929 305 2.5 305ZM291 322.5C291 323.881 289.881 325 288.5 325C287.119 325 286 323.881 286 322.5C286 321.119 287.119 320 288.5 320C289.881 320 291 321.119 291 322.5ZM236.5 325C237.881 325 239 323.881 239 322.5C239 321.119 237.881 320 236.5 320C235.119 320 234 321.119 234 322.5C234 323.881 235.119 325 236.5 325ZM31 322.5C31 323.881 29.8807 325 28.5 325C27.1193 325 26 323.881 26 322.5C26 321.119 27.1193 320 28.5 320C29.8807 320 31 321.119 31 322.5ZM262.5 325C263.881 325 265 323.881 265 322.5C265 321.119 263.881 320 262.5 320C261.119 320 260 321.119 260 322.5C260 323.881 261.119 325 262.5 325ZM57 322.5C57 323.881 55.8807 325 54.5 325C53.1193 325 52 323.881 52 322.5C52 321.119 53.1193 320 54.5 320C55.8807 320 57 321.119 57 322.5ZM210.5 325C211.881 325 213 323.881 213 322.5C213 321.119 211.881 320 210.5 320C209.119 320 208 321.119 208 322.5C208 323.881 209.119 325 210.5 325ZM5 322.5C5 323.881 3.88071 325 2.5 325C1.11929 325 0 323.881 0 322.5C0 321.119 1.11929 320 2.5 320C3.88071 320 5 321.119 5 322.5ZM262.5 345C263.881 345 265 343.881 265 342.5C265 341.119 263.881 340 262.5 340C261.119 340 260 341.119 260 342.5C260 343.881 261.119 345 262.5 345ZM187 362.5C187 363.881 185.881 365 184.5 365C183.119 365 182 363.881 182 362.5C182 361.119 183.119 360 184.5 360C185.881 360 187 361.119 187 362.5ZM80.5 365C81.8807 365 83 363.881 83 362.5C83 361.119 81.8807 360 80.5 360C79.1193 360 78 361.119 78 362.5C78 363.881 79.1193 365 80.5 365ZM239 362.5C239 363.881 237.881 365 236.5 365C235.119 365 234 363.881 234 362.5C234 361.119 235.119 360 236.5 360C237.881 360 239 361.119 239 362.5ZM132.5 365C133.881 365 135 363.881 135 362.5C135 361.119 133.881 360 132.5 360C131.119 360 130 361.119 130 362.5C130 363.881 131.119 365 132.5 365ZM31 362.5C31 363.881 29.8807 365 28.5 365C27.1193 365 26 363.881 26 362.5C26 361.119 27.1193 360 28.5 360C29.8807 360 31 361.119 31 362.5ZM262.5 365C263.881 365 265 363.881 265 362.5C265 361.119 263.881 360 262.5 360C261.119 360 260 361.119 260 362.5C260 363.881 261.119 365 262.5 365ZM161 362.5C161 363.881 159.881 365 158.5 365C157.119 365 156 363.881 156 362.5C156 361.119 157.119 360 158.5 360C159.881 360 161 361.119 161 362.5ZM54.5 365C55.8807 365 57 363.881 57 362.5C57 361.119 55.8807 360 54.5 360C53.1193 360 52 361.119 52 362.5C52 363.881 53.1193 365 54.5 365ZM213 362.5C213 363.881 211.881 365 210.5 365C209.119 365 208 363.881 208 362.5C208 361.119 209.119 360 210.5 360C211.881 360 213 361.119 213 362.5ZM2.5 365C3.88071 365 5 363.881 5 362.5C5 361.119 3.88071 360 2.5 360C1.11929 360 0 361.119 0 362.5C0 363.881 1.11929 365 2.5 365ZM187 382.5C187 383.881 185.881 385 184.5 385C183.119 385 182 383.881 182 382.5C182 381.119 183.119 380 184.5 380C185.881 380 187 381.119 187 382.5ZM80.5 385C81.8807 385 83 383.881 83 382.5C83 381.119 81.8807 380 80.5 380C79.1193 380 78 381.119 78 382.5C78 383.881 79.1193 385 80.5 385ZM239 382.5C239 383.881 237.881 385 236.5 385C235.119 385 234 383.881 234 382.5C234 381.119 235.119 380 236.5 380C237.881 380 239 381.119 239 382.5ZM132.5 385C133.881 385 135 383.881 135 382.5C135 381.119 133.881 380 132.5 380C131.119 380 130 381.119 130 382.5C130 383.881 131.119 385 132.5 385ZM31 382.5C31 383.881 29.8807 385 28.5 385C27.1193 385 26 383.881 26 382.5C26 381.119 27.1193 380 28.5 380C29.8807 380 31 381.119 31 382.5ZM262.5 385C263.881 385 265 383.881 265 382.5C265 381.119 263.881 380 262.5 380C261.119 380 260 381.119 260 382.5C260 383.881 261.119 385 262.5 385ZM161 382.5C161 383.881 159.881 385 158.5 385C157.119 385 156 383.881 156 382.5C156 381.119 157.119 380 158.5 380C159.881 380 161 381.119 161 382.5ZM54.5 385C55.8807 385 57 383.881 57 382.5C57 381.119 55.8807 380 54.5 380C53.1193 380 52 381.119 52 382.5C52 383.881 53.1193 385 54.5 385ZM213 382.5C213 383.881 211.881 385 210.5 385C209.119 385 208 383.881 208 382.5C208 381.119 209.119 380 210.5 380C211.881 380 213 381.119 213 382.5ZM2.5 385C3.88071 385 5 383.881 5 382.5C5 381.119 3.88071 380 2.5 380C1.11929 380 0 381.119 0 382.5C0 383.881 1.11929 385 2.5 385ZM187 402.5C187 403.881 185.881 405 184.5 405C183.119 405 182 403.881 182 402.5C182 401.119 183.119 400 184.5 400C185.881 400 187 401.119 187 402.5ZM80.5 405C81.8807 405 83 403.881 83 402.5C83 401.119 81.8807 400 80.5 400C79.1193 400 78 401.119 78 402.5C78 403.881 79.1193 405 80.5 405ZM239 402.5C239 403.881 237.881 405 236.5 405C235.119 405 234 403.881 234 402.5C234 401.119 235.119 400 236.5 400C237.881 400 239 401.119 239 402.5ZM132.5 405C133.881 405 135 403.881 135 402.5C135 401.119 133.881 400 132.5 400C131.119 400 130 401.119 130 402.5C130 403.881 131.119 405 132.5 405ZM265 402.5C265 403.881 263.881 405 262.5 405C261.119 405 260 403.881 260 402.5C260 401.119 261.119 400 262.5 400C263.881 400 265 401.119 265 402.5ZM158.5 405C159.881 405 161 403.881 161 402.5C161 401.119 159.881 400 158.5 400C157.119 400 156 401.119 156 402.5C156 403.881 157.119 405 158.5 405ZM57 402.5C57 403.881 55.8807 405 54.5 405C53.1193 405 52 403.881 52 402.5C52 401.119 53.1193 400 54.5 400C55.8807 400 57 401.119 57 402.5ZM210.5 405C211.881 405 213 403.881 213 402.5C213 401.119 211.881 400 210.5 400C209.119 400 208 401.119 208 402.5C208 403.881 209.119 405 210.5 405ZM5 402.5C5 403.881 3.88071 405 2.5 405C1.11929 405 0 403.881 0 402.5C0 401.119 1.11929 400 2.5 400C3.88071 400 5 401.119 5 402.5ZM184.5 425C185.881 425 187 423.881 187 422.5C187 421.119 185.881 420 184.5 420C183.119 420 182 421.119 182 422.5C182 423.881 183.119 425 184.5 425ZM83 422.5C83 423.881 81.8807 425 80.5 425C79.1193 425 78 423.881 78 422.5C78 421.119 79.1193 420 80.5 420C81.8807 420 83 421.119 83 422.5ZM236.5 425C237.881 425 239 423.881 239 422.5C239 421.119 237.881 420 236.5 420C235.119 420 234 421.119 234 422.5C234 423.881 235.119 425 236.5 425ZM135 422.5C135 423.881 133.881 425 132.5 425C131.119 425 130 423.881 130 422.5C130 421.119 131.119 420 132.5 420C133.881 420 135 421.119 135 422.5ZM262.5 425C263.881 425 265 423.881 265 422.5C265 421.119 263.881 420 262.5 420C261.119 420 260 421.119 260 422.5C260 423.881 261.119 425 262.5 425ZM57 422.5C57 423.881 55.8807 425 54.5 425C53.1193 425 52 423.881 52 422.5C52 421.119 53.1193 420 54.5 420C55.8807 420 57 421.119 57 422.5ZM210.5 425C211.881 425 213 423.881 213 422.5C213 421.119 211.881 420 210.5 420C209.119 420 208 421.119 208 422.5C208 423.881 209.119 425 210.5 425ZM109 422.5C109 423.881 107.881 425 106.5 425C105.119 425 104 423.881 104 422.5C104 421.119 105.119 420 106.5 420C107.881 420 109 421.119 109 422.5ZM2.5 425C3.88071 425 5 423.881 5 422.5C5 421.119 3.88071 420 2.5 420C1.11929 420 0 421.119 0 422.5C0 423.881 1.11929 425 2.5 425ZM187 442.5C187 443.881 185.881 445 184.5 445C183.119 445 182 443.881 182 442.5C182 441.119 183.119 440 184.5 440C185.881 440 187 441.119 187 442.5ZM80.5 445C81.8807 445 83 443.881 83 442.5C83 441.119 81.8807 440 80.5 440C79.1193 440 78 441.119 78 442.5C78 443.881 79.1193 445 80.5 445ZM239 442.5C239 443.881 237.881 445 236.5 445C235.119 445 234 443.881 234 442.5C234 441.119 235.119 440 236.5 440C237.881 440 239 441.119 239 442.5ZM132.5 445C133.881 445 135 443.881 135 442.5C135 441.119 133.881 440 132.5 440C131.119 440 130 441.119 130 442.5C130 443.881 131.119 445 132.5 445ZM265 442.5C265 443.881 263.881 445 262.5 445C261.119 445 260 443.881 260 442.5C260 441.119 261.119 440 262.5 440C263.881 440 265 441.119 265 442.5ZM54.5 445C55.8807 445 57 443.881 57 442.5C57 441.119 55.8807 440 54.5 440C53.1193 440 52 441.119 52 442.5C52 443.881 53.1193 445 54.5 445ZM213 442.5C213 443.881 211.881 445 210.5 445C209.119 445 208 443.881 208 442.5C208 441.119 209.119 440 210.5 440C211.881 440 213 441.119 213 442.5ZM106.5 445C107.881 445 109 443.881 109 442.5C109 441.119 107.881 440 106.5 440C105.119 440 104 441.119 104 442.5C104 443.881 105.119 445 106.5 445ZM5 442.5C5 443.881 3.88071 445 2.5 445C1.11929 445 0 443.881 0 442.5C0 441.119 1.11929 440 2.5 440C3.88071 440 5 441.119 5 442.5ZM184.5 465C185.881 465 187 463.881 187 462.5C187 461.119 185.881 460 184.5 460C183.119 460 182 461.119 182 462.5C182 463.881 183.119 465 184.5 465ZM83 462.5C83 463.881 81.8807 465 80.5 465C79.1193 465 78 463.881 78 462.5C78 461.119 79.1193 460 80.5 460C81.8807 460 83 461.119 83 462.5ZM132.5 465C133.881 465 135 463.881 135 462.5C135 461.119 133.881 460 132.5 460C131.119 460 130 461.119 130 462.5C130 463.881 131.119 465 132.5 465ZM57 462.5C57 463.881 55.8807 465 54.5 465C53.1193 465 52 463.881 52 462.5C52 461.119 53.1193 460 54.5 460C55.8807 460 57 461.119 57 462.5ZM210.5 465C211.881 465 213 463.881 213 462.5C213 461.119 211.881 460 210.5 460C209.119 460 208 461.119 208 462.5C208 463.881 209.119 465 210.5 465ZM109 462.5C109 463.881 107.881 465 106.5 465C105.119 465 104 463.881 104 462.5C104 461.119 105.119 460 106.5 460C107.881 460 109 461.119 109 462.5ZM2.5 465C3.88071 465 5 463.881 5 462.5C5 461.119 3.88071 460 2.5 460C1.11929 460 0 461.119 0 462.5C0 463.881 1.11929 465 2.5 465ZM83 482.5C83 483.881 81.8807 485 80.5 485C79.1193 485 78 483.881 78 482.5C78 481.119 79.1193 480 80.5 480C81.8807 480 83 481.119 83 482.5ZM132.5 485C133.881 485 135 483.881 135 482.5C135 481.119 133.881 480 132.5 480C131.119 480 130 481.119 130 482.5C130 483.881 131.119 485 132.5 485ZM57 482.5C57 483.881 55.8807 485 54.5 485C53.1193 485 52 483.881 52 482.5C52 481.119 53.1193 480 54.5 480C55.8807 480 57 481.119 57 482.5ZM106.5 485C107.881 485 109 483.881 109 482.5C109 481.119 107.881 480 106.5 480C105.119 480 104 481.119 104 482.5C104 483.881 105.119 485 106.5 485ZM5 482.5C5 483.881 3.88071 485 2.5 485C1.11929 485 0 483.881 0 482.5C0 481.119 1.11929 480 2.5 480C3.88071 480 5 481.119 5 482.5ZM54.5 505C55.8807 505 57 503.881 57 502.5C57 501.119 55.8807 500 54.5 500C53.1193 500 52 501.119 52 502.5C52 503.881 53.1193 505 54.5 505ZM5 502.5C5 503.881 3.88071 505 2.5 505C1.11929 505 0 503.881 0 502.5C0 501.119 1.11929 500 2.5 500C3.88071 500 5 501.119 5 502.5Z" fill="#41B2F1"/>
</svg>
