<svg width="271" height="505" viewBox="0 0 271 505" fill="none" xmlns="http://www.w3.org/2000/svg">
<path opacity="0.2" fill-rule="evenodd" clip-rule="evenodd" d="M-17.5 5C-16.1193 5 -15 3.88071 -15 2.5C-15 1.11929 -16.1193 0 -17.5 0C-18.8807 0 -20 1.11929 -20 2.5C-20 3.88071 -18.8807 5 -17.5 5ZM8.5 5C9.88071 5 11 3.88071 11 2.5C11 1.11929 9.88071 0 8.5 0C7.11929 0 6 1.11929 6 2.5C6 3.88071 7.11929 5 8.5 5ZM60.5 5C61.8807 5 63 3.88071 63 2.5C63 1.11929 61.8807 0 60.5 0C59.1193 0 58 1.11929 58 2.5C58 3.88071 59.1193 5 60.5 5ZM37 2.5C37 3.88071 35.8807 5 34.5 5C33.1193 5 32 3.88071 32 2.5C32 1.11929 33.1193 0 34.5 0C35.8807 0 37 1.11929 37 2.5ZM63 22.5C63 23.8807 61.8807 25 60.5 25C59.1193 25 58 23.8807 58 22.5C58 21.1193 59.1193 20 60.5 20C61.8807 20 63 21.1193 63 22.5ZM112.5 25C113.881 25 115 23.8807 115 22.5C115 21.1193 113.881 20 112.5 20C111.119 20 110 21.1193 110 22.5C110 23.8807 111.119 25 112.5 25ZM11 22.5C11 23.8807 9.88071 25 8.5 25C7.11929 25 6 23.8807 6 22.5C6 21.1193 7.11929 20 8.5 20C9.88071 20 11 21.1193 11 22.5ZM34.5 25C35.8807 25 37 23.8807 37 22.5C37 21.1193 35.8807 20 34.5 20C33.1193 20 32 21.1193 32 22.5C32 23.8807 33.1193 25 34.5 25ZM89 22.5C89 23.8807 87.8807 25 86.5 25C85.1193 25 84 23.8807 84 22.5C84 21.1193 85.1193 20 86.5 20C87.8807 20 89 21.1193 89 22.5ZM-17.5 25C-16.1193 25 -15 23.8807 -15 22.5C-15 21.1193 -16.1193 20 -17.5 20C-18.8807 20 -20 21.1193 -20 22.5C-20 23.8807 -18.8807 25 -17.5 25ZM167 62.5C167 63.8807 165.881 65 164.5 65C163.119 65 162 63.8807 162 62.5C162 61.1193 163.119 60 164.5 60C165.881 60 167 61.1193 167 62.5ZM60.5 65C61.8807 65 63 63.8807 63 62.5C63 61.1193 61.8807 60 60.5 60C59.1193 60 58 61.1193 58 62.5C58 63.8807 59.1193 65 60.5 65ZM115 62.5C115 63.8807 113.881 65 112.5 65C111.119 65 110 63.8807 110 62.5C110 61.1193 111.119 60 112.5 60C113.881 60 115 61.1193 115 62.5ZM8.5 65C9.88071 65 11 63.8807 11 62.5C11 61.1193 9.88071 60 8.5 60C7.11929 60 6 61.1193 6 62.5C6 63.8807 7.11929 65 8.5 65ZM141 62.5C141 63.8807 139.881 65 138.5 65C137.119 65 136 63.8807 136 62.5C136 61.1193 137.119 60 138.5 60C139.881 60 141 61.1193 141 62.5ZM34.5 65C35.8807 65 37 63.8807 37 62.5C37 61.1193 35.8807 60 34.5 60C33.1193 60 32 61.1193 32 62.5C32 63.8807 33.1193 65 34.5 65ZM193 62.5C193 63.8807 191.881 65 190.5 65C189.119 65 188 63.8807 188 62.5C188 61.1193 189.119 60 190.5 60C191.881 60 193 61.1193 193 62.5ZM86.5 65C87.8807 65 89 63.8807 89 62.5C89 61.1193 87.8807 60 86.5 60C85.1193 60 84 61.1193 84 62.5C84 63.8807 85.1193 65 86.5 65ZM-15 62.5C-15 63.8807 -16.1193 65 -17.5 65C-18.8807 65 -20 63.8807 -20 62.5C-20 61.1193 -18.8807 60 -17.5 60C-16.1193 60 -15 61.1193 -15 62.5ZM164.5 85C165.881 85 167 83.8807 167 82.5C167 81.1193 165.881 80 164.5 80C163.119 80 162 81.1193 162 82.5C162 83.8807 163.119 85 164.5 85ZM63 82.5C63 83.8807 61.8807 85 60.5 85C59.1193 85 58 83.8807 58 82.5C58 81.1193 59.1193 80 60.5 80C61.8807 80 63 81.1193 63 82.5ZM112.5 85C113.881 85 115 83.8807 115 82.5C115 81.1193 113.881 80 112.5 80C111.119 80 110 81.1193 110 82.5C110 83.8807 111.119 85 112.5 85ZM11 82.5C11 83.8807 9.88071 85 8.5 85C7.11929 85 6 83.8807 6 82.5C6 81.1193 7.11929 80 8.5 80C9.88071 80 11 81.1193 11 82.5ZM138.5 85C139.881 85 141 83.8807 141 82.5C141 81.1193 139.881 80 138.5 80C137.119 80 136 81.1193 136 82.5C136 83.8807 137.119 85 138.5 85ZM37 82.5C37 83.8807 35.8807 85 34.5 85C33.1193 85 32 83.8807 32 82.5C32 81.1193 33.1193 80 34.5 80C35.8807 80 37 81.1193 37 82.5ZM190.5 85C191.881 85 193 83.8807 193 82.5C193 81.1193 191.881 80 190.5 80C189.119 80 188 81.1193 188 82.5C188 83.8807 189.119 85 190.5 85ZM89 82.5C89 83.8807 87.8807 85 86.5 85C85.1193 85 84 83.8807 84 82.5C84 81.1193 85.1193 80 86.5 80C87.8807 80 89 81.1193 89 82.5ZM-17.5 85C-16.1193 85 -15 83.8807 -15 82.5C-15 81.1193 -16.1193 80 -17.5 80C-18.8807 80 -20 81.1193 -20 82.5C-20 83.8807 -18.8807 85 -17.5 85ZM167 102.5C167 103.881 165.881 105 164.5 105C163.119 105 162 103.881 162 102.5C162 101.119 163.119 100 164.5 100C165.881 100 167 101.119 167 102.5ZM60.5 105C61.8807 105 63 103.881 63 102.5C63 101.119 61.8807 100 60.5 100C59.1193 100 58 101.119 58 102.5C58 103.881 59.1193 105 60.5 105ZM219 102.5C219 103.881 217.881 105 216.5 105C215.119 105 214 103.881 214 102.5C214 101.119 215.119 100 216.5 100C217.881 100 219 101.119 219 102.5ZM112.5 105C113.881 105 115 103.881 115 102.5C115 101.119 113.881 100 112.5 100C111.119 100 110 101.119 110 102.5C110 103.881 111.119 105 112.5 105ZM11 102.5C11 103.881 9.88071 105 8.5 105C7.11929 105 6 103.881 6 102.5C6 101.119 7.11929 100 8.5 100C9.88071 100 11 101.119 11 102.5ZM242.5 105C243.881 105 245 103.881 245 102.5C245 101.119 243.881 100 242.5 100C241.119 100 240 101.119 240 102.5C240 103.881 241.119 105 242.5 105ZM141 102.5C141 103.881 139.881 105 138.5 105C137.119 105 136 103.881 136 102.5C136 101.119 137.119 100 138.5 100C139.881 100 141 101.119 141 102.5ZM34.5 105C35.8807 105 37 103.881 37 102.5C37 101.119 35.8807 100 34.5 100C33.1193 100 32 101.119 32 102.5C32 103.881 33.1193 105 34.5 105ZM193 102.5C193 103.881 191.881 105 190.5 105C189.119 105 188 103.881 188 102.5C188 101.119 189.119 100 190.5 100C191.881 100 193 101.119 193 102.5ZM86.5 105C87.8807 105 89 103.881 89 102.5C89 101.119 87.8807 100 86.5 100C85.1193 100 84 101.119 84 102.5C84 103.881 85.1193 105 86.5 105ZM-15 102.5C-15 103.881 -16.1193 105 -17.5 105C-18.8807 105 -20 103.881 -20 102.5C-20 101.119 -18.8807 100 -17.5 100C-16.1193 100 -15 101.119 -15 102.5ZM268.5 125C269.881 125 271 123.881 271 122.5C271 121.119 269.881 120 268.5 120C267.119 120 266 121.119 266 122.5C266 123.881 267.119 125 268.5 125ZM167 122.5C167 123.881 165.881 125 164.5 125C163.119 125 162 123.881 162 122.5C162 121.119 163.119 120 164.5 120C165.881 120 167 121.119 167 122.5ZM60.5 125C61.8807 125 63 123.881 63 122.5C63 121.119 61.8807 120 60.5 120C59.1193 120 58 121.119 58 122.5C58 123.881 59.1193 125 60.5 125ZM219 122.5C219 123.881 217.881 125 216.5 125C215.119 125 214 123.881 214 122.5C214 121.119 215.119 120 216.5 120C217.881 120 219 121.119 219 122.5ZM112.5 125C113.881 125 115 123.881 115 122.5C115 121.119 113.881 120 112.5 120C111.119 120 110 121.119 110 122.5C110 123.881 111.119 125 112.5 125ZM245 122.5C245 123.881 243.881 125 242.5 125C241.119 125 240 123.881 240 122.5C240 121.119 241.119 120 242.5 120C243.881 120 245 121.119 245 122.5ZM138.5 125C139.881 125 141 123.881 141 122.5C141 121.119 139.881 120 138.5 120C137.119 120 136 121.119 136 122.5C136 123.881 137.119 125 138.5 125ZM37 122.5C37 123.881 35.8807 125 34.5 125C33.1193 125 32 123.881 32 122.5C32 121.119 33.1193 120 34.5 120C35.8807 120 37 121.119 37 122.5ZM190.5 125C191.881 125 193 123.881 193 122.5C193 121.119 191.881 120 190.5 120C189.119 120 188 121.119 188 122.5C188 123.881 189.119 125 190.5 125ZM89 122.5C89 123.881 87.8807 125 86.5 125C85.1193 125 84 123.881 84 122.5C84 121.119 85.1193 120 86.5 120C87.8807 120 89 121.119 89 122.5ZM60.5 145C61.8807 145 63 143.881 63 142.5C63 141.119 61.8807 140 60.5 140C59.1193 140 58 141.119 58 142.5C58 143.881 59.1193 145 60.5 145ZM115 142.5C115 143.881 113.881 145 112.5 145C111.119 145 110 143.881 110 142.5C110 141.119 111.119 140 112.5 140C113.881 140 115 141.119 115 142.5ZM138.5 145C139.881 145 141 143.881 141 142.5C141 141.119 139.881 140 138.5 140C137.119 140 136 141.119 136 142.5C136 143.881 137.119 145 138.5 145ZM37 142.5C37 143.881 35.8807 145 34.5 145C33.1193 145 32 143.881 32 142.5C32 141.119 33.1193 140 34.5 140C35.8807 140 37 141.119 37 142.5ZM86.5 145C87.8807 145 89 143.881 89 142.5C89 141.119 87.8807 140 86.5 140C85.1193 140 84 141.119 84 142.5C84 143.881 85.1193 145 86.5 145ZM271 162.5C271 163.881 269.881 165 268.5 165C267.119 165 266 163.881 266 162.5C266 161.119 267.119 160 268.5 160C269.881 160 271 161.119 271 162.5ZM164.5 165C165.881 165 167 163.881 167 162.5C167 161.119 165.881 160 164.5 160C163.119 160 162 161.119 162 162.5C162 163.881 163.119 165 164.5 165ZM219 162.5C219 163.881 217.881 165 216.5 165C215.119 165 214 163.881 214 162.5C214 161.119 215.119 160 216.5 160C217.881 160 219 161.119 219 162.5ZM112.5 165C113.881 165 115 163.881 115 162.5C115 161.119 113.881 160 112.5 160C111.119 160 110 161.119 110 162.5C110 163.881 111.119 165 112.5 165ZM245 162.5C245 163.881 243.881 165 242.5 165C241.119 165 240 163.881 240 162.5C240 161.119 241.119 160 242.5 160C243.881 160 245 161.119 245 162.5ZM138.5 165C139.881 165 141 163.881 141 162.5C141 161.119 139.881 160 138.5 160C137.119 160 136 161.119 136 162.5C136 163.881 137.119 165 138.5 165ZM193 162.5C193 163.881 191.881 165 190.5 165C189.119 165 188 163.881 188 162.5C188 161.119 189.119 160 190.5 160C191.881 160 193 161.119 193 162.5ZM86.5 165C87.8807 165 89 163.881 89 162.5C89 161.119 87.8807 160 86.5 160C85.1193 160 84 161.119 84 162.5C84 163.881 85.1193 165 86.5 165ZM63 182.5C63 183.881 61.8807 185 60.5 185C59.1193 185 58 183.881 58 182.5C58 181.119 59.1193 180 60.5 180C61.8807 180 63 181.119 63 182.5ZM216.5 185C217.881 185 219 183.881 219 182.5C219 181.119 217.881 180 216.5 180C215.119 180 214 181.119 214 182.5C214 183.881 215.119 185 216.5 185ZM37 182.5C37 183.881 35.8807 185 34.5 185C33.1193 185 32 183.881 32 182.5C32 181.119 33.1193 180 34.5 180C35.8807 180 37 181.119 37 182.5ZM164.5 205C165.881 205 167 203.881 167 202.5C167 201.119 165.881 200 164.5 200C163.119 200 162 201.119 162 202.5C162 203.881 163.119 205 164.5 205ZM219 202.5C219 203.881 217.881 205 216.5 205C215.119 205 214 203.881 214 202.5C214 201.119 215.119 200 216.5 200C217.881 200 219 201.119 219 202.5ZM112.5 205C113.881 205 115 203.881 115 202.5C115 201.119 113.881 200 112.5 200C111.119 200 110 201.119 110 202.5C110 203.881 111.119 205 112.5 205ZM141 202.5C141 203.881 139.881 205 138.5 205C137.119 205 136 203.881 136 202.5C136 201.119 137.119 200 138.5 200C139.881 200 141 201.119 141 202.5ZM190.5 205C191.881 205 193 203.881 193 202.5C193 201.119 191.881 200 190.5 200C189.119 200 188 201.119 188 202.5C188 203.881 189.119 205 190.5 205ZM271 222.5C271 223.881 269.881 225 268.5 225C267.119 225 266 223.881 266 222.5C266 221.119 267.119 220 268.5 220C269.881 220 271 221.119 271 222.5ZM164.5 225C165.881 225 167 223.881 167 222.5C167 221.119 165.881 220 164.5 220C163.119 220 162 221.119 162 222.5C162 223.881 163.119 225 164.5 225ZM219 222.5C219 223.881 217.881 225 216.5 225C215.119 225 214 223.881 214 222.5C214 221.119 215.119 220 216.5 220C217.881 220 219 221.119 219 222.5ZM242.5 225C243.881 225 245 223.881 245 222.5C245 221.119 243.881 220 242.5 220C241.119 220 240 221.119 240 222.5C240 223.881 241.119 225 242.5 225ZM141 222.5C141 223.881 139.881 225 138.5 225C137.119 225 136 223.881 136 222.5C136 221.119 137.119 220 138.5 220C139.881 220 141 221.119 141 222.5ZM190.5 225C191.881 225 193 223.881 193 222.5C193 221.119 191.881 220 190.5 220C189.119 220 188 221.119 188 222.5C188 223.881 189.119 225 190.5 225ZM271 242.5C271 243.881 269.881 245 268.5 245C267.119 245 266 243.881 266 242.5C266 241.119 267.119 240 268.5 240C269.881 240 271 241.119 271 242.5ZM164.5 245C165.881 245 167 243.881 167 242.5C167 241.119 165.881 240 164.5 240C163.119 240 162 241.119 162 242.5C162 243.881 163.119 245 164.5 245ZM219 242.5C219 243.881 217.881 245 216.5 245C215.119 245 214 243.881 214 242.5C214 241.119 215.119 240 216.5 240C217.881 240 219 241.119 219 242.5ZM242.5 245C243.881 245 245 243.881 245 242.5C245 241.119 243.881 240 242.5 240C241.119 240 240 241.119 240 242.5C240 243.881 241.119 245 242.5 245ZM141 242.5C141 243.881 139.881 245 138.5 245C137.119 245 136 243.881 136 242.5C136 241.119 137.119 240 138.5 240C139.881 240 141 241.119 141 242.5ZM190.5 245C191.881 245 193 243.881 193 242.5C193 241.119 191.881 240 190.5 240C189.119 240 188 241.119 188 242.5C188 243.881 189.119 245 190.5 245ZM271 282.5C271 283.881 269.881 285 268.5 285C267.119 285 266 283.881 266 282.5C266 281.119 267.119 280 268.5 280C269.881 280 271 281.119 271 282.5ZM164.5 285C165.881 285 167 283.881 167 282.5C167 281.119 165.881 280 164.5 280C163.119 280 162 281.119 162 282.5C162 283.881 163.119 285 164.5 285ZM219 282.5C219 283.881 217.881 285 216.5 285C215.119 285 214 283.881 214 282.5C214 281.119 215.119 280 216.5 280C217.881 280 219 281.119 219 282.5ZM242.5 285C243.881 285 245 283.881 245 282.5C245 281.119 243.881 280 242.5 280C241.119 280 240 281.119 240 282.5C240 283.881 241.119 285 242.5 285ZM141 282.5C141 283.881 139.881 285 138.5 285C137.119 285 136 283.881 136 282.5C136 281.119 137.119 280 138.5 280C139.881 280 141 281.119 141 282.5ZM190.5 285C191.881 285 193 283.881 193 282.5C193 281.119 191.881 280 190.5 280C189.119 280 188 281.119 188 282.5C188 283.881 189.119 285 190.5 285ZM271 302.5C271 303.881 269.881 305 268.5 305C267.119 305 266 303.881 266 302.5C266 301.119 267.119 300 268.5 300C269.881 300 271 301.119 271 302.5ZM216.5 305C217.881 305 219 303.881 219 302.5C219 301.119 217.881 300 216.5 300C215.119 300 214 301.119 214 302.5C214 303.881 215.119 305 216.5 305ZM11 302.5C11 303.881 9.88071 305 8.5 305C7.11929 305 6 303.881 6 302.5C6 301.119 7.11929 300 8.5 300C9.88071 300 11 301.119 11 302.5ZM242.5 305C243.881 305 245 303.881 245 302.5C245 301.119 243.881 300 242.5 300C241.119 300 240 301.119 240 302.5C240 303.881 241.119 305 242.5 305ZM193 302.5C193 303.881 191.881 305 190.5 305C189.119 305 188 303.881 188 302.5C188 301.119 189.119 300 190.5 300C191.881 300 193 301.119 193 302.5ZM-17.5 305C-16.1193 305 -15 303.881 -15 302.5C-15 301.119 -16.1193 300 -17.5 300C-18.8807 300 -20 301.119 -20 302.5C-20 303.881 -18.8807 305 -17.5 305ZM271 322.5C271 323.881 269.881 325 268.5 325C267.119 325 266 323.881 266 322.5C266 321.119 267.119 320 268.5 320C269.881 320 271 321.119 271 322.5ZM216.5 325C217.881 325 219 323.881 219 322.5C219 321.119 217.881 320 216.5 320C215.119 320 214 321.119 214 322.5C214 323.881 215.119 325 216.5 325ZM11 322.5C11 323.881 9.88071 325 8.5 325C7.11929 325 6 323.881 6 322.5C6 321.119 7.11929 320 8.5 320C9.88071 320 11 321.119 11 322.5ZM242.5 325C243.881 325 245 323.881 245 322.5C245 321.119 243.881 320 242.5 320C241.119 320 240 321.119 240 322.5C240 323.881 241.119 325 242.5 325ZM37 322.5C37 323.881 35.8807 325 34.5 325C33.1193 325 32 323.881 32 322.5C32 321.119 33.1193 320 34.5 320C35.8807 320 37 321.119 37 322.5ZM190.5 325C191.881 325 193 323.881 193 322.5C193 321.119 191.881 320 190.5 320C189.119 320 188 321.119 188 322.5C188 323.881 189.119 325 190.5 325ZM-15 322.5C-15 323.881 -16.1193 325 -17.5 325C-18.8807 325 -20 323.881 -20 322.5C-20 321.119 -18.8807 320 -17.5 320C-16.1193 320 -15 321.119 -15 322.5ZM242.5 345C243.881 345 245 343.881 245 342.5C245 341.119 243.881 340 242.5 340C241.119 340 240 341.119 240 342.5C240 343.881 241.119 345 242.5 345ZM167 362.5C167 363.881 165.881 365 164.5 365C163.119 365 162 363.881 162 362.5C162 361.119 163.119 360 164.5 360C165.881 360 167 361.119 167 362.5ZM60.5 365C61.8807 365 63 363.881 63 362.5C63 361.119 61.8807 360 60.5 360C59.1193 360 58 361.119 58 362.5C58 363.881 59.1193 365 60.5 365ZM219 362.5C219 363.881 217.881 365 216.5 365C215.119 365 214 363.881 214 362.5C214 361.119 215.119 360 216.5 360C217.881 360 219 361.119 219 362.5ZM112.5 365C113.881 365 115 363.881 115 362.5C115 361.119 113.881 360 112.5 360C111.119 360 110 361.119 110 362.5C110 363.881 111.119 365 112.5 365ZM11 362.5C11 363.881 9.88071 365 8.5 365C7.11929 365 6 363.881 6 362.5C6 361.119 7.11929 360 8.5 360C9.88071 360 11 361.119 11 362.5ZM242.5 365C243.881 365 245 363.881 245 362.5C245 361.119 243.881 360 242.5 360C241.119 360 240 361.119 240 362.5C240 363.881 241.119 365 242.5 365ZM141 362.5C141 363.881 139.881 365 138.5 365C137.119 365 136 363.881 136 362.5C136 361.119 137.119 360 138.5 360C139.881 360 141 361.119 141 362.5ZM34.5 365C35.8807 365 37 363.881 37 362.5C37 361.119 35.8807 360 34.5 360C33.1193 360 32 361.119 32 362.5C32 363.881 33.1193 365 34.5 365ZM193 362.5C193 363.881 191.881 365 190.5 365C189.119 365 188 363.881 188 362.5C188 361.119 189.119 360 190.5 360C191.881 360 193 361.119 193 362.5ZM-17.5 365C-16.1193 365 -15 363.881 -15 362.5C-15 361.119 -16.1193 360 -17.5 360C-18.8807 360 -20 361.119 -20 362.5C-20 363.881 -18.8807 365 -17.5 365ZM167 382.5C167 383.881 165.881 385 164.5 385C163.119 385 162 383.881 162 382.5C162 381.119 163.119 380 164.5 380C165.881 380 167 381.119 167 382.5ZM60.5 385C61.8807 385 63 383.881 63 382.5C63 381.119 61.8807 380 60.5 380C59.1193 380 58 381.119 58 382.5C58 383.881 59.1193 385 60.5 385ZM219 382.5C219 383.881 217.881 385 216.5 385C215.119 385 214 383.881 214 382.5C214 381.119 215.119 380 216.5 380C217.881 380 219 381.119 219 382.5ZM112.5 385C113.881 385 115 383.881 115 382.5C115 381.119 113.881 380 112.5 380C111.119 380 110 381.119 110 382.5C110 383.881 111.119 385 112.5 385ZM11 382.5C11 383.881 9.88071 385 8.5 385C7.11929 385 6 383.881 6 382.5C6 381.119 7.11929 380 8.5 380C9.88071 380 11 381.119 11 382.5ZM242.5 385C243.881 385 245 383.881 245 382.5C245 381.119 243.881 380 242.5 380C241.119 380 240 381.119 240 382.5C240 383.881 241.119 385 242.5 385ZM141 382.5C141 383.881 139.881 385 138.5 385C137.119 385 136 383.881 136 382.5C136 381.119 137.119 380 138.5 380C139.881 380 141 381.119 141 382.5ZM34.5 385C35.8807 385 37 383.881 37 382.5C37 381.119 35.8807 380 34.5 380C33.1193 380 32 381.119 32 382.5C32 383.881 33.1193 385 34.5 385ZM193 382.5C193 383.881 191.881 385 190.5 385C189.119 385 188 383.881 188 382.5C188 381.119 189.119 380 190.5 380C191.881 380 193 381.119 193 382.5ZM-17.5 385C-16.1193 385 -15 383.881 -15 382.5C-15 381.119 -16.1193 380 -17.5 380C-18.8807 380 -20 381.119 -20 382.5C-20 383.881 -18.8807 385 -17.5 385ZM167 402.5C167 403.881 165.881 405 164.5 405C163.119 405 162 403.881 162 402.5C162 401.119 163.119 400 164.5 400C165.881 400 167 401.119 167 402.5ZM60.5 405C61.8807 405 63 403.881 63 402.5C63 401.119 61.8807 400 60.5 400C59.1193 400 58 401.119 58 402.5C58 403.881 59.1193 405 60.5 405ZM219 402.5C219 403.881 217.881 405 216.5 405C215.119 405 214 403.881 214 402.5C214 401.119 215.119 400 216.5 400C217.881 400 219 401.119 219 402.5ZM112.5 405C113.881 405 115 403.881 115 402.5C115 401.119 113.881 400 112.5 400C111.119 400 110 401.119 110 402.5C110 403.881 111.119 405 112.5 405ZM245 402.5C245 403.881 243.881 405 242.5 405C241.119 405 240 403.881 240 402.5C240 401.119 241.119 400 242.5 400C243.881 400 245 401.119 245 402.5ZM138.5 405C139.881 405 141 403.881 141 402.5C141 401.119 139.881 400 138.5 400C137.119 400 136 401.119 136 402.5C136 403.881 137.119 405 138.5 405ZM37 402.5C37 403.881 35.8807 405 34.5 405C33.1193 405 32 403.881 32 402.5C32 401.119 33.1193 400 34.5 400C35.8807 400 37 401.119 37 402.5ZM190.5 405C191.881 405 193 403.881 193 402.5C193 401.119 191.881 400 190.5 400C189.119 400 188 401.119 188 402.5C188 403.881 189.119 405 190.5 405ZM-15 402.5C-15 403.881 -16.1193 405 -17.5 405C-18.8807 405 -20 403.881 -20 402.5C-20 401.119 -18.8807 400 -17.5 400C-16.1193 400 -15 401.119 -15 402.5ZM164.5 425C165.881 425 167 423.881 167 422.5C167 421.119 165.881 420 164.5 420C163.119 420 162 421.119 162 422.5C162 423.881 163.119 425 164.5 425ZM63 422.5C63 423.881 61.8807 425 60.5 425C59.1193 425 58 423.881 58 422.5C58 421.119 59.1193 420 60.5 420C61.8807 420 63 421.119 63 422.5ZM216.5 425C217.881 425 219 423.881 219 422.5C219 421.119 217.881 420 216.5 420C215.119 420 214 421.119 214 422.5C214 423.881 215.119 425 216.5 425ZM115 422.5C115 423.881 113.881 425 112.5 425C111.119 425 110 423.881 110 422.5C110 421.119 111.119 420 112.5 420C113.881 420 115 421.119 115 422.5ZM242.5 425C243.881 425 245 423.881 245 422.5C245 421.119 243.881 420 242.5 420C241.119 420 240 421.119 240 422.5C240 423.881 241.119 425 242.5 425ZM37 422.5C37 423.881 35.8807 425 34.5 425C33.1193 425 32 423.881 32 422.5C32 421.119 33.1193 420 34.5 420C35.8807 420 37 421.119 37 422.5ZM190.5 425C191.881 425 193 423.881 193 422.5C193 421.119 191.881 420 190.5 420C189.119 420 188 421.119 188 422.5C188 423.881 189.119 425 190.5 425ZM89 422.5C89 423.881 87.8807 425 86.5 425C85.1193 425 84 423.881 84 422.5C84 421.119 85.1193 420 86.5 420C87.8807 420 89 421.119 89 422.5ZM-17.5 425C-16.1193 425 -15 423.881 -15 422.5C-15 421.119 -16.1193 420 -17.5 420C-18.8807 420 -20 421.119 -20 422.5C-20 423.881 -18.8807 425 -17.5 425ZM167 442.5C167 443.881 165.881 445 164.5 445C163.119 445 162 443.881 162 442.5C162 441.119 163.119 440 164.5 440C165.881 440 167 441.119 167 442.5ZM60.5 445C61.8807 445 63 443.881 63 442.5C63 441.119 61.8807 440 60.5 440C59.1193 440 58 441.119 58 442.5C58 443.881 59.1193 445 60.5 445ZM219 442.5C219 443.881 217.881 445 216.5 445C215.119 445 214 443.881 214 442.5C214 441.119 215.119 440 216.5 440C217.881 440 219 441.119 219 442.5ZM112.5 445C113.881 445 115 443.881 115 442.5C115 441.119 113.881 440 112.5 440C111.119 440 110 441.119 110 442.5C110 443.881 111.119 445 112.5 445ZM245 442.5C245 443.881 243.881 445 242.5 445C241.119 445 240 443.881 240 442.5C240 441.119 241.119 440 242.5 440C243.881 440 245 441.119 245 442.5ZM34.5 445C35.8807 445 37 443.881 37 442.5C37 441.119 35.8807 440 34.5 440C33.1193 440 32 441.119 32 442.5C32 443.881 33.1193 445 34.5 445ZM193 442.5C193 443.881 191.881 445 190.5 445C189.119 445 188 443.881 188 442.5C188 441.119 189.119 440 190.5 440C191.881 440 193 441.119 193 442.5ZM86.5 445C87.8807 445 89 443.881 89 442.5C89 441.119 87.8807 440 86.5 440C85.1193 440 84 441.119 84 442.5C84 443.881 85.1193 445 86.5 445ZM-15 442.5C-15 443.881 -16.1193 445 -17.5 445C-18.8807 445 -20 443.881 -20 442.5C-20 441.119 -18.8807 440 -17.5 440C-16.1193 440 -15 441.119 -15 442.5ZM164.5 465C165.881 465 167 463.881 167 462.5C167 461.119 165.881 460 164.5 460C163.119 460 162 461.119 162 462.5C162 463.881 163.119 465 164.5 465ZM63 462.5C63 463.881 61.8807 465 60.5 465C59.1193 465 58 463.881 58 462.5C58 461.119 59.1193 460 60.5 460C61.8807 460 63 461.119 63 462.5ZM112.5 465C113.881 465 115 463.881 115 462.5C115 461.119 113.881 460 112.5 460C111.119 460 110 461.119 110 462.5C110 463.881 111.119 465 112.5 465ZM37 462.5C37 463.881 35.8807 465 34.5 465C33.1193 465 32 463.881 32 462.5C32 461.119 33.1193 460 34.5 460C35.8807 460 37 461.119 37 462.5ZM190.5 465C191.881 465 193 463.881 193 462.5C193 461.119 191.881 460 190.5 460C189.119 460 188 461.119 188 462.5C188 463.881 189.119 465 190.5 465ZM89 462.5C89 463.881 87.8807 465 86.5 465C85.1193 465 84 463.881 84 462.5C84 461.119 85.1193 460 86.5 460C87.8807 460 89 461.119 89 462.5ZM-17.5 465C-16.1193 465 -15 463.881 -15 462.5C-15 461.119 -16.1193 460 -17.5 460C-18.8807 460 -20 461.119 -20 462.5C-20 463.881 -18.8807 465 -17.5 465ZM63 482.5C63 483.881 61.8807 485 60.5 485C59.1193 485 58 483.881 58 482.5C58 481.119 59.1193 480 60.5 480C61.8807 480 63 481.119 63 482.5ZM112.5 485C113.881 485 115 483.881 115 482.5C115 481.119 113.881 480 112.5 480C111.119 480 110 481.119 110 482.5C110 483.881 111.119 485 112.5 485ZM37 482.5C37 483.881 35.8807 485 34.5 485C33.1193 485 32 483.881 32 482.5C32 481.119 33.1193 480 34.5 480C35.8807 480 37 481.119 37 482.5ZM86.5 485C87.8807 485 89 483.881 89 482.5C89 481.119 87.8807 480 86.5 480C85.1193 480 84 481.119 84 482.5C84 483.881 85.1193 485 86.5 485ZM-15 482.5C-15 483.881 -16.1193 485 -17.5 485C-18.8807 485 -20 483.881 -20 482.5C-20 481.119 -18.8807 480 -17.5 480C-16.1193 480 -15 481.119 -15 482.5ZM34.5 505C35.8807 505 37 503.881 37 502.5C37 501.119 35.8807 500 34.5 500C33.1193 500 32 501.119 32 502.5C32 503.881 33.1193 505 34.5 505ZM-15 502.5C-15 503.881 -16.1193 505 -17.5 505C-18.8807 505 -20 503.881 -20 502.5C-20 501.119 -18.8807 500 -17.5 500C-16.1193 500 -15 501.119 -15 502.5Z" fill="white"/>
</svg>
