<svg width="40" height="40" viewBox="0 0 40 40" fill="none" xmlns="http://www.w3.org/2000/svg">
<rect width="40" height="40" rx="8" fill="#41B2F1"/>
<path d="M32 21.616V18.384C30.349 17.797 29.306 17.632 28.781 16.365V16.364C28.254 15.093 28.881 14.23 29.628 12.657L27.343 10.372C25.782 11.114 24.91 11.747 23.636 11.219H23.635C22.366 10.693 22.2 9.643 21.616 8H18.384C17.802 9.635 17.635 10.692 16.365 11.219H16.364C15.093 11.747 14.232 11.121 12.657 10.372L10.372 12.657C11.117 14.225 11.747 15.091 11.219 16.364C10.692 17.635 9.635 17.802 8 18.384V21.616C9.632 22.196 10.692 22.365 11.219 23.635C11.749 24.917 11.105 25.801 10.372 27.342L12.657 29.628C14.219 28.885 15.091 28.253 16.364 28.781H16.365C17.635 29.307 17.801 30.36 18.384 32H21.616C22.198 30.364 22.366 29.31 23.643 28.778H23.644C24.906 28.254 25.764 28.879 27.342 29.629L29.627 27.343C28.883 25.78 28.252 24.91 28.779 23.637C29.306 22.366 30.367 22.197 32 21.616ZM20 24C17.791 24 16 22.209 16 20C16 17.791 17.791 16 20 16C22.209 16 24 17.791 24 20C24 22.209 22.209 24 20 24Z" fill="white"/>
</svg>
