<svg width="64" height="64" viewBox="0 0 64 64" fill="none" xmlns="https://www.w3.org/2000/svg">
<rect width="64" height="64" rx="8" fill="#41B2F1"/>
<path d="M31.2893 27.2587L32.4507 31.8333L35.912 22.6853L26.6667 26.116L31.2893 27.2587ZM32 16C26.1093 16 21.3333 20.6387 21.3333 26.36C21.3333 32.1707 26 36.1427 32 41.3333C38 36.1427 42.6667 32.1707 42.6667 26.36C42.6667 20.6387 37.8907 16 32 16ZM32 34.2973C27.6787 34.2973 24.1787 30.8307 24.1787 26.556C24.1787 22.2813 27.6787 18.8147 32 18.8147C36.3213 18.8147 39.8213 22.2813 39.8213 26.556C39.8213 30.8307 36.3213 34.2973 32 34.2973ZM42.6667 37.3333H40.2653C39.4267 38.2307 38.5107 39.1133 37.544 40H41.0173L41.684 41.3333H36.06L34.532 42.6667H35.8987L37.0427 45.3333H27.06L28.204 42.6667H29.4667C28.948 42.2187 28.4373 41.7747 27.9373 41.3333H25.2773L23.9293 40H26.456C25.4893 39.1147 24.576 38.2307 23.7373 37.3333H21.3333L16 48H48L42.6667 37.3333ZM25.608 45.3333H20.3147L22.6667 40.6293L24.688 42.6667H26.7533L25.608 45.3333ZM37.352 42.6667H42.352L43.6853 45.3333H38.496L37.352 42.6667Z" fill="white"/>
</svg>
