<svg width="64" height="64" viewBox="0 0 64 64" fill="none" xmlns="http://www.w3.org/2000/svg">
<rect width="64" height="64" rx="8" fill="#41B2F1"/>
<path d="M29.3333 42C29.3333 43.1053 28.4373 44 27.3333 44C26.2293 44 25.3333 43.1053 25.3333 42C25.3333 40.896 26.2293 40 27.3333 40C28.4373 40 29.3333 40.896 29.3333 42ZM34 40C32.896 40 32 40.8947 32 42C32 43.1053 32.896 44 34 44C35.104 44 36 43.1053 36 42C36 40.896 35.104 40 34 40ZM35.7813 33.3333L38.4173 24H16L19.9173 33.3333H35.7813ZM42.4067 20L37.8307 36H21.0347L22.1533 38.6667H39.8053L44.4373 22.6667H47.0093L48 20H42.4067Z" fill="white"/>
</svg>
