<svg width="64" height="64" viewBox="0 0 64 64" fill="none" xmlns="http://www.w3.org/2000/svg">
<rect width="64" height="64" rx="8" fill="#41B2F1"/>
<path d="M38.6667 22.6667V38.6667C38.6667 42.3427 35.6761 45.3333 32.0001 45.3333C28.3241 45.3333 25.3334 42.3427 25.3334 38.6667V22.6667C25.3334 20.4613 27.1281 18.6667 29.3334 18.6667C31.5387 18.6667 33.3334 20.4613 33.3334 22.6667V34.6667C33.3334 35.4013 32.7347 36 32.0001 36C31.2654 36 30.6667 35.4013 30.6667 34.6667V24H28.0001V34.6667C28.0001 36.876 29.7907 38.6667 32.0001 38.6667C34.2094 38.6667 36.0001 36.876 36.0001 34.6667V22.6667C36.0001 18.9853 33.0147 16 29.3334 16C25.6521 16 22.6667 18.9853 22.6667 22.6667V38.6667C22.6667 43.8213 26.8454 48 32.0001 48C37.1547 48 41.3334 43.8213 41.3334 38.6667V22.6667H38.6667Z" fill="white"/>
</svg>
