<svg width="64" height="64" viewBox="0 0 64 64" fill="none" xmlns="https://www.w3.org/2000/svg">
<rect width="64" height="64" rx="8" fill="#41B2F1"/>
<g clip-path="url(#clip0)">
<path fill-rule="evenodd" clip-rule="evenodd" d="M31.22 32.524L33.7107 29.472C34.2773 28.7467 34.0093 28.1547 33.6373 26.5853C33.364 25.424 33.5787 24.1133 34.4 23.252C36.748 20.7933 41.524 16 41.524 16L42.1533 16.4933L37.2293 22.7973L38.2827 23.62L43.4427 17.5L44.0813 17.9973L39.3373 24.444L40.3907 25.268L45.5707 19.1613L46.1613 19.624L41.444 26.0907L42.4987 26.9133L47.4227 20.6093L48 21.06C48 21.06 44.6 26.8733 42.8027 29.7733C42.164 30.8013 40.9027 31.3213 39.6907 31.3293C38.076 31.3387 37.444 31.2107 36.868 31.948L33.8267 35.6747C37.0867 39.624 39.9053 43.0493 41.2573 44.78C42.2853 46.096 41.344 48.008 39.66 48.008C39.1 48.008 38.5227 47.78 38.104 47.244L26.9573 33.8147C26.9573 33.8147 25.7227 34.7733 24.3653 35.8387C20.136 28.9267 16.0093 20.2907 16.0093 17.232C16.0093 17.0613 15.964 16 16.9853 16C17.312 16 17.6427 16.1547 17.884 16.4587C18.5627 17.3147 25.104 25.1427 31.22 32.524ZM27.284 37.3467L29.888 40.5L24.4013 47.24C24.008 47.744 23.42 48.008 22.8253 48.008C21.228 48.008 20.1707 46.1387 21.24 44.7707L27.284 37.3467Z" fill="white"/>
</g>
<defs>
<clipPath id="clip0">
<rect width="32" height="32" fill="white" transform="translate(16 16)"/>
</clipPath>
</defs>
</svg>
