<svg width="64" height="64" viewBox="0 0 64 64" fill="none" xmlns="http://www.w3.org/2000/svg">
<rect width="64" height="64" rx="8" fill="#41B2F1"/>
<g clip-path="url(#clip0)">
<path d="M29.252 16L28 22.628V24.092C28 25.5133 26.756 26.6667 25.3333 26.6667C23.9107 26.6667 22.6667 25.5133 22.6667 24.0907V22.628L26.6613 16H29.252ZM25.1827 16L21.3333 22.628V24.092C21.3333 25.5133 20.0893 26.6667 18.6667 26.6667C17.244 26.6667 16 25.5133 16 24.0907V22.628L22.4987 16H25.1827ZM48 24.0907C48 25.5133 46.756 26.6667 45.3333 26.6667C43.9107 26.6667 42.6667 25.4227 42.6667 24V22.536L38.8173 16H41.5027L48 22.628V24.0907ZM34.6667 22.5333V23.9973C34.6667 25.4187 33.4227 26.6667 32 26.6667C30.5773 26.6667 29.3333 25.4227 29.3333 24V22.536L30.7293 16H33.2693L34.6667 22.5333ZM37.3387 16L41.3293 22.6693V24.1333C41.3307 25.556 40.0893 26.6667 38.6667 26.6667C37.244 26.6667 36 25.4227 36 24V22.536L34.748 16H37.3387V16ZM17.3333 29.3333V48H30.6667V45.3333H20V32H44V48H46.6667V29.3333H17.3333ZM41.3333 34.6667H33.3333V48H41.3333V34.6667Z" fill="white"/>
</g>
<defs>
<clipPath id="clip0">
<rect width="32" height="32" fill="white" transform="translate(16 16)"/>
</clipPath>
</defs>
</svg>
