<svg width="40" height="40" viewBox="0 0 40 40" fill="none" xmlns="http://www.w3.org/2000/svg">
<rect width="40" height="40" rx="8" fill="#41B2F1"/>
<path d="M18.2599 12.171C17.6799 11.885 17.1669 11.654 16.6789 11.452C17.4489 9.372 18.5609 8 19.9999 8C21.4019 8 22.4939 9.301 23.2599 11.292C22.7679 11.503 22.2619 11.739 21.6879 12.031C21.0999 10.464 20.4299 9.756 19.9999 9.756C19.5579 9.756 18.8599 10.506 18.2599 12.171ZM19.9999 30.244C19.5709 30.244 18.8999 29.536 18.3119 27.969C17.7319 28.264 17.2309 28.497 16.7399 28.708C17.5069 30.699 18.5979 32 19.9999 32C21.4389 32 22.5509 30.628 23.3209 28.548C22.8359 28.347 22.3239 28.117 21.7399 27.829C21.1399 29.494 20.4419 30.244 19.9999 30.244ZM15.2919 28.028C13.3749 28.733 10.5139 29.42 9.37593 27.711C8.81393 26.866 8.60493 25.243 10.7959 22.303C11.3779 21.523 12.0499 20.758 12.7329 20.054C14.2639 18.5 15.9889 17.004 18.2379 15.456C17.1549 14.86 15.9739 14.29 14.8219 13.865C13.6419 13.431 12.6029 13.19 11.8069 13.19C11.2989 13.19 10.9209 13.297 10.7979 13.479C10.6669 13.671 10.6599 14.262 11.2429 15.321L11.4529 15.309C12.5009 15.309 13.3499 16.174 13.3499 17.241C13.3499 18.308 12.4999 19.173 11.4529 19.173C10.4059 19.173 9.55593 18.308 9.55593 17.241C9.55593 16.896 9.64493 16.572 9.80193 16.291C8.69193 14.331 8.92093 13.152 9.38293 12.476C9.70693 12 10.3919 11.434 11.8069 11.434C14.3209 11.434 17.7079 13.094 19.8889 14.38C22.1029 13.017 25.6059 11.22 28.1929 11.22C29.6139 11.22 30.2989 11.801 30.6239 12.289C31.1859 13.134 31.3949 14.757 29.2039 17.696C26.1199 21.833 19.9879 26.302 15.2919 28.028ZM27.8299 16.634C29.3359 14.615 29.3819 13.552 29.1959 13.273C29.0699 13.084 28.7039 12.975 28.1929 12.975C26.2399 12.975 23.2669 14.434 21.5549 15.422C22.8199 16.259 23.9999 17.141 25.0769 18.039C24.6699 18.452 24.2429 18.858 23.8059 19.25C22.6109 18.266 21.2829 17.303 19.9059 16.439C18.3249 17.476 16.7329 18.693 15.3029 19.99C16.3779 20.941 17.6589 21.939 19.0239 22.863C18.5019 23.194 17.9739 23.511 17.3719 23.843L17.3589 23.834C16.2149 23.023 15.0879 22.133 14.0429 21.202C11.2249 24.08 10.4309 26.166 10.8039 26.727C10.9299 26.916 11.2959 27.025 11.8069 27.025C14.1569 27.025 17.8869 25.008 20.0939 23.561C22.8029 21.785 25.8929 19.233 27.8299 16.634ZM30.2069 23.725C30.3479 23.455 30.4269 23.148 30.4269 22.822C30.4269 21.755 29.5779 20.89 28.5299 20.89C27.4819 20.89 26.6329 21.755 26.6329 22.822C26.6329 23.889 27.4819 24.754 28.5299 24.754L28.7879 24.736C29.3409 25.76 29.3319 26.334 29.2029 26.523C29.0789 26.704 28.7019 26.811 28.1939 26.811C26.5919 26.811 24.3609 25.866 22.9239 25.153C22.4439 25.495 21.8469 25.901 21.2649 26.272C23.1909 27.309 26.0229 28.567 28.1939 28.567C29.6089 28.567 30.2939 28.001 30.6179 27.525C31.0789 26.851 31.3079 25.675 30.2069 23.725Z" fill="white"/>
</svg>
