<svg xmlns="http://www.w3.org/2000/svg" width="171.866" height="49"  xmlns:v="http://vecta.io/nano"><style>.A{mix-blend-mode:overlay;isolation:isolate}</style><defs><linearGradient id="A" x1=".611" x2=".278" y1=".246" y2="1.008"><stop offset=".002" stop-color="#b11220"/><stop offset=".489" stop-color="#b2131f"/><stop offset=".665" stop-color="#b9181e"/><stop offset=".79" stop-color="#c5221d"/><stop offset=".89" stop-color="#d62f1b"/><stop offset=".977" stop-color="#ec4119"/></linearGradient><linearGradient id="B" x1=".47" x2=".604" y1=".596" y2="-.168"><stop offset="0" stop-color="#3c3c3d"/><stop offset="1" stop-color="#262626"/></linearGradient><linearGradient id="C" x1="33.39" x2="32.804" y1="-43.522" y2="-44.726"><stop offset=".002" stop-color="#b11220"/><stop offset="1" stop-color="#ec4119"/></linearGradient></defs><path fill="url(#A)" d="M44.753 41.649a9.91 9.91 0 0 1-14.549 6.01L4.959 33.101l.006-.01c-3.103-1.778-5.008-5.09-4.984-8.667s1.972-6.863 5.098-8.601 6.946-1.656 9.996.212l25.054 14.45a9.92 9.92 0 0 1 4.625 11.166z"/><g fill="url(#B)"><path d="M31.239 25.356l-16.053 8.318a9.92 9.92 0 0 1-12.584-2.986 9.9 9.9 0 0 0 9.507.2v.014l15.143-7.85z" class="A"/><path d="M31.239 25.356l-16.053 8.318a9.92 9.92 0 0 1-12.584-2.986 9.9 9.9 0 0 0 9.507.2v.014l15.143-7.85z" class="A"/></g><path fill="url(#C)" d="M44.752 7.353a9.91 9.91 0 0 0-5.785-6.6 9.91 9.91 0 0 0-8.758.584L5.2 15.777c-3.146 1.7-5.132 4.962-5.199 8.538s1.798 6.909 4.878 8.725 6.9 1.832 9.996.042l.006.012 25.247-14.586a9.9 9.9 0 0 0 4.625-11.152z"/><path d="M81.334 17.905h-7.8l-4.76 6.5h-.239l.1-12.941h-6.949l-.189 25.78h6.949l.037-5.476 1.049-1.322 3.9 6.8h7.956l-6.676-10.859zm17.299 2.869a7.22 7.22 0 0 0-3.068-2.279 12.14 12.14 0 0 0-4.741-.843 11.48 11.48 0 0 0-4.836.9c-1.186.512-2.208 1.339-2.956 2.392a6.49 6.49 0 0 0-1.139 3.254h6.395a1.79 1.79 0 0 1 .764-1.334 2.88 2.88 0 0 1 1.625-.428 2.52 2.52 0 0 1 1.48.4 1.34 1.34 0 0 1 .58 1.158l.008.05q-.019.831-1.053 1.177a16.07 16.07 0 0 1-3.459.535 12.16 12.16 0 0 0-3.6.793 5.32 5.32 0 0 0-3.532 5.35 5 5 0 0 0 1.72 4.255 7.07 7.07 0 0 0 4.512 1.385 7.44 7.44 0 0 0 3.313-.7 5.25 5.25 0 0 0 2.3-2.323h.151l-.022 2.719h6.5l.114-13.243a5.16 5.16 0 0 0-1.056-3.218zm-5.888 9.617c.029.798-.331 1.561-.965 2.046a3.41 3.41 0 0 1-2.12.724 2.3 2.3 0 0 1-1.46-.434 1.5 1.5 0 0 1-.566-1.227c-.009-.492.196-.963.563-1.29a3.32 3.32 0 0 1 1.786-.724q.807-.151 1.517-.315c.424-.093.84-.224 1.241-.39zm26.196-8.257l-.016-4.23H102.56l-.067 5.287h8.157l-.034.1-8.515 10.121v3.827h17.019l.017-5.287h-8.006l.034-.1zm19.65-1.36a7.22 7.22 0 0 0-3.068-2.279 12.14 12.14 0 0 0-4.741-.843 11.48 11.48 0 0 0-4.836.9c-1.186.512-2.208 1.339-2.956 2.392a6.5 6.5 0 0 0-1.139 3.254h6.395a1.79 1.79 0 0 1 .764-1.334 2.88 2.88 0 0 1 1.625-.428 2.52 2.52 0 0 1 1.48.4 1.34 1.34 0 0 1 .58 1.158l.008.05q-.019.831-1.053 1.177a16.06 16.06 0 0 1-3.459.535 12.16 12.16 0 0 0-3.6.793 5.32 5.32 0 0 0-3.532 5.35 5 5 0 0 0 1.72 4.255 7.07 7.07 0 0 0 4.512 1.385 7.44 7.44 0 0 0 3.313-.7 5.25 5.25 0 0 0 2.3-2.323h.151l-.022 2.719h6.5l.114-13.243a5.16 5.16 0 0 0-1.056-3.218zm-5.888 9.617a2.46 2.46 0 0 1-.966 2.046 3.41 3.41 0 0 1-2.12.724 2.3 2.3 0 0 1-1.46-.434 1.5 1.5 0 0 1-.566-1.227 1.68 1.68 0 0 1 .563-1.29c.511-.413 1.132-.665 1.786-.724q.807-.151 1.517-.315a7.42 7.42 0 0 0 1.241-.39zm37.469-10.951a5.95 5.95 0 0 0-4.482-1.788 6.6 6.6 0 0 0-3.769 1.076 4.97 4.97 0 0 0-2.1 2.851h-.2c-.176-1.15-.812-2.179-1.762-2.851-1.016-.73-2.243-1.107-3.494-1.076a5.82 5.82 0 0 0-3.5 1.057c-.982.709-1.71 1.715-2.075 2.87h-.2l.021-3.676h-6.6l-.155 19.335h6.949l.124-11.279a2.87 2.87 0 0 1 .6-2c.424-.487 1.047-.754 1.692-.724.655-.028 1.288.237 1.726.724a2.99 2.99 0 0 1 .669 2l-.124 11.279h6.648l.124-11.279a2.87 2.87 0 0 1 .6-2c.424-.487 1.047-.754 1.692-.724.655-.028 1.288.237 1.726.724a2.99 2.99 0 0 1 .669 2l-.124 11.279h6.949l.1-13.041c.102-1.751-.513-3.469-1.704-4.757z" fill="#fff"/></svg>