<svg xmlns="https://www.w3.org/2000/svg" width="171.866" height="49" viewBox="0 0 171.866 49">
    <defs>
        <linearGradient id="linear-gradient" x1=".611" x2=".278" y1=".246" y2="1.008" gradientUnits="objectBoundingBox">
            <stop offset=".002" stop-color="#b11220"/>
            <stop offset=".489" stop-color="#b2131f"/>
            <stop offset=".665" stop-color="#b9181e"/>
            <stop offset=".79" stop-color="#c5221d"/>
            <stop offset=".89" stop-color="#d62f1b"/>
            <stop offset=".977" stop-color="#ec4119"/>
        </linearGradient>
        <linearGradient id="linear-gradient-2" x1=".47" x2=".604" y1=".596" y2="-.168" gradientUnits="objectBoundingBox">
            <stop offset="0" stop-color="#3c3c3d"/>
            <stop offset="1" stop-color="#262626"/>
        </linearGradient>
        <linearGradient id="linear-gradient-4" x1="33.39" x2="32.804" y1="-43.522" y2="-44.726" gradientUnits="objectBoundingBox">
            <stop offset=".002" stop-color="#b11220"/>
            <stop offset="1" stop-color="#ec4119"/>
        </linearGradient>
        <style>
            .cls-2{mix-blend-mode:overlay;isolation:isolate;fill:url(#linear-gradient-2)}.cls-4{fill:#fff}
        </style>
    </defs>
    <g id="Group_570" transform="translate(0 -284.38)">
        <g id="Group_571" transform="translate(0 284.38)">
            <path id="Path_1282" fill="url(#linear-gradient)" d="M44.756 382.448a9.908 9.908 0 0 1-14.549 6.01L4.962 373.9l.006-.01a9.914 9.914 0 1 1 10.109-17.055l12.179 7.024 3.986 2.3 8.889 5.126-.006.008a9.9 9.9 0 0 1 4.631 11.158z" transform="translate(-.003 -340.799)"/>
            <g id="Group_570-2" transform="translate(2.599 23.056)">
                <path id="Path_1283" d="M41.294 398.941l-16.053 8.318v-.012a9.9 9.9 0 0 1-12.584-2.974 9.9 9.9 0 0 0 9.507.2v.014l15.143-7.85z" class="cls-2" transform="translate(-12.654 -396.641)"/>
                <path id="Path_1284" d="M41.294 398.941l-16.053 8.318v-.012a9.9 9.9 0 0 1-12.584-2.974 9.9 9.9 0 0 0 9.507.2v.014l15.143-7.85z" class="cls-2" transform="translate(-12.654 -396.641)"/>
            </g>
            <path id="Path_1285" fill="url(#linear-gradient-4)" d="M44.752 291.733a9.908 9.908 0 0 0-14.543-6.016L5.2 300.157a9.914 9.914 0 1 0 9.675 17.305l.006.012 25.247-14.586a9.9 9.9 0 0 0 4.625-11.152z" transform="translate(0 -284.38)"/>
        </g>
        <g id="Group_572" transform="translate(61.491 295.839)">
            <path id="Path_1286" d="M319.245 346.618h-7.8l-4.76 6.5h-.239l.1-12.941h-6.949l-.189 25.78h6.949l.037-5.476 1.049-1.322 3.9 6.8h7.956l-6.676-10.859z" class="cls-4" transform="translate(-299.402 -340.172)"/>
            <path id="Path_1287" d="M412.415 373.45a7.222 7.222 0 0 0-3.068-2.279 12.145 12.145 0 0 0-4.741-.843 11.486 11.486 0 0 0-4.836.9 7.055 7.055 0 0 0-2.956 2.392 6.49 6.49 0 0 0-1.139 3.254h6.395a1.792 1.792 0 0 1 .764-1.334 2.875 2.875 0 0 1 1.625-.428 2.52 2.52 0 0 1 1.48.4 1.344 1.344 0 0 1 .58 1.158l.008.05q-.019.831-1.053 1.177a16.071 16.071 0 0 1-3.459.535 12.166 12.166 0 0 0-3.6.793 5.322 5.322 0 0 0-3.532 5.35 5 5 0 0 0 1.72 4.255 7.064 7.064 0 0 0 4.512 1.385 7.439 7.439 0 0 0 3.313-.7 5.251 5.251 0 0 0 2.3-2.323h.151l-.022 2.719h6.5l.114-13.243a5.162 5.162 0 0 0-1.056-3.218zm-5.888 9.617a2.465 2.465 0 0 1-.965 2.046 3.408 3.408 0 0 1-2.12.724 2.3 2.3 0 0 1-1.46-.434 1.5 1.5 0 0 1-.566-1.227 1.686 1.686 0 0 1 .563-1.29 3.319 3.319 0 0 1 1.786-.724q.807-.151 1.517-.315a7.414 7.414 0 0 0 1.241-.39z" class="cls-4" transform="translate(-375.273 -364.135)"/>
            <path id="Path_1288" d="M513.971 375.784l-.016-4.23H497.59l-.067 5.287h8.157l-.034.1-8.515 10.121v3.827h17.019l.017-5.287h-8.006l.034-.1z" class="cls-4" transform="translate(-456.521 -365.109)"/>
            <path id="Path_1289" d="M606.971 373.45a7.222 7.222 0 0 0-3.068-2.279 12.144 12.144 0 0 0-4.741-.843 11.486 11.486 0 0 0-4.836.9 7.057 7.057 0 0 0-2.956 2.392 6.493 6.493 0 0 0-1.139 3.254h6.395a1.792 1.792 0 0 1 .764-1.334 2.875 2.875 0 0 1 1.625-.428 2.52 2.52 0 0 1 1.48.4 1.344 1.344 0 0 1 .58 1.158l.008.05q-.019.831-1.053 1.177a16.066 16.066 0 0 1-3.459.535 12.165 12.165 0 0 0-3.6.793 5.322 5.322 0 0 0-3.532 5.35 5 5 0 0 0 1.72 4.255 7.064 7.064 0 0 0 4.512 1.385 7.439 7.439 0 0 0 3.313-.7 5.25 5.25 0 0 0 2.3-2.323h.151l-.022 2.719h6.5l.114-13.243a5.162 5.162 0 0 0-1.056-3.218zm-5.888 9.617a2.464 2.464 0 0 1-.966 2.046 3.408 3.408 0 0 1-2.12.724 2.3 2.3 0 0 1-1.46-.434 1.5 1.5 0 0 1-.566-1.227 1.685 1.685 0 0 1 .563-1.29 3.317 3.317 0 0 1 1.786-.724q.807-.151 1.517-.315a7.418 7.418 0 0 0 1.241-.39z" class="cls-4" transform="translate(-529.871 -364.135)"/>
            <path id="Path_1290" d="M719.032 372.116a5.95 5.95 0 0 0-4.482-1.788 6.6 6.6 0 0 0-3.769 1.076 4.973 4.973 0 0 0-2.1 2.851h-.2a4.284 4.284 0 0 0-1.762-2.851 5.745 5.745 0 0 0-3.494-1.076 5.822 5.822 0 0 0-3.5 1.057 5.636 5.636 0 0 0-2.075 2.87h-.2l.021-3.676h-6.6l-.155 19.335h6.949l.124-11.279a2.871 2.871 0 0 1 .6-2 2.114 2.114 0 0 1 1.692-.724 2.194 2.194 0 0 1 1.726.724 2.991 2.991 0 0 1 .669 2l-.124 11.279H709l.124-11.279a2.871 2.871 0 0 1 .6-2 2.113 2.113 0 0 1 1.692-.724 2.195 2.195 0 0 1 1.726.724 2.992 2.992 0 0 1 .669 2l-.124 11.279h6.949l.1-13.041a6.456 6.456 0 0 0-1.704-4.757z" class="cls-4" transform="translate(-610.351 -364.135)"/>
        </g>
    </g>
</svg>
